<mxfile host="app.diagrams.net" agent="Mozilla/5.0 (Windows NT 10.0; Win64; x64) AppleWebKit/537.36 (KHTML, like Gecko) Chrome/131.0.0.0 Safari/537.36 Edg/131.0.0.0" version="25.0.3">
  <diagram id="C5RBs43oDa-KdzZeNtuy" name="Page-1">
    <mxGraphModel dx="2453" dy="1916" grid="1" gridSize="10" guides="1" tooltips="1" connect="1" arrows="1" fold="1" page="1" pageScale="1" pageWidth="827" pageHeight="1169" math="0" shadow="0">
      <root>
        <mxCell id="WIyWlLk6GJQsqaUBKTNV-0" />
        <mxCell id="WIyWlLk6GJQsqaUBKTNV-1" parent="WIyWlLk6GJQsqaUBKTNV-0" />
        <mxCell id="zkfFHV4jXpPFQw0GAbJ--0" value="User" style="swimlane;fontStyle=2;align=center;verticalAlign=top;childLayout=stackLayout;horizontal=1;startSize=26;horizontalStack=0;resizeParent=1;resizeLast=0;collapsible=1;marginBottom=0;rounded=0;shadow=0;strokeWidth=1;" parent="WIyWlLk6GJQsqaUBKTNV-1" vertex="1">
          <mxGeometry x="220" y="120" width="160" height="138" as="geometry">
            <mxRectangle x="230" y="140" width="160" height="26" as="alternateBounds" />
          </mxGeometry>
        </mxCell>
        <mxCell id="zkfFHV4jXpPFQw0GAbJ--1" value="Name" style="text;align=left;verticalAlign=top;spacingLeft=4;spacingRight=4;overflow=hidden;rotatable=0;points=[[0,0.5],[1,0.5]];portConstraint=eastwest;" parent="zkfFHV4jXpPFQw0GAbJ--0" vertex="1">
          <mxGeometry y="26" width="160" height="26" as="geometry" />
        </mxCell>
        <mxCell id="zkfFHV4jXpPFQw0GAbJ--2" value="Phone Number" style="text;align=left;verticalAlign=top;spacingLeft=4;spacingRight=4;overflow=hidden;rotatable=0;points=[[0,0.5],[1,0.5]];portConstraint=eastwest;rounded=0;shadow=0;html=0;" parent="zkfFHV4jXpPFQw0GAbJ--0" vertex="1">
          <mxGeometry y="52" width="160" height="26" as="geometry" />
        </mxCell>
        <mxCell id="zkfFHV4jXpPFQw0GAbJ--3" value="Email Address" style="text;align=left;verticalAlign=top;spacingLeft=4;spacingRight=4;overflow=hidden;rotatable=0;points=[[0,0.5],[1,0.5]];portConstraint=eastwest;rounded=0;shadow=0;html=0;" parent="zkfFHV4jXpPFQw0GAbJ--0" vertex="1">
          <mxGeometry y="78" width="160" height="26" as="geometry" />
        </mxCell>
        <mxCell id="zkfFHV4jXpPFQw0GAbJ--4" value="" style="line;html=1;strokeWidth=1;align=left;verticalAlign=middle;spacingTop=-1;spacingLeft=3;spacingRight=3;rotatable=0;labelPosition=right;points=[];portConstraint=eastwest;" parent="zkfFHV4jXpPFQw0GAbJ--0" vertex="1">
          <mxGeometry y="104" width="160" height="8" as="geometry" />
        </mxCell>
        <mxCell id="zkfFHV4jXpPFQw0GAbJ--5" value="Purchase Parking Pass" style="text;align=left;verticalAlign=top;spacingLeft=4;spacingRight=4;overflow=hidden;rotatable=0;points=[[0,0.5],[1,0.5]];portConstraint=eastwest;" parent="zkfFHV4jXpPFQw0GAbJ--0" vertex="1">
          <mxGeometry y="112" width="160" height="26" as="geometry" />
        </mxCell>
        <mxCell id="zkfFHV4jXpPFQw0GAbJ--6" value="Student" style="swimlane;fontStyle=0;align=center;verticalAlign=top;childLayout=stackLayout;horizontal=1;startSize=26;horizontalStack=0;resizeParent=1;resizeLast=0;collapsible=1;marginBottom=0;rounded=0;shadow=0;strokeWidth=1;" parent="WIyWlLk6GJQsqaUBKTNV-1" vertex="1">
          <mxGeometry x="120" y="360" width="160" height="138" as="geometry">
            <mxRectangle x="130" y="380" width="160" height="26" as="alternateBounds" />
          </mxGeometry>
        </mxCell>
        <mxCell id="zkfFHV4jXpPFQw0GAbJ--7" value="Student Number" style="text;align=left;verticalAlign=top;spacingLeft=4;spacingRight=4;overflow=hidden;rotatable=0;points=[[0,0.5],[1,0.5]];portConstraint=eastwest;" parent="zkfFHV4jXpPFQw0GAbJ--6" vertex="1">
          <mxGeometry y="26" width="160" height="26" as="geometry" />
        </mxCell>
        <mxCell id="zkfFHV4jXpPFQw0GAbJ--8" value="Average Mark" style="text;align=left;verticalAlign=top;spacingLeft=4;spacingRight=4;overflow=hidden;rotatable=0;points=[[0,0.5],[1,0.5]];portConstraint=eastwest;rounded=0;shadow=0;html=0;" parent="zkfFHV4jXpPFQw0GAbJ--6" vertex="1">
          <mxGeometry y="52" width="160" height="26" as="geometry" />
        </mxCell>
        <mxCell id="zkfFHV4jXpPFQw0GAbJ--9" value="" style="line;html=1;strokeWidth=1;align=left;verticalAlign=middle;spacingTop=-1;spacingLeft=3;spacingRight=3;rotatable=0;labelPosition=right;points=[];portConstraint=eastwest;" parent="zkfFHV4jXpPFQw0GAbJ--6" vertex="1">
          <mxGeometry y="78" width="160" height="8" as="geometry" />
        </mxCell>
        <mxCell id="zkfFHV4jXpPFQw0GAbJ--10" value="Is Eligible To Enroll" style="text;align=left;verticalAlign=top;spacingLeft=4;spacingRight=4;overflow=hidden;rotatable=0;points=[[0,0.5],[1,0.5]];portConstraint=eastwest;fontStyle=4" parent="zkfFHV4jXpPFQw0GAbJ--6" vertex="1">
          <mxGeometry y="86" width="160" height="26" as="geometry" />
        </mxCell>
        <mxCell id="zkfFHV4jXpPFQw0GAbJ--11" value="Get Seminars Taken" style="text;align=left;verticalAlign=top;spacingLeft=4;spacingRight=4;overflow=hidden;rotatable=0;points=[[0,0.5],[1,0.5]];portConstraint=eastwest;" parent="zkfFHV4jXpPFQw0GAbJ--6" vertex="1">
          <mxGeometry y="112" width="160" height="26" as="geometry" />
        </mxCell>
        <mxCell id="zkfFHV4jXpPFQw0GAbJ--12" value="" style="endArrow=block;endSize=10;endFill=0;shadow=0;strokeWidth=1;rounded=0;curved=0;edgeStyle=elbowEdgeStyle;elbow=vertical;" parent="WIyWlLk6GJQsqaUBKTNV-1" source="zkfFHV4jXpPFQw0GAbJ--6" target="zkfFHV4jXpPFQw0GAbJ--0" edge="1">
          <mxGeometry width="160" relative="1" as="geometry">
            <mxPoint x="200" y="203" as="sourcePoint" />
            <mxPoint x="200" y="203" as="targetPoint" />
          </mxGeometry>
        </mxCell>
        <mxCell id="zkfFHV4jXpPFQw0GAbJ--13" value="Professor" style="swimlane;fontStyle=0;align=center;verticalAlign=top;childLayout=stackLayout;horizontal=1;startSize=26;horizontalStack=0;resizeParent=1;resizeLast=0;collapsible=1;marginBottom=0;rounded=0;shadow=0;strokeWidth=1;" parent="WIyWlLk6GJQsqaUBKTNV-1" vertex="1">
          <mxGeometry x="330" y="360" width="160" height="70" as="geometry">
            <mxRectangle x="340" y="380" width="170" height="26" as="alternateBounds" />
          </mxGeometry>
        </mxCell>
        <mxCell id="zkfFHV4jXpPFQw0GAbJ--14" value="Salary" style="text;align=left;verticalAlign=top;spacingLeft=4;spacingRight=4;overflow=hidden;rotatable=0;points=[[0,0.5],[1,0.5]];portConstraint=eastwest;" parent="zkfFHV4jXpPFQw0GAbJ--13" vertex="1">
          <mxGeometry y="26" width="160" height="26" as="geometry" />
        </mxCell>
        <mxCell id="zkfFHV4jXpPFQw0GAbJ--15" value="" style="line;html=1;strokeWidth=1;align=left;verticalAlign=middle;spacingTop=-1;spacingLeft=3;spacingRight=3;rotatable=0;labelPosition=right;points=[];portConstraint=eastwest;" parent="zkfFHV4jXpPFQw0GAbJ--13" vertex="1">
          <mxGeometry y="52" width="160" height="8" as="geometry" />
        </mxCell>
        <mxCell id="zkfFHV4jXpPFQw0GAbJ--16" value="" style="endArrow=block;endSize=10;endFill=0;shadow=0;strokeWidth=1;rounded=0;curved=0;edgeStyle=elbowEdgeStyle;elbow=vertical;" parent="WIyWlLk6GJQsqaUBKTNV-1" source="zkfFHV4jXpPFQw0GAbJ--13" target="zkfFHV4jXpPFQw0GAbJ--0" edge="1">
          <mxGeometry width="160" relative="1" as="geometry">
            <mxPoint x="210" y="373" as="sourcePoint" />
            <mxPoint x="310" y="271" as="targetPoint" />
          </mxGeometry>
        </mxCell>
        <mxCell id="zkfFHV4jXpPFQw0GAbJ--17" value="Address" style="swimlane;fontStyle=0;align=center;verticalAlign=top;childLayout=stackLayout;horizontal=1;startSize=26;horizontalStack=0;resizeParent=1;resizeLast=0;collapsible=1;marginBottom=0;rounded=0;shadow=0;strokeWidth=1;" parent="WIyWlLk6GJQsqaUBKTNV-1" vertex="1">
          <mxGeometry x="508" y="120" width="160" height="216" as="geometry">
            <mxRectangle x="550" y="140" width="160" height="26" as="alternateBounds" />
          </mxGeometry>
        </mxCell>
        <mxCell id="zkfFHV4jXpPFQw0GAbJ--18" value="Street" style="text;align=left;verticalAlign=top;spacingLeft=4;spacingRight=4;overflow=hidden;rotatable=0;points=[[0,0.5],[1,0.5]];portConstraint=eastwest;" parent="zkfFHV4jXpPFQw0GAbJ--17" vertex="1">
          <mxGeometry y="26" width="160" height="26" as="geometry" />
        </mxCell>
        <mxCell id="zkfFHV4jXpPFQw0GAbJ--19" value="City" style="text;align=left;verticalAlign=top;spacingLeft=4;spacingRight=4;overflow=hidden;rotatable=0;points=[[0,0.5],[1,0.5]];portConstraint=eastwest;rounded=0;shadow=0;html=0;" parent="zkfFHV4jXpPFQw0GAbJ--17" vertex="1">
          <mxGeometry y="52" width="160" height="26" as="geometry" />
        </mxCell>
        <mxCell id="zkfFHV4jXpPFQw0GAbJ--20" value="State" style="text;align=left;verticalAlign=top;spacingLeft=4;spacingRight=4;overflow=hidden;rotatable=0;points=[[0,0.5],[1,0.5]];portConstraint=eastwest;rounded=0;shadow=0;html=0;" parent="zkfFHV4jXpPFQw0GAbJ--17" vertex="1">
          <mxGeometry y="78" width="160" height="26" as="geometry" />
        </mxCell>
        <mxCell id="zkfFHV4jXpPFQw0GAbJ--21" value="Postal Code" style="text;align=left;verticalAlign=top;spacingLeft=4;spacingRight=4;overflow=hidden;rotatable=0;points=[[0,0.5],[1,0.5]];portConstraint=eastwest;rounded=0;shadow=0;html=0;" parent="zkfFHV4jXpPFQw0GAbJ--17" vertex="1">
          <mxGeometry y="104" width="160" height="26" as="geometry" />
        </mxCell>
        <mxCell id="zkfFHV4jXpPFQw0GAbJ--22" value="Country" style="text;align=left;verticalAlign=top;spacingLeft=4;spacingRight=4;overflow=hidden;rotatable=0;points=[[0,0.5],[1,0.5]];portConstraint=eastwest;rounded=0;shadow=0;html=0;" parent="zkfFHV4jXpPFQw0GAbJ--17" vertex="1">
          <mxGeometry y="130" width="160" height="26" as="geometry" />
        </mxCell>
        <mxCell id="zkfFHV4jXpPFQw0GAbJ--23" value="" style="line;html=1;strokeWidth=1;align=left;verticalAlign=middle;spacingTop=-1;spacingLeft=3;spacingRight=3;rotatable=0;labelPosition=right;points=[];portConstraint=eastwest;" parent="zkfFHV4jXpPFQw0GAbJ--17" vertex="1">
          <mxGeometry y="156" width="160" height="8" as="geometry" />
        </mxCell>
        <mxCell id="zkfFHV4jXpPFQw0GAbJ--24" value="Validate" style="text;align=left;verticalAlign=top;spacingLeft=4;spacingRight=4;overflow=hidden;rotatable=0;points=[[0,0.5],[1,0.5]];portConstraint=eastwest;" parent="zkfFHV4jXpPFQw0GAbJ--17" vertex="1">
          <mxGeometry y="164" width="160" height="26" as="geometry" />
        </mxCell>
        <mxCell id="zkfFHV4jXpPFQw0GAbJ--25" value="Output As Label" style="text;align=left;verticalAlign=top;spacingLeft=4;spacingRight=4;overflow=hidden;rotatable=0;points=[[0,0.5],[1,0.5]];portConstraint=eastwest;" parent="zkfFHV4jXpPFQw0GAbJ--17" vertex="1">
          <mxGeometry y="190" width="160" height="26" as="geometry" />
        </mxCell>
        <mxCell id="zkfFHV4jXpPFQw0GAbJ--26" value="" style="endArrow=open;shadow=0;strokeWidth=1;rounded=0;curved=0;endFill=1;edgeStyle=elbowEdgeStyle;elbow=vertical;" parent="WIyWlLk6GJQsqaUBKTNV-1" source="zkfFHV4jXpPFQw0GAbJ--0" target="zkfFHV4jXpPFQw0GAbJ--17" edge="1">
          <mxGeometry x="0.5" y="41" relative="1" as="geometry">
            <mxPoint x="380" y="192" as="sourcePoint" />
            <mxPoint x="540" y="192" as="targetPoint" />
            <mxPoint x="-40" y="32" as="offset" />
          </mxGeometry>
        </mxCell>
        <mxCell id="zkfFHV4jXpPFQw0GAbJ--27" value="0..1" style="resizable=0;align=left;verticalAlign=bottom;labelBackgroundColor=none;fontSize=12;" parent="zkfFHV4jXpPFQw0GAbJ--26" connectable="0" vertex="1">
          <mxGeometry x="-1" relative="1" as="geometry">
            <mxPoint y="4" as="offset" />
          </mxGeometry>
        </mxCell>
        <mxCell id="zkfFHV4jXpPFQw0GAbJ--28" value="1" style="resizable=0;align=right;verticalAlign=bottom;labelBackgroundColor=none;fontSize=12;" parent="zkfFHV4jXpPFQw0GAbJ--26" connectable="0" vertex="1">
          <mxGeometry x="1" relative="1" as="geometry">
            <mxPoint x="-7" y="4" as="offset" />
          </mxGeometry>
        </mxCell>
        <mxCell id="zkfFHV4jXpPFQw0GAbJ--29" value="lives at" style="text;html=1;resizable=0;points=[];;align=center;verticalAlign=middle;labelBackgroundColor=none;rounded=0;shadow=0;strokeWidth=1;fontSize=12;" parent="zkfFHV4jXpPFQw0GAbJ--26" vertex="1" connectable="0">
          <mxGeometry x="0.5" y="49" relative="1" as="geometry">
            <mxPoint x="-38" y="40" as="offset" />
          </mxGeometry>
        </mxCell>
        <mxCell id="i1clUJmfN_svvREyQB3U-0" value="" style="shape=image;verticalLabelPosition=bottom;labelBackgroundColor=default;verticalAlign=top;aspect=fixed;imageAspect=0;image=data:image/png,iVBORw0KGgoAAAANSUhEUgAABZQAAAMkCAYAAAAvSaV+AAAAAXNSR0IArs4c6QAAAARnQU1BAACxjwv8YQUAAAAJcEhZcwAAGJsAABibAUl1g5QAAP+lSURBVHhe7P0LvBVlfuB7F2k9SY/abTvRQFqDGOPxCnbU2IKO0oJ9uCS00diDOCS2csYLwthO2tfLQTGKr+kYB5HWGbWd8Iq8Mjo2OaAjYKMjaNtqFBQ0xoiM2hDMse2IfQl2OPv3UP9tUay1WXvvtTfr8vt+PvWpqqeuq6pWXf711PMM2NYhkyRJkiRJkiRpF34lb0uSJEmSJEmS1CUDypIkSZIkSZKkmhhQliRJkiRJkiTVxICyJEmSJEmSJKkmBpQlSZIkSZIkSTUxoCxJkiRJkiRJqokBZUmSJEmSJElSTQwoS5IkSZIkSZJqYkBZkiRJkiRJklQTA8qSJEmSJEmSpJoYUJYkSZIkSZIk1cSAsiRJkiRJkiSpJgaUJUmSJEmSJEk1MaAsSZIkSZIkSaqJAWVJkiRJkiRJUk0MKEuSJEmSJEmSamJAWZIkSZIkSZJUEwPKkiRJkiRJkqSaGFCWJEmSJEmSJNVkwLYOeXfbeuWVV1IjSa1o8ODB2WGHHZbtv//+eYokSZIkSVLPtG1A+eOPP85uvfXW7M4778w2bdqUp0pS6xo1alR2/fXXZyNGjMhTJLWy999/P93vSFIrOfDAA7M99tgj75MkSbtDWwaUecAaOnToDoFkAi3m3pPUilasWLHD+W7JkiXZ2LFj8z5JrYQvrh555BFfmEtqeRMnTswuvfRSX5RLkrQbtF1AmQetM844o/Mha/78+dmECROyvfbaK/VLUit6++23sylTpmTLly9P/StXrvQBTGohn3zySTZmzJjO/7gktQsyBj322GPmWpYkqR+1VUCZzz733nvv1D1w4MBszZo15kqW1DaKASfPgVLr4Murc889tzOYTHDl8ssvz0444QT/45JaDi/J33vvvWzu3LnZggULUhrnvWXLlqVuSZLU99oqoHzDDTdk1113nYEUSW2rWOTPtGnTstmzZ+dDJDUjXpYfeuihnV9eWaSNpHby6KOPZuPGjUvdM2fOzGbMmJG6JUlS32qrgPKAAQNSm2IuyMkjSe1o1apV2cknn5y6t27d6ieiUhMrvix/6KGHLMpGUtuJ8yAs0kuSpP7RNgFlPo0aMmRI6t6yZYtlJktqWxR9seeee6ZuH7yk5lUsysuX5ZLaGec/ir/w6ytJkvrHr+TttmIwWVI7I0cyZQ1iw4YNqS2p+bz11lt5V5adc845eZcktZ9LL700tW+//fb04lySJPWttgkoP/PMM6kdQRRJameWIS81v1deeSW1ubex6BpJ7ezYY4/Nu7Ls3XffzbskSVJfabscygZRJElSK/jggw9S23sbSe2OL1CpdBjr1q1LbUmS1HfassgLSZKkZhdfX40fPz61JamdHXXUUan94YcfprYkSeo7BpQlSZIkSZIkSTUxoCw1CCoQefvtt1Ot/aBd7JckSWomq1atys4999zs/fffz1MkSZLUCgwoq+0QuOXhhiYqNCqLB6Bic8MNN2QPPPBACvKWdfXARECY4UzPONOnT684HyoQGTJkSLZo0aLUT7vYL0mS1B3cawwYMGCnhvuRavc09bRhw4ZswYIFvhyXJElqMQaU1Xaee+659HBDc/PNN+epO4oHoBUrVnSOe91112WTJk1KQd7Ro0fv8HBU7YGJAPOhhx6anXzyyWn6tWvXZgsXLuycD0HmaiZMmJCtX78+tfsC68ZDZV8/TEqSpN2Lysrmz5+fmpkzZ6b7kVruRXqLwPW2bduygw8+OE+RJElSKzCgrLZz/fXXp/bEiRMrBoGLnn322fQgFM2WLVuyadOmZcuXL8/uu+++fKzKCNjyALdp06Y0DcHh1atXZxs3bsw2b96chhFkfvTRR/MpdkRt1TyA0e4Lb7zxRt4lSZJaGZWVEdylmTFjRrof4V5k1KhR6V6E9EqiOK6+LLKiq/uwcnFgkiRJagwGlNVWeCAiGEzunEsvvTSldadICYK7s2bNSt133313aldD0RYEk5csWZLNnj17h9w5+++/f1oPHuTeeuutPHVHUYwG7aJIJ3cxuYrKD1l33HFHGk46v5fuQYMGpfQYl+5LLrkkdU+ZMqXqg6QkSWpN3Is89thj2cCBA9ML9mLQmG7uMQ466KCUi/mAAw5I9xIxDsVlcB/C/UQZ0zGM+5UYr/g1FPcifOlFOg1fcpXvdcrL33vvvbNhw4btsI6SJEnafQwoq63ceeedqX3mmWdmI0aMSA9Rt9xyS0qr1a/+6q+m9po1a1K7Gh7OcOqpp6Z2GQ9yy5Yty6ZOnZqn7CiK0aAdeJij+Aym5bPVp59+Oj1kFQPCf/d3f5emI1BMLujhw4enB8HLLrssu/rqq9M4X/rSl1JuJZxyyinZ+PHjU7ckSWofe+yxR3bNNdek7ueffz61yRXMfQM5l++99970hdWcOXPSS3LSGR7FcVV6uc69FvdXJ554Yp7yKQLCBJDj5X7Ml3ubCE5XWz73XdzXMFySJEm7lwFltQ0eQOIh55hjjklpF198cXpAqVY5XyWUgQyKsagmcuLw4FOvIitYRx66eAAjxzNBZALSrAcB5FhmPMDx0PbOO++kgDWftvK7b7/99jSMYHoEkSdPnmwOZUmS2hQvmfHCCy+k9muvvZbafGE1duzY9IUV9xL0Y+nSpenehq+suIcq5hqOexXurwhWl3HfwnCmo+gN5rty5co0jBfioK4LlJcfwecYLkmSpN3HgLLaBg8gPIhEThzwwIN77rkntcvmzZuXPtekIejK55ZUYkNw9sILL8zH2tl7772X2meddVZq18NTTz2V2ldccUVqh3POOSe1n3nmmdQOl19++Q4PcyNHjkzt4menkiSpvX3xi19M7ddffz21H3nkkdT+/Oc/n+4Zogn3339/akedFA8++GBqI6blZXUlixcvTm3uowIvuamngpfliBf3FHdRXP4hhxyS0l966aXUliRJ0u5jQFltI8oMJidOPJxQjh+5iMm5Wy6LGHxuSQCZhlzAfIJJjuA333yzM5dzJfFw9vDDD6d2PcRnpRRxEeUO0vCZaCVHHnlk3iVJklRZvJCmiCzEvQv3F5RfHM24ceNSeogvoorFXvAlGPdVxXojilasWJHaFN1VTQSUmU+l5ZdfoEuSJKn/GVBWWyB4HGUelx+QIr1S5XyU20eumWj4VJMcNLsqxuLAAw9M7fKnoGWVgtjVEMwGn3xSfnK5GTx4cBouSZJUq8g1HEVfxP0GRVFwH1RuIicxX0Hxkp17He5nqFiPL8Gow6Gao48+OrVrKQd5V8uXJEnS7mNAWW2BoitA4LXSwwm6WzlfV3jImjhxYuqOSm7KePiiYhqK0ahFVIBDJX8Uv1Fu+GRUkiSpVgSB+QKrWIleMfcwOY3LTXF4FP9FsVyRs/j8889P7Upi2Lvvvpva4dFHH03FiyGK6MKuli9JkqTdw4CyWh65YCi6goclyhuu9HASOWy6UznfrsyaNSu1+UTzhhtuSLmkA7mWv/a1r6WcPDfffHOe2rWoRI/yniNnD0HpCCh3lRO6K1HesyRJag/c73BvEsVm3XvvvZ31Llx66aWpPXfu3M4vqbiH4QX4oEGDdrhXovgv7q9uu+22VHwYFfV19RXX6NGjU5tczMV5c68UOaXPO++81K5l+ZIkSdo9DCir5VEbOarVOI7IYVOtcr6eIFBNjmgQ0KZ4jXgY4nPS5cuXZzNnzkw1mNeC+UV5z1RUM3369FSeMjmL0N0cO1FW4tlnn50C0pIkqTVxr1Csf4H7iXjZvmTJkh3uRfjiifsTpuE+g3uXKCKM3MPlOiS4v+KeBlFRXzXcqzBvxmfeBJiZN6IsZtaluPwYh+WTMaCrOiwkSZLUPwwoq+W98MILqfgJHniq4eGEXMrk8iX3L+URM82uykoO1cYnULt58+b0YMRwHoYoPzCK3pgxY0Y+ZpamZZwoCznmWSwbefXq1Wk6fguBZYYzryjSA9XWhQByMT0C3sVPSyVJUuuIe4tiw/0O13/uSahkuNKLbe5Ptm7dmoLNRx11VLqPoUzj4v1G4J4k5h3FZoRK9yTMe8uWLWkdCDCzDPrL48TyIwjN8m+99dZ8DEmSJO1OA7ZR01gboFy2SZMmpZvaKKNNktoVLzvI/cUDvTnUpebk/1iSPuU5UZKk/mMOZUmSJEmSJElSTQwoS5IkSZIkSZJqYkBZkiRJkiRJklQTA8qSJEmSJEmSpJoYUJYkSZIkSZIk1cSAsiRJkiRJkiSpJgaUJUmSJEmSJEk1MaAsSZIkSZIkSaqJAWVJkiRJkiRJUk0MKEuSJEmSJEmSamJAWZIkSZIkSZJUEwPKkiRJkiRJkqSaGFCWJEmSJEmSJNWk7QLKCxYsyAYMGGBjY2PT1g3nQkmSJEmSpO4yh7IkSVITmzRpUsUXRzY2Njbt1PiyXJKk/tN2AeWJEydm27Zta4smVBpm035NqDTMpv0azoWSJEmSJEndZQ5lSZKkJjZ//vyKL45arQmVhtnYdLcJlYbZNGfjy3JJkvqPAWVJkiRJkiRJUk0MKEuSJEmSJEmSamJAWZIkSZIkSZJUEwPKkiRJ/eCTX/4y75Ik9ZX/54MfZ2teXZf39d7GTf/g+VuSpBIDypIkSf3g1NF/kHepHZx77rmp6Qt9Oe++0Gzr22xWrVqVti9tEVD+MLt42p9mky+8tC6B5bPP/Ub2/vv/mPdJkiQYUO6FAQMG7NAMGjSo84a50g1djFfJDTfckIaNHj06T5EkSeo/b7/9due9SrGJ+5vyvU2MXylQ+P7776fpGN6uQa4FCxakpi/05bxr9cADD6T9S3tXGmF9W9mGDRvS9qXdXfxXP/7447yvNRx26JBs+ZKHs9P+zYi6BpYlSdKnDCjXwcSJE1MzcuTI1M8N3cknn5wNGzYs++STT1JaVwgmX3fdddmoUaOyxx57LE9tPxGMD3TfcccdeV9j4SGaG/BdYf35HbWMq/qJ7S5J6r6hQ4dm8+fPz6ZNm9Z5fxP3NrW8+Obeh3uaTZs2ZStXrsxGjBiRD1G9bNu2LTUSuOfheOjJvQ//90WLFuV9reOzn/217BuTzzWwLElSHzGgXAfkzCg2W7ZsSQ9ha9asyZ577rl8rMrKweQ99tgjH9J++jv3CjmmepprasiQIdn06dPzvuqeeeaZ9JtaLedHqyLwX0tOK0lqZUcddVQKTM2ePbvz3mbr1q3pXmX58uVdviQlmDxmzJh0DzRz5sy2Cibz24vbhkBdNdwX8HK6lowHPbGr+w7Wsy+XX94W2r3YH+zvMo4TXvy0MgPLkiT1DQPKfWCvvfbKLrzwwtQ9d+7c1K7EYHLXeICdOnVq3ld/l1xySZf7R82L46YngeFly5ZlkyZNyvskSYF7lMsvvzx133nnnaldRtCKYDJBZ4LJM2bMyIe0Nn4315yDDjooO+CAA1IwnkAdgfkyXmQzfO+9904vp/fcc890PxiBXb5uoxiJckCY4VH8COimKWLekc78yU1eng/jkM56FpdfLyyPr4RiW/DyvbwOqj+OP/Z73PtEP0HkV155JTvuuOPS/ub4evTRRzvH4TgB9z4xfqsysCxJUn0ZUN5N2jWYHDliaHb1gME4lXK3MB03w9wgl0UOjJh3POQV5xPjkHuq3jl0WC7Li+Xvv//+qa3+Ffs1lPsr5U5n+H333dfZXenYk6R29tZbb6X2fvvtl9pFXEfbMZiMyZMnp4AcAVSK+Dj88MNToG7FihX5GNtx70KxIVxf1q9fn+5DuA/kfnDWrFlpnClTpqT2U089ldohvni7+OKLU7uMew/mPXDgwLQOkZv80EMP7byeEehlHJSXX6+gMut/2WWXpW3B/P/1v/7XnUFL9b8JEyZk5513Xvad73wnFWOzefPmbNy4cen/yrAlS5ak8fjPckwceOCBqb+VGViWJKlOtrWJjpsoCprbNnHixDyl95hfpU24ZcuWtByGddyo5amfjt9x05baHTf927Zu3ZoPrb9YXqOIfRANv7/joScfuvP60l3cXx03wZ3bLpqhQ4emecR27LgZTuksi23PMorjFscpNqR1B9MU143ll9eNdZgzZ06P5t8XYr3aQfz/QvSzHzoenju3BcdH7JtIi6a4f1tRbBOOU0n9Y/jIsXlXfdT7fxzXx0rnP4ZxHWU41+NIo5/zapxb41rbF5g/TSPhno91Kt/TrVmzZqf1ZbtWuveL7Uo625ZutmfRtGnTUnps+/K86S7OmzbLi/skME/6y8tnukrrtStxXxfHX7V1Z/nl9W0EjbhOPVXeF9Ff/j/GvSrHJ+I/HNM1u56cE3/6059tu/ev5qfz87+74JJtq19Zmw/5FMN+tHFT3idJkmAO5Trg08ViQ04Mys3tuKHOTj311HysT5ETBJRZdtddd6XuVkeuGHLvdNzopRwQc+bMSb+fnDLlnKLV3HjjjWnbkYui49hNZVXzOSnzWLp0aT7Wdizr/vvvz5599tmUG4PlklOGnKcHH3xwWgeQzrxI642FCxd25jhn3jSLFy9OuXTUOMiNc/3116eyQOMYnDdvXhrGccDxEN3k9pKkdkTO2uJ9DZ/J87k811HOneWvb8gJSzNw4MA0Tq3X9VYQuX+puLD4tdkhhxySd21HjlDuDY8++ujs3XffTfcj0UTRGKSzbbmXYHvG11N89XT77benMpkrfflUaR1ocx1bvXp1KseaeTBPllVePuvE9ZD03qj2ddZhhx2Wd6m/nXXWWXnXduRYR6Wv/NqVOZYlSeoZA8p1EJXJ0XBTT4V8fEJGeayUp1zGwxjBUB68CDi2w4NX1B7Nww3BW8q45ZNMgsOf+9zn0rCu8FDFwxTbNj6jZdtGMPCqq65K7SKGsSwebPjcDwR5+0IUlRC/j8aAZOPhk08erHnQvuiii1Laww8/nNqSpMoIQs6fPz+9LK1Ut0EEkmno5kVvuwWshg8fnndtV77/i2AtQV2C88WG+8eiKKs6irmI4i9uvvnm1C574403Unv8+PGpXcnLL7+c2iyrvHzWqR7WrdsegCuvR6UguPpHBJC1awaWJUnqngHbyIrXBgjuRQ7ZegX6qLwCtW7C8vgEnyljDjyk9TaXbFl316+vEAym0hdy3BBkr6a8vvTH/uLBlJw59JcfVK644oqUs4bpyGnDw1F5P0c6AWwC0tXGq1Vx3aIf5W1NxTc8qPXF/u2uRjke+gM56nhojt8a/bzIKT7kl7dJebpWFr+VIBHdUlc2bvqH7JVXX8tW/eCHeYp6Yvn3dywXtx6eWfFo3f7H3b02Vhqfl+RRli8B5noGExvxOhbbgBfes2fPzlM/vfcB6xvjcS909913p/Qyyq/lhSc5ffnaLeYZ9xLFa1hxW8T9ZHkdirqz/Fqxz7m3juMvlhH3WiF+Dxpp37XSfVF5X5T7Q7V9Vq9zyO7Gb+De5i9uvS37p5/+c57aM+vf3pD9/Vuf1r8x4qQTU9C5msG/dWB24G/+ZnbM0Ud0nPd+PdvjM5/Jh0iS1JoMKPdCd29EK43fDg9ecbO6q21fXl/6Y5rYf11humrLKt8w17pO1RTXLfpR3tZxY2tAuX/Fdo/fWu4P5W1SbbxWFL+1VR4iVX8/+9nPsyX/Y1n2V/c/mH3w4x9nx//usdkpI76cfW6fffIx1F0zZ307W/X97ZVg1UO9/8fdvTZWG59urtm8CH7xxRe7FaTsSqNex1iv8kvz2DZgfYuZCGpZ/9i3FNtVKVhc3haDBg1KRVcU14Fl0n/MMcdk+3T8b1kf7jc3btyYj9E7sZ/j+Isgevl4iEwBaKR910r3ReV9Ue4P5fTy/XGz4zfwv7nzrv+cHfLbvStqhReoxZeA0y/5P7N99/183rezta/9bfb2hv+VvfA3278GuOBPJmVjzjg9GzTwN1K/JEktp+Mmqi103Chxt1ixopmeYn7d2YTVxo+K26g4o7sVonSlu+vXlzoeYHaqGKSsvL50x/5an1caQmUiXYnxyvs50jkOiv09PR7K03Y8SKa0Mn4z6Sxvd2M9Kq1jK2LfFH9ruT+Ut0m18VpR/Nb4T0hFq5794bbxfzgpVVBE99ZPPsmHqDeauVK+Sroan+s1w7g+1uvehvnRNJq4B4iKmKmoL/ZNcX1jPPYX24Qm7k8ZVhQV2cU0UbFeII0mxPYuHguxDnEPEvckrGd5+bXu86KYtrhM1pd7vtgWLDt+A00jacR16qnyvqi0b1BO7+5/vtHFMV/+3d1B5Xsz/uyWdL6mTX93KuXjeknFftOuuDpN95e33+U1VJLUkixDuQFQHmHHDVDKoTxmzJg8tbVcfPHF6fcVUVEfn3EWc7FUQ+5ectU8/fTTecp25IYh50tUBLO7nHLKKalNbqDAupV/syQ1uun/8ZrsT6++Prvs4guzeffMzYZ/+QQ/3VW3XX311Z2Vy82aNStPbU1U9so9yrhx41IFhhTvQMWGkSs3cL/DNiGH6EEHHZQdd9xxqRvMo+jEE09MbbYf86b8/65wn8XymB/rQI5lcmpyfxlfSFGfBeOwniyfJpZfqS6Knojyn2NbkPuVXNZqTBwbHJMcK+TubacKNcso2um6G/88O/vcb6T+hx74bjbz2m91O4cx18uhRx+Zzf6Lm9I19PtPPp2dec4fZz/+8Cf5GJIktQYDyr3ATTpNrboanwrk+JyRIi9asSKb008/PbV5uOD33XDDDalCQh6UCCrX4pxzzknjMy2f6HHTy8MQD0dRKV6t2M48oPHAx7x6G5A+/vjjU5ubctaLhgdFNZcocoaH/uLLAaldfHfeA9lb6zdki//7A9kZo07LU9UuKJ+X+5RyBXPVdDU+xVx873vfS8Nff/31lry3CQR733nnnVRsABUYUvkyL5SnTJmyw30f1xiKoCDASgA4KjukvxwwZvsxjOlvvfXWPPVTpJfnvXr16lTE1mmnndb5Ir/40p7gYYzD8JEjR3Yun2Ixumvw4MFpHWiHsWPH7rQtuHejXVxf1Vd5X1TaN6iUzjHC/qKOki9+8Yt5avuoVyC5kt8+5ODskYV/lR0yZHA2+YJLDSpLklpLnlO55XXcKLXUJ1214Pc2yi7ms0o+14zPLaNhv4Ty+tJd3F98QkrxIHxKGeOWx6n26V6kF5cXx0Q5vRblZcRno8V147dGcSYsf3eL9WoH7Jviby33h/I26Xio7kwrH0OtJrZJd499ta7Hl63o1me96r5GL/Ki0cX5WaoHj6fW051zYqWiLarp7bWRIi8oAoPG4i8kSa3CSvlaWKNWNkLu3c997nPZEUccsUNFPeQURnyaST+5nyLXaFF8knfsscd21ngOipl49913d5ou0kmL8SMNxfRaVFs35rl06dLsyCOPTLWl/+IXv0g5Xbtbc3pfaKXKZ3aFbU6u8ziWyv2hfMwhxq20f1tJVFzT8dDVEhXxqHc++eUv0ye5FHNhzuS+M+Ir4xq6Ur5G107Xsd2Ba1+tX+c0wn1Nb3k8tZ5azonkSL7rnr9KFe6N+sqp2UUX/vEucyNz7ibncm9yLXudlSS1Gou8UL/js04+rSw/iBDUKwb26K4W0GMeNOUgMPOsNF2kF8ePtHJ6LaqtG/Pkc0+G0818o1v9h33Ddg/l/kBaOT3GrbR/pVb1w+f/JrW/MnJ7efCS2g9lLFPmcS1NvJCXmkVfFm1RC8pW/uPzvp7d////b3mKJEnNzYCy1IEcz+Rc31UTOaMlqZXcdc9/TQ+6Vr4nta8JEyak8pVracihLDWD3R1ILhr3f4zO/v6tt7M1r67LUyRJal4GlKUOL730UrZ48eJdNownSa2GB9wRJ/1e3iepHcVXVbU0fnmlRtdIgeTw2c/+Wipm442/+/s8RZKk5mVAWeowderUijmSyw3jSVIriVrn9/3851NbkqRmtmbt3zZUILnomKOOyF5Z+1reJ0lS8zKgLElSG/v5z3+e2uScUt+qZ4V8kqTKfueQwXUNJHPurldA+nP77JN9mL/IlSSpmRlQliSpja1/+39lv33IzpVWSpLUjHhB2ig5ksuOOfqI7IW/eTnvkySpeRlQliSpjW3Z8nE25ODBeZ8kSZIkSV0zoCxJkiRJkiRJqokBZUmSJEmSJElSTQwoS5IkSZIkSZJqYkBZkiRJkiRJklQTA8qSJEmSJEmSpJoYUJYkSZIkSZIk1cSAsiRJkiRJkiSpJgaUJUmSJEmSJEk1MaAsSZIkSZIkSaqJAWVJkiSpD6xatSo799xzU7uRNOp6qbo77rgj7bP+8sknn2TTp09PTU8xD5pdqTYev7c3y5ckSX3HgLIkSZLUBzZs2JAtWLAgtXen999/P/v444/zvsZZL9XumWeeSfusv9x1113Z7bffnn31q1/NU7Z75ZVXskGDBmUDBgzI3n777Tx1R7yoGDZsWLbnnnumhu5KLy92Nd748ePTOjzwwAN5iiRJahQGlCVJkqQWNmrUqGzRokV53/acn9u2bevXHK9qHgSKL7vssmzixInZ2LFjUxo5iG+44YZs6NCh2aZNm1JaJQSETz755GzNmjVpehq6SSMYHWoZj+OTY3fSpEnppYgkSWocBpQlSZKkfkaAjsBdLUUCoJjDuIxh1eZFGoG6WsV61aI747YLtket26RakLSrfR0YZ1fjsR61BmKL402ZMiUbOHBgdvfdd+cpWbZw4cLsuuuuy+bMmZOCv9VccskladolS5aknMU0dOOb3/xmaqPW8SJ3si8/JElqLAaUJUmSpH5C4I6cngcddFA2ZMiQ1Ka/HPgjWEsQjaIFaPbee+/s0UcfzYduR05OiglgGPOi2IDRo0d3zotgHGkgl2cUU0A63RGsA+nF9aJYA8rtLQYtYzrGZdnHHXdcGpd1KK9bK+B38XsrBWWj2IcI4rPt6Gd7xPYjrSj2Z2zHAw44IB+yY1ES7M/ifixieewXxqGhjOHyeKTFurCMSuvC/BmHedGOsopZj+XLl2cXX3xxttdee6U0DB48OFu/fn02derUPGVnrAcvL0aOHNmZsxl0E4RmvhxPtY6H/fffP5s2bVpKqzVQL0mS+p4BZUktgYcTHtR4MOovPJyxzMglxINOpabaA2EMj4fRwEMd8y2nS5KaG9cKAnzk9CSYRlCNwB39pMd5n/EI1lJmLsG0yLk5bty4zsAg455xxhlpHitXrkzBvpkzZ6bA24033pjGmTBhQue0DGOcAw88MPUXsTyCj7FezI82xR4QtCxjvuedd172ne98J5s/f362efPmtG6t5uabb07tBx98MLUDQVeKfWCb7rHHHqn4BrYdwVC2Mdvv6KOPTmmMW3bFFVekccntC4LxFCUB9hfFPLAfSeM+oYiA/wcffJD2O8cGZQwX1495kVZclzjmivMiUIso2oL9iUceeSS1zzzzzNQOI0aMyA4++OC8r7IoCmP48OGpXQn3RLWOF84555zUXrx4cWpLkqTdz4CypJbAwzAP3lRa0x94YOPhjIchcvBQNmXkSio35RrKCQaQYyyG013MOXThhRem38IDpySpddx6662pTSCRXKrHHHNMNmPGjBSUxWuvvZbaTz31VAoYkj579uyUc5PAIEUEvP7662mcH//4x9k111yTxolgH/MiCElAkesi16cjjzwyjX/ooYemcQiAlsV6MS/Wi/nRjoBnOaiJ1atXp/F4ARoBv0rB02Z26qmnpnax/GlUCroS3KWICLYx2yWKi7jnnntSu4iXCGzfyO171VVXpfY777yT9vVjjz2WgtUEgt977700LNx7771pP3PscGygWDQFyuty//33p/R58+aldhHLYV0ip3AcX8y/u2L/77fffqldRAV7odbxwoknnpja/XWPJ0mSds2AsiR1E7nCLrjggvTQftFFF+Wp25GziBxBxSYe+MBDG4Fo8KAeQQTSInc1D3GR66jSQ7wkqTlFsK4cNIucmgSS8cILL6R2MQcngcGNGzem6wjIYUpAkoAu1wqaYkC30tcx1cR6lXOMRkC1nDP0rLPOyru2i4BfqwWUCciXi2DgHoBrNvcAEXRl38S1PvbFunXrUn+l/TB58uS8a/v8eHnAciLYT5ugcQTti0444YS8aztyMzN9IDBcXpc4rmI/FxHcLuKFdqOJ7dKdY1qSJPUtA8pqONz4Fm8YyQla7QGFm3DG5+GKzw3jZj/EcNLpZhzGJS2QzjKKaWWsD9OV569PH1YqYbsxjG0c6Gdbss0rbU+GM13sO/ZZEWnRFOcb4hNOhrGcag8fLJvjinEqHV8Mj2Uwj+LxNWvWrPS5JjmWyjm9yAlGjqBiE+uEW265JbUJNEcggE+FeTC96aab0jCQW4ycaHxWLElqDWvXrk3tcrET0R85MB9++OHUrlQ8ReD6VCwrl4ZrSTG4WKsVK1akNtesokMOOSS1yzlDye3cLi699NLUjqDsc889l9pUXBe4XyiWZU3TVREgxe387rvvpnbxXqEr5fHK/dzTUGZycV0o1qKaSsvlOOqJfffdN+/aWWw31DpeGYF9SZLUGAwoq+Fw48sDUtycc0POjS03x8XgIN1RbAAVzZx88snp5rlYhi436QwnOEeZc4zDuKRFEJkyClkGaVRQUkQQkTQ+OWQ65h85gbQdn0+y7cpBWR502W4nnXRSCrrSzz6M/cU2Z3uWtznD2f9R0c/cuXNTOtOz7UmLZsyYMTsFjMklRZCY/c1yWAemK2Lfs2yOK8ahzQN58TdEERZ33XVXmgfHDstiPciZRI6g4gNhPAB19UDI9JELqTgt0xx11FEpSB3HFtuMXEOMXyngLUlqPqeddlpqU1xFUbm/2nhFXJ/4kgW8mNy2bVtquD51F+Ulo/yit3yNbUeR+/q2225L7YULF6b2+eefn9rgXofrNds+9gMvjmsR9w312taUq839BPcasS7dfcnA8dQTUbxKpaBw8ffVOp4kSWpcBpTVkPjcjpyZVPayZcuWVDQAN8fFSkeiXFpukuPGncAguTAI+hURAKR8P+ZFGYQgoFlcRnzSGAE95kEQ8dVXX+18UGNZ5C4i0Fgpd207ivIDozzBEA8JlO8IHnzZh+xLtmWlbR7Y/wRxo+xIEDwmnbL+mDYqrGG84v4mQMyy2VfsN5bBdPGAwrgUV0HuX+bDusQx8c1vfjO1izieWGfGIadY/K5yzuGYP23KQ+b4LOeQ7uqYqVQxTbVtK0lqTl/96ldT+4033kjtUO6PMonL6bwQ5drCtSzK9aWopQhKkt6TXJxRIdtbb72V2iGKbejqZWmr4wUv9x5sV67pBPG5B6E4DJDG/Q33FZR9HGot75f5cP8aucQD9wzs6/KXWl3hfop1YX7F8pIjd3UtmJZ59EQcJ3HcBI5Lfh/bqPjl1q7GK+OeTpIkNQYDympYVCBCuXHcaEcukGKlKBQ7QJAvyq/jxvPKK69M3UuXLk3tIgKTzIt5Ru4dgsmxjHiYigeACBwyr7jxZVlR43e5gpZ2xTbhxv/OO+/MU7aLHDxf//rXO9s89EaZw2zzqISmUiUx119/fcpZzLbnYY0HOcoVpkxBpuWhLcog/sUvfpFPtR050pmOJvbrsmXLUhvPPvts2q/MB3FMsIxy0JcHK4qmYBweKjds2JDSK1UaA1428AKDB87IIU0AoKjStFExTbHynTi2K5V5KElqPlEmMde4eJnKNS6+xoniFY499tjULo/Hy3DKM+Z6FLk8yTlLII7rV7EyV4pkID2Uy0EuinJ5ebEa10GWG7lyI8DdruIFb3zxxH4J/+pf/avUJggb944EgaOIK15q7yoozL5i+nhZgKuvvjrdR3RH3K/yUr24LlGkVi3rwhdT6OoleDXcV3Gvxv0UX6BxzNLw1Rm/L8prrnW80JN1kSRJfcuAshrWEUcckXdtv/EEN56BAPIXv/jFdPNNQ1EXcfP+4YcfpnYo52iIG+54YEM8mIUnnngitckdGsugiYpy4kZd23Mh8wAQRTNw4x85eGJb0+aBlUBzbMvIEVwpYEoAN0QOrfjsFDxMRxnEcXyAfc2wUN6vDCOn8T/90z91rgc5ismJDh5oioplJOKDDz7Iu3ZEDmOWTYCb3PKR85lgOwGA4kN9d5XXSZLUnLheRW5XXkBGsVrxBU5c+xiPl6Zcm4rjgRfquPDCC1ObeRGIoygnrrG8vI10+rlfiq91uGZWCihyjY71iuKoWC79xfVqV/HynO2B4v1IBEfBl20U10abigvZdpHe1bWcjBPsIwLIFNlFEWHcR/FSuzvbnnWJe97iuhCgrXVd4qX3yy+/nNqBY4fiwWg4lsAxEmnx4uPaa6/t3FasP8ctAW7uCQmSh1rHQ+SwjkwCkiRp9zOgrIZVDApWwo0tN7LkxiHXTVefFkZQs6wYiCyLICe5TbnBj4Z+GOT7VORCjqIZ4sb/8ssvT20QuOVhgW3I/uoqp1RZ5AruqhKXWhHs5sGbBypeQLAeXeUAjpzDodpxRnCb38hxGZ9p8hAYuWyKLyAq/fY333wztXlJUhYPsJKk5jJ48OAU4KMd+NJm69at6QUk9ycEgOknvYjryjvvvLPDeBTVFNcYgpwE4AgUkquU8biWjB07No1LfxSnxFda9BMs5DpTbb2Yf1frVWk6VEtvJffee2/6jWyf8j0qX0bxEpnhBJLpZrtxj8r4NORkjpfPZdyPcg/BC2lyg9MwjxdffDEf49MX12XldL76Yt/1dF14mYDINR9i/GpN3FNz7HAcshzK5mYY3XxZVtxutY6HyCkfOfwlSVID2NYmOm5QtvFzO25W8pTWx+9txl1cbb2L6R033J39HQ9TKQ0dD1Upjf2NGK+83+mPeYUYN6adM2dO6ie9FfBbyr+5noYOHbpt4MCBqXvUqFFpWR0Poqmfdiw/ti86HnhSWnH/xHhF7OPytGXV9nW1/cq6djw4pzSw/qTH/mb8Ssvs7nER43c80G3bvHlz6q50HopjknGKSGPd6i2W19U2VXt4fNmKbTP+7Ja8T82k3f7H/FYaqR48nqqbNm1a2jbFe+zdhfsn1oX7qV1phnPijzZu2jZ85Ni8T5Kk5mUOZTWVjhvF1I5couTKiXJm8fDDD6d2tWIJuiNyQZRzpJIzOYp20KcoW5piLygvmBy1fP4ZOUzefffd1OaTRnLwhscffzy1d5XbOz41LebspQgJctEwv/jMshaxPx966KHO3DQsn1xe+Oijj1K7mnKOZZDrmfXg09Lyutx9992pzeex5MZhG/CpaPE3000lNAxjnLIoz1CSJKmvkeOa+64zzjijV0V29RbLPvvss9O6RB0ckiSpMRhQVlOKz/EofoKyAGmKgcrLLrtsl5WO7EoEqvlEkM8QCRpSTjPFNhD4M6i8owjAX3DBBakdZTuCMot5GCBoS3nFBF2nT5/eWXEfAWjSu8Lnn1H+I9t+zJgxabq1a9d2fv5biyh/jwcU1oN9S3l97FPw8NRVgDs+5y2+aCAwzWfE/D6KYeE4YR1ZV9KKwfWoOJLjiGXT0E0wPoaFOMYOP/zw1JYkSepr3LNQeTH3JnfddVee2v+4B2cdWJdyMRiSJGn3MqCspkQuzmIFKDTk8CTAGLmYSeut9XlZdpT7SyU1BKpBeXTFnNH6tCIYbvwJHhe3Dw8B5HYBLwEIulLZzLPPPpsqHYr0rlAJEeNGTl72Ne37778/H6M2BL6ZjvVkPdi3BHQpp5D1Jn3ZsmX52DuLinjuu+++1A4Ej+PY4zhhGVHJUlSgBMaLinGiXG6QVnwpgiiLOmqXlyRJ6g/cx1EWc6Uvs/oL91ysg/fckiQ1ngGUe5F3tzRyARK4IeBDdzugxmU02y6OIgPKuU5JJ2hZLBKAXMOLFi1KOZYjnbTIYUrOWIpbKE/HcMYrLoPP6hiX8aIohMC4BPeOPPLIbuWGbST9cTzEti9v7xDbkRrM4+EgtjvYttX2f2B8cqqccMIJOywj5lNedrX9Su5fKjsiwBzpcVzE9PSXpwOBX4LFmzdv3mFZgd9A0RlHHHFE1Rw1LCdqUD/22GN3WgbrzXYC61nvnDnxG+bPn79TIFvtZenyJ7NVP/hhNvPab+Upahbt9j9u1vsaNSaPp9bTDOfEjZv+ITv73G9kq76/JE+RJKk5mUNZDYdAYqVgImnl4B1BOG4Yi+mkxTwIwlWajv7yMmLccmAPpFFrenka7Si2faUgK2I7lnMvM01s22J3JYzPPMrLqLavq+1X1oH5FNPjuCAtfkt5OlAuMrmZqz2sMB3zZ9nVMN8RI0akptIy+MTUzzwlSZIkSVKjMaAsSd1EAPjee+9NxW70xRcP5HCm2AyKdfEzT0mSJEmS1EgMKEtSD5C7mcr8KEqH4ivqacKECSkHdLHsZUmSJEmSpEZgQFmSeojK+yh7sVKRFb2xevXqbOPGjXWfryRJkiRJUm8ZUJYkSZIkSZIk1cSAsiRJkiRJkiSpJgaUJUmSJEmSJEk1MaAsSZIkSZIkSaqJAWVJkiRJkiRJUk0MKEuSJEmSJEmSamJAWZIkSZIkSZJUEwPKkiRJkiRJkqSaGFCWJEmSJEmSJNXEgLIkSZIkNZlzzz03GzBgQN7X995///20vNGjR+cp23388cfZo48+mj3wwAPZ22+/nafu6JNPPknDGKfSeMxz0KBBaV6SJKnxGVCWJEmSGtQdd9yRrVq1Ku/rnt5MK5URwAYBYRAkJhC89957Z+PGjcsmTZqUDRkyJBs2bFgaHhhvzJgxaRjjxHhMyzDcfffd2aZNm7IpU6akfkmS1NgMKEuSJEkN6rLLLss2bNiQ93VPb6aViggiL1++PJs/f362//77p7S77rorpc2ZMyfbvHlzaqZNm5atWbOmM+iMK664Io03cODANIyGbtJmzZqVxjn44IPTfBYsWJByO0uSpMZmQFmSJEnaDcidGUUFvPLKK6kYgPjkn25yGGPx4sVpnBjGdIxPGrlGmQfFEYRq00aRA+ViBSKdduhq3doZ24OmkthekeuW7UUO8RtuuCE1dMewQBrTMG5MXxRpNMX9U8Z82ecxrzKOj+K6sE/L6xLLinWJ3O30k6t46NChnbmUSeOFBWlTp05NQWaaCBBz3IFl3H777Wm8d955JzvmmGNS8+abb6a0O++8M42Hiy66KKVdcMEFO62bJElqMNvaxPz587fxcydOnJintD5+bxvtYu2Cx4OKOBdyPHBuVHt7fNmKbTP+7Ja8T82k3f7HrXYd27x587aBAwem3zR06NDU0E3ali1bOu9di8369evTtDNnzuxMGzVqVGf3kiVL0vBq00Z6zCdEehxLu1q3VsDvoemuadOmpenWrFmTp2zHdontha1bt+6wDaObhmEh/sfRpgHjxLKKTewjxDQrV65M8y8uo7h+rFuldaHd1brQBscV/XF8dSW2Q6wnx1pxXkWxnOLxOGfOnJTGb+qumF9xGzWaH23ctG34yLF5nyRJzcscypIkSVI/e/DBB1OZsUuWLMlWr16dGooCIO3qq69OOUHXr1+fxp0/fz5RxlQsALlUr7vuupSTk7Rly5alogZw1VVXpXa1aWu1q3VrZ+ecc05qP/LII6kdnnrqqdS+8sorU5ucumwvtj/bb+PGjakbS5cuTe2itWvXZitXruzclxQTQc7emTNnZlu3bk3DQE5hcg8XzZ07N3v22WfTMthPuOeee1Ib7DPWhXmwLuQUpngJ0p577rl8rE/FusyePTv1P/7446l9wgknpHZXFi1alNqDBw9O7ffeey+1x48fn9pFUXRGUYy3cOHC1JYkSY3JgLIkSZLUzz744IPUfuGFF1IbFAVA8DcCeZUQhCNY/Mwzz+Qp29MmTpyYgonFoi96qqfr1g5GjBiRyv8tFtWA2267LbUnTJiQ2hdffHHaTxGAxvDhw1P7/vvvT+0iAtHMO4KsBJNZzowZM7I99tgjDWP/EpQ+8sgj0zjh0ksv7XxhwH4C04fLL788rQvzAPOLwC3B6LKbb755h3VZt25dalcKABdRDMYtt9ySjsVYVldleJ944ol516fid9TjOJYkSX3HgLIkSZLUz8iBCnIbjx49OpV/S7m2u7LXXnulwB45QSnvltzINCtWrEjDK5Wf2109Xbd2QbCY3L2xTdjmVDBHIJX9A/bRRx99lHLasv3YR13l7o5ANCKYOnLkyNQOBIuZTzm3eTkwy3oUMT45hTleYl2mTJmSD93ZGWeckXdtx2/bFdb50EMPTd133313avdGHM+SJKkxGVBWS4mbZHM1tB/2OfueY6C/UKkNy+RBkobPkCs1lY5HKpuJ4eWKZ6ZPn57ma4U0ktS6CDxSvAFFGrz66qudFZwNGzasy6AwQUwCdxR9QG5QkNv0gAMOSN310NN1axeTJ09O7Sj2Ioq7IKdw4H6EbcZ+Ijc5AebIoVxJBKIR23hXOYIDOY67wn3FySef3Lkuhx9+eHbKKafkQ3dWaX7lIHURlfdx/B199NHZiy++uMNviRzTkeu9KCruq4SAvSRJalwGlNWQuDEl0NZd3CQvWLDAh502xD5n3xc/Ae5LlF9Izi0eDnlwIqfYkCFDKjY8yBURiN5zzz07h9NNWrjwwgvTb4kcYpKk1kTAkCINKPuWAO6oUaNSsQa33nprPsbOCGISbGNcgneRSznK3q1FlGsb3nzzzbzrUz1Zt3ZBjl+CxVHsRRR3ETmFeSFMEB4UUcE+oqiQU089NaXtyoEHHpjaUdREb3B/FMVfUCY268J+Pf3001NarbgvqYTAOcFqAs6PPfbYTsHoffbZJ7Ur3Z/FC/diADpQ3IckSWpcBpTVkLgx7a/AoNRdPChecMEF6WHyoosuylO342GNcgqLTbG8SR7kCESDCnGigh7SInc1uXmmTZuWHgB78mJFktTYuI7w8pwmEMAlIIdy+bzF3J1PP/10al9//fWdwTsCc5Gjk2IWiorTRkVpL730UmqHhx9+OO/q/rq1K4qMYJvzgpkiIcjNHfvj3XffTW2CosUylCNHM5XedfUVEvPhPoD5FsdjnwwYMGCHl9C7EkFb7lnGjh2buvHEE0+kdqWvqMp4mVAJ60PgnOHc31TK2Uzwne1AERbFZZHTnt/HelXKiV0u7kOSJDUWA8pqKOSiiAcYcstUKg6AG1BuWmvNhcz0UbRAGcviQaDSTT3jF298GTfWTZ+qtm3B9mNYcfvSz/5ju1fah7HdY7+Vtzlp0VTab/FQwjCWU+1BiWXHsRRlIBYxPJbBPFiPWN+ouZ1cyeWHJyrK4eGp2BQflOLzZALNU6dO7cxVxgPVTTfdlIaBHGA8gBXLVJQktQauHVSGxgv0uKehueuuu9LwyAUc1w+uD1yTGCeuC2effXbndYxrCA0o/5brVqVpIwctaVzXmL6cu7nWdWt3559/fmrzghlnnnlmaiOCqNwrjBkzpnM7E4xnP5HTm/RK9zHhq1/9amofd9xxnfegl1xySUrrzhdMsS4sk0A0x0KsC+kEdXcVoI5KAMv3VFGh31/+5V+m+Zab+H3XXHNN2hYUi8ExFcWBgAoAi+KejGI5JElSA9vWJubPn7+Nnztx4sQ8pfXxe5ttF8d+Kjbr16/vHNZx87nDMPZnxw1yGg76i9Mg0mbOnJn6t27dum3OnDnbOm6iO+dDN2lbtmxJ4yDSmdeoUaN2GLc4/2YR619vbFfmW9wPYDvH9or+4jaPhm1bRBr7LPZ1/GeZPvZlcdqOh+A0nH1CGscJTXFZMY+wZMmSzmHFpvgb4ljkuIjhLCN+V3m9p02bltKLx1AZ68o45fVB/LbisVVt29ZDLI/fqfb2+LIV22b82S15n5pJu/2P+a00raLadZHrH8NCXI9o6OY6U74f4npRnF8cE+VpIy3Go71y5crUFMepdd2aWfym3oj7Q7ZLWfleo7ytabjmx/+4EsYt7mvmEfsI1aYtpxePg5gPyy6md7Uu5eMDHIcxbbWm0j1NsYl786K472KZ3dUM58Qfbdy0bfjIsXmfJEnNq3d3UU0kbpi40WgXcbPWbLj5LN8Mxo0sN9V08zDDcG6IaULcSMYNbNy8Fm9YY148BMRDUaXjg36a4jLjJpd2s4nfU28EO5lv+aEgtnNsq/K240GkvL9APw37h/0SAeN4aGM5TBv9NOybOG5oCO4yHU0sI+bDuHHcRPC3eEyEOCZoWOc4Bsq/KxR/C+vIOhTXH7GOxeMsxPYpbotq27YeYn1ZR7U3A8rNq93+x/xWmlbDtYhrC01cl4riGkdTHM71Ja5NRaTHeNWmjetZTBvjlZdPf1fr1szqcTyxTdhuxWt9UWxnximK7U2bacvDy7gfqPRyudq0ldJ7sy4M476p+EIhpuuqiXFDHE/8lvIwxHJoKg3flWY4JxpQliS1CgPKLaweN8q7Azeg5ZvBuEEs30xHEC5u5GM85kEQju5yMC5ykpZvVGPamBfdNNz4BqYhrVJOlEYXv6cvxM1/UWzn2J60ya1T3O6VAqaxnsXtzrSkMc/AfNj/HCfxQBfTFpcROYTieGIY45aPpQhQxwNznDPK+zrSmUdRHD+VGtYBlY7tEPMt/m6Q1hfnrVjfSuui9mJAuXm12/+Y30oj1YPHU/fE/VT5hXo9xb1jpeB5LZrhnGhAWZLUKixDWU2ByktwyCGHpHaI/ueffz61w7x581IlZx03pqkm6yIqOhs6dGi2cOHCVI5bNIFyAtFxU5raUd4gorzcjhvd1NZ2UTZelHvHNmQ7jxo1qrMMR9onnHDCDtv9m9/8Zhr2+uuvp3bRiBEj8q4se+ONN1K7vC+iDOJi7eDst2K5xlHuX2AYtaf/0z/9U+d6UHbgq6++moaXywek0p2iYuVGRcOHD0/L7niISeUjd5xfs5UrV6byCceNG9dlOYm7Uq0caEmSpP5AhX7c51AJH+Uj1xvz5N6Re3cqJ5YkSY3NgLKaQgRwi4FDRLDwhRdeSO1AMBlPPvnkDoG8CMwxv0mTJu3QLFiwIA177733UjsUg5Oq7Otf/3pqR+3lTz31VGpffvnlqQ0Ct1TGwrZevHhxamq1YcOG1N53331TuzcIdlPBDZUNUUEe61EpoB3222+/vGu7Z555Ju/aEcFtfiMBbirAAUHxiy++OHU/99xzqY1Kv51KKPHFL34xtYuoMEeSJGl3uvvuu/uswmDmybyt9FGSpOZgQFlNgdwKiNzDYd26dal9/PHHp3aYOXNmaggcF2vCJpcsN6s05CCt1BRzxqo2bFdyfVNjOG677bbUpqZ5ENQnkAxy8EbO4GLAuSuRU+XDDz9M7d6477770nHBMUBwONaFYHctyIncHcWAdPmFSFEEtSuNw7aVpGqqfTkhSfXEPcrGjRuz1atX5yn1wzyZtxk5JElqDgaU1RS++tWvpvZbb72V2iFyJp966qmpHSZPnpyKuqDIBT6fe/TRR/MhWcoxSvEM5WIEKK7BogV67uabb07blW1NjlpeAsRDwbvvvpvaBEbJwRsef/zx1N7VdiegTAC4mLOXIPXo0aPT/Lrz6WXkMH7ooYc6g7csP3LBf/TRR6ldTTnHMnjRwXoMGzZsp3UhNw8oriMC7+SGL/5mulesWJGGRREhRUcddVTeJUmfGj9+fGpX+3JCktpJfG04ePDg1JYkSX3HgLIaTgT5KI6A4BzBuggYk+OV3KSkUe4tRVsQhKuW8/N73/teCkRShm0E8E4//fTUJti8atWqtAyCgRHs7E1Zt+0s9tEFF1yQ2hdeeGFqgzKL2Q8EbdlvbPPp06en8pRBAJr0rpxzzjnpQYF9RPB/zJgxaTrK144iJmpx3nnnpfbZZ5+d1oPjiWOB/Q+Osa4C3PGQUgzgcPwR2OH3DRkyJLvjjjvSOrKupBWD61deeWVqkyO6mDuaYHwMC1Em9eGHH57aklQUxQDxQkqStF2l4sMkSVJ9GVBWwyGHZhRXQXBu0aJFKWBHBWcjR45MRSfsvffeKZjMeAyvhunIiQqChgSLySm6ZMmSlEY5uiyDQCUBT4J7fmrXM2xrKmshMMq2LFaowjaNMvHYb2xzco4/++yz2Zw5czrTuzJr1qw0buTkJZhM+/7778/HqA2Bb6ZjPVkPjicCui+++GJab9KXLVuWj72zqBiQojOKCB5HRY5UWMMyOK44Rln3wHikgWVHUSCkMawoyqI+88wzU1uSiuJFHueteAElSe2oeA6s9LWXJEmqrwHbKDS2DRAoJHBDwIfudjBgwIDUbsZdTOA3ikngprCYA5nco88//3zKSVoO/jKM3MvkiC0Oi2IIKqVTDvMJJ5yw081nzKuc+zXm1Z1csY2gP44Hthfbjf1V6Wae4QRJDzrooM6Ac3Ffs013tX0Zf+nSpTvts5hPedmRXj6OePB45513UkAm0mOfx/T0l6cDgV+CxZs3b95hWYHfQNEZRxxxRNUXFCzn5ZdfTt3HHnvsTstgvdlOYD2rzaen4jdQpnU5kK32snT5k9mqH/wwm3ntt/IUNROK2okvIWbPnp2ntqZmvq9R4/F4ai1xX0MGkq4yBuxuGzf9Q3b2ud/IVn1/e+YWSZKalQHlFuaNsoo8HuqHYPChhx6aHX300X320EKxGeR0JlBUzO1dLwaUFQwoN7e4vwFfOlB/QKvyOqZ68nhqDbyA50uw+NKNLxobuYJtA8qSpFZhkReS1E3kJr733ntTsRt98YKKHM4Ek8lx2BfBZEmtgxdCUYwOAZViJbSS1MoIJlOnRgSTORc2cjBZkqRWYg7lFmbOCxV5PNTf6NGjU1B5y5YtOxVZ0Rt8wk5xGm+++WZd51tkDmUFcyg3vwiqcD4CZbhTySeViLZS5VSUe4/169enttQbHk/Ni+LqHn/88VQfR2iWLzTMoSxJahVtF1Bu9HK16skAooo8HlRkQFnBgHJrIKg8efLk9L+WpHbS6MVcFBlQliS1irYp8iI+G4/cO5IkSa2Cijt5eU5uS3Lq8UXWwIED86GS1FooFoxA8tatWy3mQpKk3aBtcihTidbee++duvuqkqtGY45UFXk8qGjQoEHZpk2bmipXj/qGOZQlSeof5lCWJLWKtsmhTDmkFHeBRx55JLUlqR1R6R/BZBx22GGpLUmSJEmSVIu2CShjwoQJqU1NwARUJKndUM7qlClTUjcv2fbff//ULUmSJEmSVIu2CihfdNFFneUJnnTSSdn777+fuiWpHXDOGzNmTGdZ8tdff31qS5IkSZIk1aqtAspUWEP5yQSV+dx76NCh2apVq/KhktSayJXMuY5zXgSTlyxZYtnJkiRJkiSp29qmUr4iirsYMmRI3rcdtaFj/Pjxqd0KJk2alNrz589PbbU3j4f289xzz2Xr1q3rDCKDF2oPPfSQwWR1slI+SZL6h5XySZJaRVsGlEFQ+eqrr84WLFiQp0hSa5s2bVp27bXXWm6ydmBAWZKk/mFAWZLUKto2oBwoU/SNN97INmzYkL355pvZ66+/ng+R+sbHP/vn7B9/8rNs8MDP5ylS3yBwfOKJJ2aDBw9ObYr9kcoMKEuS1D8MKEuSWkXbB5Sl/kbwZuasb3sjKakhGFCWJKl/GFCWJLWKtqqUT5IkSZIkSZLUcwaUJUmSJEmSJEk1MaAsSZIkSZIkSaqJAWVJkiRJkiRJUk0MKEuSJEmSJEmSamJAWZIkSZIkSZJUEwPKkiRJkiRJkqSaGFCWJEmSJEmSJNVkwLYOebekXti46R+ys8/9Rt5XP6u+vyTvkqT6W7r8yWzVD36Yzbz2W3mKJEnqC/G84P29JKnZmUNZqpP99//1vEuSJEmSJElqTeZQlvoZuQFnzvq2ORMkNQRzKEuS1D/MoSxJahXmUJYkSZIkSZIk1cSAsiRJkiRJkiSpJgaUJUmSJEmSJEk1MaAsSZIkSZIkSaqJAWVJkiRJkiRJUk0MKEuSJEmSJEmSamJAWZIkSZIkSZJUkwHbOuTdknph46Z/yM4+9xt5X/2s+v6SvEuS6m/p8iezVT/4YTbz2m/lKZIkqS/E84L395KkZmcOZalO9t//1/MuSZIkSZIkqTWZQ1nqZ+QGnDnr2+ZMkNQQzKEsSVL/MIeyJKlVmENZkiRJkiRJklQTA8qSJEmSJEmSpJoYUJYkSZIkSZIk1cSAsiRJkiRJkiSpJgaUJUmSJEmSJEk1MaAsSZIkSZIkSaqJAWVJkiRJkiRJUk0MKEuSJEmSJEmSamJAWZIkSZIkSZJUEwPKkiRJkiRJkqSaGFCWJEmSJEmSJNXEgLIkSZIkSZIkqSYGlCVJkiRJkiRJNTGgLEmSJEmSJEmqiQFlSZIkSZIkSVJNDChLkiRJkiRJkmpiQFmSJEmSJEmSVBMDypIkSZIkSZKkmhhQliRJkiRJkiTVxICyJEmSJEmSJKkmBpQlSZIkSZIkSTUxoCxJkiRJkiRJqokBZUmSJEmSJElSTQwoS5IkSZLUx9a//b+y/b7whbxPkqTmZUBZkiRJkqQ+tmXLx9nvfmlo3idJUvMyoCxJkiRJUh9b+9rfZoN/68C8T5Kk5mVAWZIkSZKkPvb9J5/ODj/sd/I+SZKalwFlSZIkSZL60N+/9Xb2wY9/nH1p2DF5iiRJzcuAsiRJkiRJfWjeAwuzs8/8g+yzn/21PEWSpOZlQFmSJEmSpD5C7uTl338q+7d/9LU8RZKk5mZAWepnp4z4ct4lSZIkqZV98stfZjNnfTvlTh408DfyVEmSmpsBZamf8Znbqu8vyfskSZIktSKCyVdcOSP78Y9/kl12yYV5qiRJzc+AsiRJkiRJdbRx0z9kZ57zx6l74f33ZHt85jOpW5KkVmBAWZIkSZKkOljz6rrsuhv/PDv73G9kv/ulodmtt9xgRXySpJYzYFuHvFtSPyC3wiuvvpYdc/QRlqMmabdbuvzJbNUPfpjNvPZbeUpr4xy8/u3/lW3Z8nGeIklSz6197W+zD3/yk+xvXlqTffDjH6e0C/5kUjbmjNO915cktSwDympL5BqgpmXKMiaYQkUZDz3w3X656YvlXXf1n2ZnjDotT+0bBE7IHTHqK6emYNGIr4zr7JYktENA+ccf/iR75K+XZI8sejQ97P/2IQdnQw4enA+VJKnnBv/WgdmBv/mb2cCBB2T7//q/zvbf/9ct3kKS1PIMKKsttUtAmSDK+D88N+WS+Mbkcw0oS9pJKweUqQxpznfuyR565K+z43/32OzrZ38t+9KwY/z0WJIkSZJ6wTKUpS4QjCCXb9nPfvbzNKyamK6rcWrFPAgM98QX9v18apNrAuTKk6R2wHmTypC+/+TT2bx75maz/+KmbPiXTzCYLEmSJEm9ZEBZbWnEl38v78qyvffeK+/ajly85GB+6JH/Ozt19B+kIiNIo4INgrukjxp3VgpUfHfeAzsEjQkiT/+P13ROR5t5VQpKFzGcZfz+WeelYDVoM3+WQy7jyRde2rkOgYAJ82daGsah/5kfPJ+PsSM/8ZbUDjg3Tr7g0uwrp52SPbLwr3yZJkmSJEl1ZJEXaksEa6k8gyIuCNC+//4/dpZ3RmAW+33hC9llF1+Y/dNHH2V/df+DKe0LX/h89qVhQ7PTR56S/cV/mpv9/Vtvp5xvEawgmPzC37ycirOg0r3Hlj6R3ftf5+9QzES5yIsIfGDevXNTrmLWiWA0vj3r+mzIwb/VOS+WxTJBwJm0yy+7KBtx0u9l7//j/5P6WYfF//2BNC+C1ft+/vMpV17kdI6cy5LUakVecP7kRdwhQwanmvUtx1KSJEmS6sscympLBFejvGSCDXSXgw4Edwn4nn3m72e/+6WhqSKn0/7NiOzyy/59NvToI1NAGC+tfiW1CVKfMuLLqbxipmOelFtMMJnymiPncVGlYDLWvfa3qU0wmU+0Y14Ejglik1MZT/7PVal9+sh/k8Zhva6/9ltp3X7tV381DSM9PvFm/gaTJbWy7694OrUNJkuSJElS3zCgLFVA7uRi4PWYo45IbSp1Cv/qX302tV9Z+1pqE7Ql+Ezgl1zBNAR/17+9IQ0nR3QROZ+vv/HPU3cxmAxyGOM3Dti/c140n9tnn5S+adPm1D7v3/5RahOUJshM0Jr5ENC2nFBJ7WjOnfekr0sMJkuSJElS3zCgLFVAjuSiCOTu/+v/OrUr4TNrylemyAzKT6ahTGOCypXcNueuFDimGI199tk7T93ukUWPpjbTx7xoKCoDBKPxlZGnZGef+Qcp9/TF0/40le1MsRvVlilJrYwXa5wPOTdKkiRJkvqGAWWpTiimgiAxKON41feXpIYiLyohFzTBYIK/c75zT566XQS077z929lDD3x3p4YiLkAOPIrgeGrZX6dxKW6DIDWB6EpFbEhSK+P8x3nV3MmSJEmS1HcMKEt18kRebiflF0clfaD85Er4JJtgMAHnhx7561QxVvjqqJF51/YykMtNFI9BrmgagieUn0xxGwSVseC//ffUlqR2seF/vZsddcT/nvdJkiRJkvqCAWWpTiKIseR/LEtBXnII3zbnP6c0/H//4vaUXvZ/XXVFyq1McRaUk4wjDj8stR/+3uLOND7l/v2zzktFalCZH/M/dfQfZFdcOSMNDwf+5m+mdrG8Z0lqB1FmvSRJkiSp7xhQlurklBFfTm0+uf7Gv5+WyjP+/pNPp+IvIr1ctAXIXfyfvn1j6v4/L70iBZ3JgUxO4795aU1nWcyUkUzZoKQznEr3vj3r+jRfgszX3fjnaTwC0+SQJseyJLUTihA65ujtlahKkiRJkvrGgG0d8m5JHSh6YuDAA3YIyJJL+JVXX0tBYwK5IIfw06t+sMO4pJFD+Z13f5SdeMLvZl8adkwan9zFmzZtTuNSsR/zIuhB8RUhximmE1ymbGZyKo/48u/tNA1i3Vb94IfZ4N86MOVM/p3fPqRzPSWpK5zzOH/MvPZbeUrz4uUa5cyXz5OSJEmSpPoxoCxJUhszoCxJkiRJ6g6LvJAkSZIkSZIk1cSAsiRJkiRJkiSpJgaUJUmSJEmSJEk1MaAsSZIkSZIkSaqJAWVJkiRJkiRJUk0MKEuSJEmSJEmSamJAWepnS5c/mY34yri8T5IkSZIkSWoeBpQlSZIkSZIkSTUxoCxJkiRJkiRJqokBZUmSJEmSJElSTQwoS5IkSZIkSZJqYkBZkiRJkiRJklQTA8qSJEmSJEmSpJoYUJYkSZIkSZIk1cSAsiRJkiRJkiSpJgaUJUmSJEmSJEk1MaAsSZIkSZIkSaqJAWVJkiRJkiRJUk0MKEuSJEmSJEmSamJAWZIkSZIkSZJUEwPKkiRJkiRJkqSaGFCWJEmSJEmSJNXEgLIkSZIkSZIkqSYGlCVJkiRJkiRJNTGgLEmSJEmSJEmqiQFlSZIkSZIkSVJNDChLkiRJkiRJkmpiQFmSJEmSJEmSVBMDypIkSZIkSZKkmhhQliRJkiRJkiTVxICyJEmSJEmSJKkmBpQlSZIkSZIkSTUxoCxJkiRJkiRJqokBZUmSJEmSJElSTQwoS5IkSZIkSZJqYkBZkiRJkiRJklQTA8qSJEmSJEmSpJoYUJbq5JNf/jLbuOkfdtl8+OFP0viVhpUb5ilJkiRJkiQ1igHbOuTdknph9Strs0umfyvvq4+HHvhuNmjgb+R9klR/S5c/ma36wQ+zmdfW9/y1O4z4yjjPm5IkSZLUxwwoS3Xy83/+5+xv//bv8r7K3lr/dvYX/+k7qfsP/2BcNur0U1N3NUcdeXi2x2c+k/dJUv0ZUJYkSZIkdYcBZakf3fzt/5Q9seLp7F86/nZH/O+/k839T7fkQyRp9zCgLEmSJEnqDstQlvrJ+rf/V7b4sWXZ6SNPyYafeHz25ltvp2IyJEmSJEmSpGZhQFnqJ/f81/9fdsao07LfHjIk+8K++2Z/dObvZ9/9qwfyoZIkSZIkSVLjM6As9YPX33gze/J/PpNddvGUPCXLzpt0Tkr/wQ9fzFMkSZIkSZKkxmZAWeoHt91+ZzZ+zOhsvy/sm6dk2a/9b/9b9gdjv5rdN89cypIkSZIkSWoOBpSlPkY5ya+uez379xf+SZ7yqcnnfT1bv+GdbMVTK/MUSZIkSZIkqXEZUJb62H+5d1522r8ZvkPu5LDP3ntlJxw3LLv9zrvzFEmSJEmSJKlxGVCW+hC5k19e82r27879ep6ysyumX5pt3vyP2SN/vSRPkSRJkiRJkhqTAWWpD333rx7Ijv/dY7PDDzs0T9kZOZcpX3neAwvzFEmSJEmSJKkxGVCW+gi5k1/4m5ezb/zxuXlKdZSvTC7lx5Y+kadIkiRJkiRJjceAstRHInfysGOOylOqi1zK3533QJ4iSZIkSZIkNR4DylIfiNzJE8/5wzxl1/7tH/1h9qMfbTKXsiRJkiRJkhqWAWWpD5A7+egjD8++/HvH5Sm7NuTg30rTmEtZktrH+++/n91xxx3ZsGHDsgEDBtjY2Nj0e8P5Z/r06dkrr7ySn5kkSZK6ZkBZqrMVT61MuZP/jzO+kqfU7pJ//w1zKUtSG/jkk0+yG264ITvggAOyyy67LFuzZk0+RJL6F+ef22+/PRs6dGgKLn/88cf5EEmSpMoGbOuQd0uqg38/9YrsHz/4IHv4gfvylB0tfGhR9s6772VX/IdL8pQdTf+P12Q/2rQp+2/335unSFLfWbr8yWzVD36Yzbz2W3lK8xrxlXHZQw98Nxs08DfylMZEMHnMmDHZ8uXLUz9BnClTpmSnnnpqts8++6Q0Seov69aty+6///5swYIFqX/UqFHZY489lu2xxx6pX5IkqcyAslRHjz3+RHbjLX+ZXfv/+WY25ozT89Qd7SqgTPnLl0z/Vnbpv/9Gdu7Xz8pTJalvGFDuX+T8Gz58eGeO5JkzZ2YzZsxI3ZK0O61atSo7+eSTU/fEiROzBx6wGDZJklSZRV5IdfRf7puX/eZvDqwaTK7FsGOOyo4denT28KLF2Se//GWeKklqBbfeemtnMHnlypUGkyU1jBEjRmTz589P3eRWNqAsSZKqMaAs1ckjf70k27z5H7NvTD43T6nsF//8z9nPfv7zvK+ys8/8/WzTps3Zwoe+l6dIkpodRV3ceeedqZugDcEbSWok5557bjZt2rTUfcstt6S22oOVxNrY2LRDExXRvv322/nZTz1lQFmqky8NG5odsP+vZ6NPPy1PqWzcmNHZBX8yKe+rbOSpJ2df+MK+2Rf23TdPkSQ1u3fffTfbtGlT6j7nnHNSW5IazbXXXpvafE1BkFGtzUpiJbWTqIh2yJAh6SUq50D1TMuVofzKK69kjzzySMoBFA9tUn/5lc/skf3LL+t0QvqVX8myf/mXvEfqP5SbOH78+GzChAnZXnvtlaeqVVmGcv/h8/FJkyalCq+WLVuWp0pS4xk0aFB6luJrCh641ZqsJFZSu3nmmWfSFzjWZ9J7LRNQ5u05D2i+UZWk+vFBsvUZUO4/fEpM7i8ru5LU6Lj2U46y9wGty0piJbUzvsy47rrrUrfnv55piYAywWTepkaOZALLl19+eXbkkUemfklSbT766KPsqaeeym666abOcyoVh1nWa+syoNx/IkAzZ86cbOrUqXmqJDUeA8qtrxhM8V5PUjsqngd5uXbMMcekbtWm6QPKFHFBMBkDBw7Mli5d6kEgSb1U/gRy/fr12cEHH5y61VoMKPcfAzSSmoXnq9bGfd5BBx1ksSaS2hrnwuOOOy4Fk6mQdvbs2fkQ1aLpK+U777zzUptgsm8UJKk+9thjj+yxxx5L51acdNJJVlggSW2EYllWrVqV90lqJVYSK0nbn3lvvvnm1L1w4cLUVu2aOqDMTW6U+fTss89m+++/f+qWJPUeF9g4x/LQ8dxzz6VuSWpn5OQbMGDADg1pBGD5cq43L9+Y9u233877uifWq6fTl1GB5Ny5c/M+Sa2ESqlAUZHc70lSu6ISUvC8W697qHbR1AHlJ554IrW5EPoptiTVHy/q+PwHvrWVpE9x/0kFizRr165NAViKYaO4IOr36AmKbhsyZEjeJ0l944MPPkhtM2RJand77bVX51e569atS23VpqkDyq+//npqn3/++aktSaq/r371q6l9++23p7YkKcvuvvvulCuZZvXq1dmWLVtSLeGUPU9guVpQ+eOPP05NJS+88ELeVVlX0/ZEPedX73WT1Hcih/Lw4cNTW5La2ciRI1P7ww8/TG3VpqkDyuQGwb777pvakqT6O/LII/MuSVI15HCZMWNGCirz2eSNN96YD9lu+vTp2aBBg7K99947NaNHj96hjGKKq4iaxqMYjbCraburp/OjNnTW7Y477shTtleQzfxiXgwnyC6p8e233355lyRJ3dPUAeUo29NghyRJkhrB1VdfndpPPvlkaoMAK195kANm5cqV2fz587NXX301O/nkkztz9ZJGzubovvTSS1N3LdN2R0/nRzCZgDcB86lTp6Y05sU6UyQS82F+fDZK8R8GlSVJklpXUweUJUmSpEZCBVcEWcn4EAFaKjWlrGWKyRgxYkTKfXzvvfemYYsWLUpt0o466qjObsZDLdN2R0/mR3CYYDJl6pMLO9x3330pgMxvjXV+55130rArrrgitSVJktR6DChLkiRJdRSB4ShHefbs2SkoS7EYBJmLtYgvXrw476qsN9NW0t35URQGOY6phPDWW2/NU7Psk08+SeVFk9M55kPz7rvvpnEp9qOnlRNKkqqL822xaTSxXlwr+gMvNYvFMUnqewaUJUmSpDpasWJFah944IGpzUP1sGHDUvnClDM8ZMiQbNy4cWnYrvRm2kq6Mz9+B0Vh4PLLL0+5rwM5nbFgwYI0j2JDoBmRQ1uSVD/lcy4N53SCqrww7E0Q99FHH03Xid7g3B/rddddd+WpfYtrUVQ2Kal/GFBWy+DCycWvqwtgDC82XV1wY5xQXEa58aFJkiRxP0DuXIqCIADLvQMP1RQLQVET69evz7Zs2ZLKG96V3kxbSXfnx+8gtzG/5YILLtghx/HnPve51I75VGoioC5Jqj/Os5RfT0P59rwE5IuSMWPG9OgLEa4RvGDsbWCW4pDAteOmm25K3ZJajwFltYxZs2Z1vgmtFtyN4cVmzz33TG90qWymPF2ME/iMszhtsSGXT9SSzsW4lfCbelObvCRJ7YDr/9e+9rXUfc0116T2a6+9ltqUqzxv3rzs4IMPTsVNPPHEEym9K72ZtpLuzo9g8rJly7KHHnooBZfJ/Rb3OPvss09qr127Ns2nUlPM0SxJqi/Os5yXaSjffuPGjSmwzFcinOfLz7b080xHLuZXXnklT92OYUuXLk3db775ZsowVXymJUAd03YVrGYagsgsn+sg145Kz5HMg2WEXT1vMi7LZpxqz/pg+YxbaR2Lw2L5lZpK05LO8istmzSGx/x3tY5SqzCgrJbAyfvOO+/M+z59K1pNvMmNhgselc0ceuih+Rhd4wGr+EaYhot31JIen4G2iuuvvz6bO3du3idJkoq4D+EBklxhPMiTK+uiiy7Kh263efPm7Mc//nHq5oHz4YcfTt3kKCs/vDK8qDvT1qLW+e2///6pTWV7VMjHb+MFPsh9zP0TuZ2LgQkeuAcNGpRe1EuS+heBZc7XBHLfeuutPHX7uZkMUDyrkouZ8zeZquJ6Q6WsUfwRz8VkmCIzFaZPn54dcMABndPSzXm+UtCU52CWPWXKlOz8889PaZWeI5kny2D5ZMpi3jTMt3gNZBmkMS7LZhx+B9NX8otf/CKNy/N6GQFzhj3//POdy6/UFOfNtZ31I53lx7KL68i2Y3hkcGMde3JtlprOtibG6tOsX78+T1G7WrlyZToWlixZsq3jIW5bxwUyH7KjOGYq6bjwpmHMK5TH51ijf+LEiXnKjmJ4xwUsT9kR82Ydt27dmqfsjHkUx2Ga+fPnp24wvONBMO/7VLX0LVu2pPl1PPDlKTtjOqanKa4b3aTFb6Kb+am9xDFQ/C+odTy+bMW2GX92S97X3IaPHLvtRxs35X2Nh2sH/6PiOV3NJ/ZjtYbrZfl6zH0Jw+Iehe6ZM2fukI64nyE97jVqnTbWi+XTXW7i/qbW+dHNdIF7ghgn5sW9BeOTxrAYXhxHzYl9z370fNWa3L/NLc6z1cS1ZM6cOamf5zf6OUfHs1yMwzNw4HggrfzsSRrHDNcBGuZbnH8R1yCGxXLiWCs/Q0Y668S6FOfLNSnEM3qsE9fXSvOkn3TENKx7UVyjWFYZabHu8dxMGv1c5+K6zrCYTyw/thsNvyF+j5pHHFOeE7vHHMpqCeSgxamnnpo+rSnnlqnFhRdemNoLFy5M7Z7gsyNEZTQg11Lk1uFtJW9+DzrooJ2K2KCbz5V4qxnj8EaUN7q8DQ3lt6ahnM5bUZbBW1Tm13HhS5XwME/WKbBM3jIzPQ1FgMQb5yjiA/wmunkDK0lSuxo+fHgqN7jYkBus4yEk3X9QRETk7A1cQzseMlP3aaedli1ZsiTlIuOaSvrIkSPTsMgJfNRRR6V+1DptrFd52WW1zo95Mc9A8RVMS3rcKx1zzDHpE+uOh+fOdeaLLbYDv0WS1P8OO+yw1C6Whcx5mfM8xRyBczTPh7fffnvFnMaBawrTzp49O10HaOILnLvvvju1A8+fcZ2I5Vx66aWpXe0L4u985ztpXYrzja9mQIWwXKd4ZgXrM378+NRd7bk0nusp2imwbvwOrlGVimO64oor0rqzLK5tiK+Oydkc11aG3Xzzzan7qaeeSu0watSobOrUqZ2/R2p5eWC5KbH6NOU3T2ovvC3kOIi3q+X+ojhmKuFNKMM6LiJ5ys7jF9/QVtJxkUrDi8uOt7+88Yw3lfEWk7ebgWliWt52Ml28/aQJdFdafjk95hdveJknw0mL31hc31i3WN+Y165+s1pfHAM0aj3mUO4/cQ4294OkRuf5qrW5f5vbru7LKz2/8azHcx77nIZnxPjCJOIppFc6LniO5Pkxpo3nzPI6xPM0ywksl+XE1y8hjsFiLmNUmi/P97HsOXPmdOYkLq4n/cXfy3N0cZlMxzg8/5bFsHhuDvF7GB7Lp4n0GJ80+ou/W83Fc2LPmENZTS/KTj7nnHNSm7eHvB3c1dtWRMH55CCO+Zxwwgmp3RXecMZ00ZAbmLe8iHVBVHTz2GOPdb6p5A1rx4U4vSWN8pWefPLJVOYib395o8ubzWpvXWvB7+84MaZcR2Ce8Zb2qquuSu1/+qd/Sm3EurHcjov2Dm90JUmSJEmNb926dal9+OGHpzbPm3z9yteyt9xyS7Z48eLs9ddfT8N2ha9+qWeIL17JZcy08fxaVKzTiC9sed6lmTx5ckqrVjlf5GSuhi9w+ZqWL3ZZNrmueVbdlSuvvHKHZZKbmmf1yH0cGH7ZZZel+MHVV1+dp2739NNPpzbDWX40lDGN8jb84he/mHdJ7cGAsppaXLgIxBIIDVEERrWALBUQ0FC8A8U4RJESBHh39ako+BwmpiteWAjgrl+/fod1ifXj89BiADouxFzo+B0sOz4zDVR40xPlynGiYR1YF5YF1pMLK8FnKhuI9WIb+JmOJEmSJDWXxx9/PLWPP/741OZ5lGdOnvtefPHFzmfDWnzzm99M0/KcS5FOTFcu6gJRGV9ksCqKZ9zuVvLOcynPqVi5cmXnelPh365MmDAhtXn+ZT48/xJkLiL97LPPTs/H3/ve93Z6/j3llFNSm+f7bdu27dTUug2lVmVAWU2N8oy4cCHegtJEQJk3sJXMnz+/s6GcJC4S77zzzk5vLKvhDSbTRDNz5syUTlmDUY4yyCHN+tEUg880CxYsSOMQ/I0adMt6GtSNgDLLKC83tlcgOM76v/rqq2k4b4ApazkC3pIkSZKkxsdXswRhCeyeccYZKS1y0lJecTxf8rVtPBd+9NFHqV0Jz4ooBpGLZQdH3TyXXHJJajN+BH6LDevDs+muviAueuONN1KbZ+9ihq3INPbBBx+kdiXkfCYIzra48cYbU1oEmcF6M1+2AcHmSjmlzzzzzNQulkUNnpO7W1+T1IoMKKupRdEN5Zy95LDlosXFodLJvhh8Hjt2bAoCdyd4y/yZJho+j2F5fA7DxTlwYYq3tJXeatKwDtVyIle74JaDveX+qESHQHGlZdIEfgvFYlCpDsFxLqxst7jwSpIkSZIaC8+dNDzvEkgmUxBfzZLj9v777+98vo1nQ3LjRrGNJ510UhoPBJ55nozxyJTFeARdKaYRX/va19I4LOeCCy7ofMYdM2ZM9uabb6bnR54jq33tGxXZVaucr5Jjjz02tSNIzTrx7ExGKPDsXakYjRAVAhJU5ncUg8asN+vM8zLP3LEto8ERRxyR2lTYx/IZj99PBix+f4wntSsDympanMDjwhVvPosNF1Hcc889qd2XuFjH8njzGW9qEZ/klC84XPwiEMz0XJRWrFiR+sNbb72Vd32KC3+8KQ7PP/983rUdQW7GK9aQC9aLG44IVLNOjz76aOoG01HWM9PG50WSJEmSpMZCEYw0PEcSSObZmFy5tItf3p5//vnp+Y7cuFFs48UXX5wCwSCd4ix4FozpGY+vaC+88MLO508CqSznmmuu6cwlTHoUZRFfCVdy6qmnpvZNN92U2rUgABwBbdaZdeJ5OX4nKBe6GnI1s+4o1nGEeJ7m98R2LDbgGZ0MV0zL8vfee+80PiiCg+0ltTMDympaUWlctQsXF1EurgRGu/NpTU+xvKho76677spTP714EmiOIDJvVrn4sX4RfD7ttNPSxZxhBH0JisdnSkVc/HHHHXekeTFe5NQu4sLHuvAWlcAxy6YyBpYZb4ap2IAKFphXbKMo/yqK8eAtMxdiLt7Mpz+2pSRJkiRpZ8WiF6Ohojq+QuXZsJxLmMAsX6PybEggdMuWLekLVdKZjumjOAiesWOefEXLMy5FQzIdzdatW7OpU6emYGqM961vfSu1TzzxxDSPSmJZzz77bHr+pSJ6pimLeQbGY32jmEp+B7+PIjiK49Jm3CKWQxCcZ9likRmIaas1gd9ZXge2c3F+bDvSe1r/kdS0Ov4MTYvVp+n48+YpahcdF7K07zsuDqm7mvnz56fxaCOOmVqVx+dYo3/ixIl5yo46LjRpnRineFx2XHy3jRo1qnN+NIzXcVHNx9g+7cyZMzuHDx06NM2DZdEfSGNYjMdwpo3uQNqcOXM61yca1qOovF40TMP0IbYjTWxLtY847mnUeh5ftmLbjD+7Je9rbsNHjt32o42b8r7GE+dzz6OSGp3nq9bm/lU7iGdYnomlrnhO7BlzKKtprV+/Pr1l7arsY3LpMt7o0aNTP900tSqPz1tH+stvPwNvXlknxim+GeYNJp8R8VaWN5u04+1qYFreFG/ZsiW9/V29enV6I1ouBoM0hrEcGt5CM215vUjj7THLiTfKzJv1KKI/ltlxAu1cN6YPsR1pipUZSJIkSZLUKHg+HjRoUCqmguIxL7roonyIpHoyoKymRBCZwGr5c56y8nh009SqPH4ty2UY4xQDsoFhVALY1fRMV/yEhuInKuHzo2LZWF2tF/OjqbROiGVS3EalecTvrva7JEmSJEna3Sgbmkr758yZk+oH6ioDmqSeM6AsSZIkSZKkpsdXv+RS5mtdg8lS3zGgLEmSJEmSJEmqiQFlqcFt27YtNZIkSZIkSdLuZkBZkiRJkiRJklQTA8qSJEmSJEmSpJoYUJYkSepHkyZNygYMGGBjY2PTsM2CBQvyM5YkSdLODChLkiRJkiRJkmpiQFmSJKkfzZ8/v7PC1VZuQqVhNjbVmlBpmE3/NRMnTsz3hCRJ0s4MKEuSJEmSJEmSamJAWZIkSZIkSZJUEwPKkiRJkiS1GSuJtbGxsbEi2p4yoCxJkiRJkiRJqklLBJSHDBlS8S2DjY2NjU3vG86xkiRJvTXiK+PyLjUCK4m1adcmVBpm036NFdH2jDmUJUmSmtDHH3+cPfDAAzs0q1atyt5+++3s/fffz8f6VIzPOJW88sorXQ5vR2wPXqzRbkSsVy3r1ui/oxmxPc8999y8T5Ikqb20REB5/fr1Fd8ytFoTKg2zsdlVEyoNs7HpquEcK6nxEDSm/Mtic/LJJ6evCg444IAU7CK4HGL8uXPn5imfIog8dOjQ7IorrsgOO+ywPFW9cccdd/R5cD72u/ofuZmGDx+e99WOY4JjQ5IkqZmZQ1mSJKmJjRo1Kr34iWbNmjXZzJkzUwUjBJc/+eSTfMzKCHARiB44cGCadv/998+HqDcuu+yybMOGDXmfWg25vadOnZr31W7hwoXZM888k/dJkiQ1JwPKkiRJTYwA8MEHH9zZHHPMMdmMGTNSUBnPPfdcaldiMHlH5OK+4YYbusxZTIA+igchF/ijjz66QxEj5AqPHKiLFy9O41HcCHY1bb3U8jvUO+zD2L5RnEx8EUD/9OnT0/4tvtBhHALKa9eu3WF8SZKkZmNAWZIkqQUdf/zxqf3EE0+kdpnB5E8R9CPAS1Eh1113XXb22Wdnw4YNqxiMnzVrVioehKImCNyOGzcuTUfwEOQ+JXcyyCUe42FX0/ZWd36Heod9GMXHsC/pnzJlSgoU77333ilwzP7dc889O18oMM6mTZvS/41ucypLkqRmZUBZkiSpBT3++OOpffrpp6d2ETkjDSZ/ioArwd8oPuSdd97Jrrzyyuz222/Px9iO7UaglqAwZcwvW7Ys27x5cxp21VVXpTYB3Sh7fv78+Wk8co7XMm1v1fo71DeWL1+e9sGWLVvSto+vBJ566qnUZr+D8pfp5liRJElqRgaUJUmSmhi5IwlWFhuKO4gg4rHHHpvagc/tTzrppNR99NFHZ1/4whdSdzuLnKZ/+Zd/mYK/e+yxRwr2EfgrIvBOoLaYs5Q0xiMwHzmRK+nNtLWq9Xeo79x6663ZXnvtlbb95MmTU9r999+f2pIkqT2M+Mq4vKt1GVCWJElqYuSKpPK9YkNOWHKpkgOW4FYRwUsCydOmTUvTjhkzJh8icmwXDR8+PO/ajm1JEHjRokWpaAOCtTQrVqxIw6Nog0p6M2137ep3qG/wnyOQHAjqS+2AF5kDBgzYoaG4Hc5xlCfO8KIYn+FlFN0zevToNDzKo5ckNR4DygXc3BcvgjRczLjQkdOnfKMf49MuI5fJoEGD0nAqX5EkSeoLFKFA0QrRkAuWT+4pUoEAZhnjP/bYYyknJQEwgsrc57SzyB1c3l777bdf3rUd93SHHnpoKv/2lltuSWnjx49PZRbvSm+mrVWtv0N9o9L/TTtbuvzJfm2e+cHz2cZN/5AvXX2Jl1l8EUFz1FFHpXMSX8vworNS8LiMYDIvObkuUWTM1KlT8yEqYruyPesdcKduBeYb15J6IpbCi4RiTCXSik2xIlPVB/u0lv+f1F0GlCvgQSsuhNwY8mkoOX2oYKOWSlM4ATMPKt1YuXJlqm1drYkLHhe+Wi66XPA9ke8+ceNljfeSWg0P7fGwQEOuyHKu5CLGJxclDYFlAgDc59SrYrhmdOSRR6Y21/SicmV2jzzySLq/IxD/4osvduY0jrKQu9KbaWtV6+9QfbVyIHnr1k/SZ7v1arDqBz/s1+aue/5rdva538h+/6zzsu/OeyD78Yc/Seuh+hs5cmQ6t0XDi01ecPJsTPnuXT0zlYPJM2bMyIeojEAs27OZKvbk6xxeLNAOkVZsqMiUTH286O6LwLZqx72Ez87q0rYmxurTrF+/Pk/pnfnz56f50S5bs2ZNGtZxMcxTKo/f8VCwrePBLKWvXLkyT60P5kmj+mNf9eQ4Yhr2ycSJE/OU6hhnd+6/dj9++G+yD3ryv1yyZEndzjPNKI7zdj5+Wtnjy1Zsm/Fnt+R9zW34yLHbfrRxU97XeOI6UOk+oye6cw1CtfH76t6F+dE0A87zlX7/qFGjUnrss+gvjsf2i9/K/SJiW8+ZMyf1o9ZpuyOmDbX+jkZW/k2NinUs/pfK/aHSeOyPRsc6s671PmY4T+8OP/3pz7atfmXttmlXXJ3W4S9vv2vb1k8+yYe2n3rv311dj+LcFOfE8vhbt27tPE/NnDkzpdUT86VpFd29/jcCjjXWuXjMRRrHBw39HCPEXEjn3qSe9yVFzJ9G1fFfbKZjrDfqfU7E7rre9SdzKNeIXMYdF7lU7mA510co50weMWJEPkSN7uyzz26qN7zqPnIPkVOiJ//LcePGeXxIalmcHx966KHUzfWwHXMERc7ek08+OV0ryJFD+Z/klCuaMGFCarOdKMKCcbn3o8EZZ5yRtl/kWL3pppvSfSO5yWqdtjdq/R3afdjf7A/2jbnv+s9nP/tr2dCjj8xm/8VN2UMPfDd7afWa7Mxz/tjcyv3krbfeyrt21io5kznX86UPTaX/NsOL6YxXLfdnfAUb5/FiMRFlUWxEpXEqfU1LfzRlMS+mCzEPmr46Z3HtGjt2bPpqh2JOVq9eneIpxFW4nlmEaO+U93dxX7J/ORbL25hxnn766TQe3V0dg2pfBpTrhD8aN4itHEyOkwlolz+N5WTEBY+meBEqK08bF8rA8PLFKi5k5XRwcmMesW6VMCya4rrFOrPf3nzzzZ2G90asV73mp96JYyguhuX+2F/RD7rjWK338SFJjYT7ljlz5qTrIfczxXNhO6CYEO7f+O2UccwD7ObNm1OZ1EXnn39+5/1ejHvxxRenIiwoOoR0PvGmyBGmpT8+8a112t6o9Xdo94nPvdk3VFam/jdo4G9k3/3Pt2dnThibTb7gUoPKfYzryd133526KTe+bNasWSmYPHHixKYNJvPijnM9mVBoKBuftCKGEzDleYJhjMd5gHqXis+4bC+KfWD8OI9T9GZXdR0wbqXKV++666407I033kjzjfWMhvqeSIvnmyiC4t133039rOtBBx3UOT6/i2n649zFfcmSJUtSN0VGqedi/wW62YcEkY877rh0LHLfwLEQxyLj8L+kobtYVInUKc+p3JRYfRo++agHsrczv0rZ3DtuztMwPrsIMf60adM6PxWtNG29MH+a3aX4GUBxXfhEiU9TYhvQ0E3ali1b0jhgP8U8aDpOWp3btfgpRbkflT7rIY1tH/Oj4VMp5hlYN5ZTHIeG9WNYzLfYdOd4qrRe/GY+D4n5sSy2WXzGtbvE+rSr2FfxH41+jtPiMU3DcYVyOk13jo9WEduKRq3HIi/6T1wD4zzUW3Edo9iEWtQyPsNpitfvnmrW8wb3EWwDtldss/L2YBsyHsOLSI9xY9ry9LVMW6uYfyW1/I5G1CzHDduz+F8q94dK6aRVG79R1Pt8FRrtE2Cuf+P/cFIqEqOd1Hv/cjwzP557mHexif903F8jxi83xee4eor594V4XuCZApxn43cXizKKdYhnYM7LTFOcFuVp2VbxPBvXjdh+jIuYpnxOYbp47i0XO4Lyukc/80c8a8d+YT7xnNvdfRXzLh5z5eWVsTyG8zvqjfnStIPyb41+4hMcZxyzsV85TgL9cYy1uvgPFY/P3rLIizZFzdu8PYyGNzW8GcS9996b2kXUXEuuElxxxRUtn6uH39jxR0vFf2Dp0qXZZZddlh199NFZx0k/Nddcc01KmzJlShoHV199dao8gE+ZGOc73/lOdskll+RDu495s+07LmacHVMOHD4xZV9FjmcqoWE9WSbj0PCmk/3F23By8nRcwNK4/CaGk9Yb1JpP5UYdJ6W0Ts8++2y2ePHi9HZPjYfjlNzHHRfSdCx03LCk44r/Mf//eh8fklQvVKrHOanWCsFqGZ/hNF1V6tfqyBXFNoiKCyttD7Yh4zG8iPQYN6YtT1/LtLWK+VdSy+9Qz7E9i/+lcn+olE5atfHVv/6vq67IvvCFz2cL/tt/z1PUGzxj8bwXDXgO43ls9uzZqb+MZ7m43+Y5rtIXqY2MCuT4DRdddFHq5zzLcybuueee1C66//77O68BfLmCyMENpmV+UbE/54orr7wydfPcXcmll16a2g8++GBqg+3IdudLGJb1wgsvpPQPPvggtRHPOhQzUcmTTz6Zd23HfHim5xmX39DXWB7PZvyOVo+x7A4cdxxnHLMcJ+D4lGplQLkCTlhxEVyxYkWqDX3OnDnpxEnZPmWc5BjGOFxEv/a1r7X0Z/GcbLj4xEWOk87AgQNTTfGc9Gm4KFHmNNswTv50E2TlUybG4SJEULknmCcBWrZ5XMy4KY8blYULF6b2T36y8yds7EMunH31SdWdd96Z2vPmzUvrxE1A8SZBjYX/L8cCF1L2VbwEefnll1NbkqT+QtFLtTTFosIk9dwen/lM9h//w6XZvf91fvazn/08T1VP8awXmXhoOF9xnx3PjWWMHy+/CKKCe/NmCh7yvHfYYYelYG+co+N5olJw/Igjjsi7tgefQfwhsC2++MUvds7rjjvuSBne8OGHH6Z2GduQ53HK7Q8RXJ48eXJqkykMZHziWZ5i/djOLK+aCC4S6KeIhLj27I6XYb/6q7+ad6keOF6K+94XnH1j6fIna2o2bvqH1DQbA8oVRE5Emo0bN6YTOQHSan8y3hgyjHGmTZuWAp1x4m5FZ555Zt61vRxaAsWUp0QQNy58NIELKeUvobwNuVgW1Xrz8NRTT6X23/3d3+2wzCh7cN26dalNBTecLLlw8vaYcVifri6cvcVLBZZJ0Dxws0CaGs9ZZ52Vd2233377pfaGDRtSW5Kk/sIXTbU0L730Uj6FpN6isr79vvCF7OlVP8hTtDsQFCU3c7Nl0OL5kmdhyqGNc3RXis+IlRDspcxaAsDMq9aKwcn0xbaLytUILhOcj+denkfJVEW8gud31peymVletW3NiwAC/WQU4wtOAsuU79xVec71xHoRbC8/W6v3Ro4cmXep04AB2dx75mcjvjKuLg1W/eCHu2yW/I9l2dnnfiM1v3/WeSnA/Mkvf5mmb3jbmhirT9NxYsxTeofyUpgf7VpUGp9yfqKsXMqhqaf4vbtLlCtT3N50x3pVaxin40KUusvbNspFYt6I+UV/KKdTzhP9XTWBadkXxWHsoyhHMOZd634vqrS+5f5AGsN2F5a9O5e/u5X3c7X9Tn8t47WT2AY0aj2Wodx/4jrQLucTzxvqCY+bxtBX56tGLVPyv/33v26Za2Et6r1/Kz0TdaWr8WPdap1XLZgfTV+IeUc5xIhn3+JvqLYOxfTiPfeaQvnL8Sxbfj4pzn/z5s0pjXGZlu5iebhFPIMzTsQtYr606Wf+ZTw787sGDtxeb1Jx/WoR8y4ec10tD1Huc7H87XphvjTtoPxb6a70/yqnVxuvFfE7+b3F47O3unu92/rJJ+m5jHL9mZbrUqMzh3Kd8ebse9/7XmeuWD4laWXxxpO3nx3HU8WGcfgMCJRpXBQ1yO7KRx99lHdt96UvfSm1O/7wFZdJE1g+n1qRxhtO3rCSi5yyjvsC+563vmWV0iRJkiTtXr85aGD2Ny99WuyAdh+KDeTZkmen/soJ21PxFS7rWyyH+Iknnkjt7pYHHbmRyaldLCbk4YcfTu1i+cdlfAnMcy4xiCi7ma91A+sauZeJWTB/clcjitQoIncw48dvJIczucgfeuih1P/II4+kdl+heA1yUePyyy9PbfW/7h7D6jmKYDpj1GnZ//3w/dm3Z12f3Tbnruy78z798r8RGVDuA5xsqYgNnATjxN2q+GyGQG25uAp+d5yAoqiL8gmp/AnPgQcemNpr165N7RBFXIQTTzwxtcufFLEOXHzisx0ugMVyBrlwEvBHlHUcurpAd0d8PlL8dMgTsSRJktrdU8v+Ou9qLEMO/q3sgx//OO9Td/H8O3HixGz48OF5Ste6Gp9gJ5l/GP766693BjQbERmXyEzEszDBb9aVNkFd0vkd3QmKU0QjmJ5nWBqKpKC+JlCZePHZtuz6669PbYqnIChdLCaCyvQIfJPhjedUmiguMir9KzvvvPOyk046KT3XMz7P2lFXUT2L+KS4SrYdDevHdqB4DVBnUmRiU//ieOEY5pgzntG/hn/5hOzO27+dPbLo0YYOKhtQLhg8eHC6cNGuRVfjc9KjvCGGV6rdtZWcc845qU3lA5xsuBBwEeAExAUwsC1400waJyQqGJg0aVI+dDsuehGg5mLCeLw5LVYwAMbjDWy8uebixniHHnpouvjEhe62225L/VHpABfCRYsWpWFRk2kEu6k4j3UvB8a7a/z48al93HHHpfmxTVhXNSdueMGbe/Zn8UWBJEmSakcOrEa07+c/n9rNWClSI+B5imexYi7druxq/BhO0+jBxHvvvTe1CQJT9jFt4gDxNSz9PEPUgt/NszB4hqVZsWJFejbmWTrSqyHTFYFsFOs9Ajm/GUaGN8pBpuFZnGf2eJ4visA+5TIzDuNT5jLBatalnvuFdWLb0dDNclkmv7vWY0rdw3G1KxE34ZijUkb1L8r3/y9zb02Vxv79W435Ys2AcgGfcHDRol2LXY0fw2fPnp2ntCYuXEuWLEm5ijnZcCHgIsAFK3IDY9asWZ1BZSouIHdyvG0tuvDCCzsvdoz35ptvZu+8804+9FPMmzev5DTm4sYFkQseaRHI5kLOxYh5MU5cOJl/1HRLwJBpuGCx7nHi7CkuyMX5sU34HRFUNiDZXOLGLvZnrcW0SJIkqTl89rO/lndJ3TN27Nhs69at6XmY5wWKWSQOwDPh+vXrU8NXuNFdVk4ndrBly5ZUtCPPyhs3bkzPI2R+inFjftXiDDz/FovMAAFi5sU8WVcaulevXt2Zk3nChAmd8wfL5feQxvgEylk3YhzdFfOmHSKt3LBM1qv8G9QzsV0D3fFFfRHpxWOKlwYxbavHtBrVoIG/kV3wJ5Oy//Cn1zZkRX0DOv6snxY222QGDBiQ2hzg7fAZRPze3bXLyC1M7l0uMHHRKePtK5+snHDCCekCVAnjvPfee52BeH4XgebyhYlPa/bZZ5/Ofct0BH/L8yVAS9nMn/vc57Ijjjii4rqx7m+88Ub2k5/8pOK6MY8IFDIscqXuSkxXbb2WLl2aHXnkkek3sO1Yj662X1/a3cfP7hb7KvZvuT/EfiqmF4+P3bX/dif+ewTT0a7HTyujJmFqGJ557bfylOZFjcoPPfDddPPViHjZyUtVHhKLX/C0qna/7qhnPG4aQ7udr9Do15B68nrUmnieJvNUO/1ve8prjYr64pzINWXV95fkfT1HIPnMc/44u2nm1SnXciMxh7JqRoCNwGhXwTSG85a2HFwtYpxqubqLeCMZwWTQXWm+rA/zY/xq68Z0jFNt3ZiO+dPUGkxGTFdtniwvfgPzpbvaOqpvxb6K/VvuD7GfiukxrvtPkiRJUiMhkDxo0KAUTOar2P4IJpMJh+XW0tRa5IeknVFU1JkTxqaiLxqNAWWppNJFsFLTVYUIkiRJkiT1NYqIpGJ4KrB77LHH8tS+9dOf/jRVkF9Lw9fJknru1JOHZy/8zcvZz3728zylMRhQlkoqXQQrNS+99FI+hSRJkiRJ/W/GjBkpwxMV2PXX15R8oVvOcFWtqeXrZEnV/fYh2796/9HGTandKAwoa7ej3CIuNI2ifAGs1ljjrCRJkiRJkoqeWvbXeVd9jPrKqdnfv9VYxccYUJYkSZIkSZKkOqDs41ZnQFmSJDU9akCWJEmSJPU9A8qSJEmSJEmSpJoYUJYkSU2vHT4rkyRJkqRGYEBZkiS1hON/99jslVdfy/t6b8RXxuVdkiRJkqRgQFmSJLWEYUOPypb8j2V5X3t4++23swceeKDLhnGwatWq1P/xxx+n/qJPPvmkc/xKw1vVgAEDUtMX+nLetYrjI46BrjTC+jYTttW5556b90mSJLUXA8qSJKklnHry8OyFv3k5+9nPfp6ntL5nnnkmmzRpUpcN42Du3Lmp//3330/9gWDymDFj0rA333wz22uvvfIh6o2JEyemZneK4yOOAdUP+3b48OF5X+14sXPHHXfkfZIkSc3JgLIkSWoJv33Iwalpt1zKWLJkSbZ+/fqKzYQJE/KxdhbB5OXLl2czZ87MZsyYkQ9Rb0WOb7Um9u3UqVPzvtotXLjQAL8kSWp6BpQlSVLLOO/f/lF225y7sh9/+JM8pT0ceeSR2cEHH1yxqZbjuB2DyeQOveGGGzqL9Rg1alRqlzGcXKTTp0/fqRiQrgLFxWHVxnv00Uc7h5VziwfSWU8axmNf1RPzYz2K20Ldw37heALbkP4oWoR+jh22cXHfMQ4B5bVr1+4wviRJUrMxoCxJklrGGaNOS5XzXX/jn+cpqqTdgskE/gYNGpSdfPLJ2cMPP5ztvffeFYsdIJBLubgMv+yyy7Inn3wyFRlx6KGHdgZ/77vvvopFh9BPOsNBN01gm48ePTobN25c57ADDjggBRYDAUaWT/p1112X1pXxDjrooJ2W11NsC+bHetx5553ptxbXQbVhv1CMDGLfT5kyJW1LtimBY7bxnnvu2Rm0Z5xNmzZla9asSd3mVJYkSc3KgLIkSWop11/7reyt9Ruy6f/xmuyTX/4yT1X46KOP2i5n8iWXXJICefPnz89efPHFbMuWLdnf/d3fpW1Q9OCDD2YLFixI22Xbtm3Z6tWrU3EiTBsVsF1//fWpzbhF0X/55ZendtnkyZPT8liHrVu3pjYILEZO13nz5lVdPjle6+Hss8/u3BYbN25MxaJEEFy9w/597rnn0vH1zjvvpP2Ip556KrXZp6D8Zbqt1E+SJDUrA8qSJKmlfGHfz2fz7p2bgspXXDmjLYq/IBBJzshKTblIg/POO68zkHr66aendisj1y85QineggDeHnvskYoBqRT4vfvuu9N4xSD72LFjUxrbjJyoJ554Ykpn3KLoP+OMM1K7jEBxcR1os14Edr/4xS+mccgxXG35TN/b4inYFgSTCWhGMJNiUcq/RT136623puOLfcxLBNx///2prcbly0dJkrrHgLIkSWo5EVTet6M9/g/Pza678c+zv3+rdcsrpXgEcrpWaspFJRDEnDNnTjZw4MBUBES7lOO6//77513bHXjggXnXdgRr2TavvvpqCrYWm82bN3eOQ6Bw2rRpadzYtrTpJ53hZbGNKeu66JhjjknzJ6jLPAj2Vlo+aSjvy546/PDD867tyttGPUPgv7j/2a+SJEmtyICyJElqSQSVZ177reyhB76b+idfeGk24ivjst8/67wUYL5tzn/Oli5/smrTTCgWgaILKjXlwOnKlSuzqVOnZg899FDqP+mkk+oWqGxkw4cPz7u2Kwd+u9oGRx11VMrVGxUcXnjhhakdxVxEO9LL3nvvvdSO3M2VPP/886lN+cllI0eO3GH5PbVu3brUpkzoot7OV9sZmG9ee3zmM3lX61vz6rrsl//yL3mfJEk9Y0BZkiS1tEEDfyMFlpcveTgFl2+aeXU24su/l33+8/tkq37ww6oNCEDXq9mwqe+K3iDnK7khKzXlwGkUrzBixIiUUznKB6bSuFYUQb5yBWjVAshHH310xaJDaGJe5Cwmh3cUFUGbftIrOfbYY1N78eLFqV1J5F4meF1p2TS9DViecMIJqV1ej3bJpd5XDCS3Bip0feXV1/K+xrFx0z+ka0hvEUjmxerF0/40++etFvEhSeodA8qSJKktfPazv5aCy0OPPjI7Y9Rp2Tcmn5sCzdUarPr+kro1gwd+Ps2zkZBTmWIaKB+YivpaEblvCfauXbs2T9mOQHpR5ORmWxSD63Q/+uijOwVdL7744lTMBRXq0b7mmmvyITtjHSgOYcWKFXnKdkw7YMCA7IYbbugMSlJWclEsvx65yGMZ5XlFDmr1THdzeLfDFwHNaNjQo7Il/2NZ3tc6ioHk0/7NiPRy9bO/umc+tH546cX5rKuGccBLTPorvcyK8+KgQYN6XW68JKnvGFAuKV7wqjWh3F80evToNIwHBEmSpEZFJWIEOwmktup9yznnnJOCvtyfvfLKK+l3Dh06NB+6HTm5Z86cmbqPO+64FNRgXLrHjRuXTZkyJQ0LBJRBOdT4+te/ntrVnH/++SmIPWzYsDRvmksuuSQFu6+++uoUlIzlF8eJ5ROAqQeKzmBfF7dF/Ab1PY47tj/71sByYzn15OHZC3/zcvazn/08T2lulQLJvEjl5Wpf4nrCeaZSM3jw4HysyvhfcD7ivMg5u52L47njjjvSeb8RzxOsEy8DdvVlE+PxG9iv2n3YB/W6h5CKDChXUekCGM2ucGPOjSLjFmvp1nblExrdXDAbERfKWi7ijXzB13be0EhSZQRSv/e976UHeCr3ixxkrWTWrFkpWMv9GQE9fif95fs6AruUMU05xgQ1GJegBu3HHnssH2s7cvtGUJoAyq6KPSCozbzBvGmo7O/ee+/tLJaE5VMeNmIcls/8y8vvKYrnqLQt4reoby1atCi12bfTp09P3WoMv33Iwalp9lzKuyuQHDjHRDE95YailqopB5PbvSgZimnii5Xu5tJmfLZ1X+bu5tw1ZMiQ7N13381TKmMd+A0bNmzIU9RMiIX47KyuGFCuonzxKzZdIZjMjTk3/vPmzctTVcRFpfw5Z1/iJNjTEyEXylpu9nt6wVdzqPSpsyQ1ggkTJlSseK+S2bNnVx2XXGBvvvlmGl6uvK4V8Pt4yb9ly5YU1CWQS39sk0Bgl4DHsmXLUjrjMs3q1at3KosaBGUZj4B8GemV5s28Yh02btyYjR07Nh9j+zj0M05x+axPpeXvShwftEN5W9CmP36LasO24vgJ5f5QTqdcc9Kqja/d67x/+0fZbXPuyn78Yd+Ved9XdncguTcMJu+sp9fit956K5s0aZIZndSpljhWJcSz5s6dm/dJOzOgXEfFYDK5SHpy49+OOLlRhmNf4XNST4TixpRjraucEdXwqXG5MidJagQEBytVvFcJ58Guxo150bQqfiPXgQhWxDaphHTGZZpqYvpK43S1LYvrUE0ty9+V2KeV5kFacf5dbQvtjG1V3Ifl/lApnbRq42v3onx9Kue7/sY/z1MaXzMHkmEwebtyzuL99tsvtcsIFJPZhXHLQWP6H3nkkdS9bt26nTLE0M90TN9XGaHYnxSnpMbBfi8eC3THsRP1NJT3GeM8/fTTaTy6zTinSgwo14nB5B3FiaeWk0/xhFbEdJVObuDEV5w3/eWLaozDjUmsz67KeaoVyy1e8H0gaHyVjplif3mfgm6OQZBzr57HkCRJ3cV1iGtVLU3xeiapdtdf+63srfUbsun/8Zrsk1/+Mk9tPM0eSMbixYtTMBnPPvtsWz5T8WxBLGHvvfdOOYtpU5ziBx98kI/xKYrvo0gmMrswLt1UXhjPJ3xZS0wCjMPXtmA449HPdAxjOZSlXy8Ekin/n/1JEUqsqxlyGgP7PY4FxFfYxXoi2Gfsv4inMA5fLtHQHcU1SUUGlOsggsm8VTWYvD3HMRe3OHEdeuihXRY5ESe0wEksLqrFkxvziIsl5TXFiY2A30EHHdR5UWXc4jiIE+GuynnalUoXfH7v7/zO7+RjqFEVj5li/3333Zf2YXGfxvHIuByD4D9ej2NIkqSeeu+991IAppbmpz/9aT6VpO74wr6fz+bdOzcFla+4ckbDFX/R6IFk7pej8vpyw0uxossuuyzvylLFp/Gs104WLlzYmTEtisMhEFvcNuBZmCIWp02blm3dujUVVzRnzpxU2evSpUvTODzTRN0AzGfbtm2p+6677krjMT5pTMt4PCOX90lP8AKTQDJFOc2fPz+t3/jx47MrrrgiH0ONhmPpm9/8Znb//fen44G6FMiI9/zzz6fhcexwnNDNCwKpzIByFZUugNGURTCZkzQXhHbG21SCcpx4uIjFRY4LTFdB5aIbb7wxbVNOanHBO+qoo9I84mIZWBYnQd5ocwFjuZwIuTDyKSHrgDgRktYblS74PLSVL/hqHuw7ch9znLE/eYFx++23pxsjLpxxDHFzVI9jSJKknqKICgIGtTR+PSX1XASV9+1oj//Dc7Prbvzz7O/f2r31aTRLjmSek3j2qtSUi98hjeAjbYKbVKDabniWBOftKA6H7rLDDjsslXvPNiIDG9vy61//ehrG83BXCO5S4etFF12U+pn2qquuSt31qPfpqaeeSu1bb701PT+xfrQvvvjilK7GRAWaxxxzTDoeYl/t6liSigwoV1G88JWbMoKmBDEJKhPgrDVw2ooi92dcECkbmQsfweHPfe5zaVhXeCtNMI83r1QQA05wcaGLC18Rw1gWD07nnXdeSosLc72RmxW7uuCreRBA5ljjOGN/kjsCL7/8cmpLkiSp/RBUnnntt7KHHvhu6ieYO+Ir47LfP+u8FGC+bc5/zpYuf7LPm6dX/iAtn0AyQe0L/mRSduBv/mb29KofVBy/luaTT/4lzbMvEKTi+ahSU37RFcFRnue4JyfjDuO1k6isvrxtCMwXMfzYY49NwdvYnmTEqgXPOCeccELKHBXTkjsVr7/+emr3xocffpja++67b2oHvlRWYyJ2xXERfAmtnjCgXEWcaCs1ZQRN+QOSSxbkpK1UJnCrIxjMm+XyxY/cNATsePu1K6+99lpqs/2K25yLX1TUUESAv1jEyJFHHpnalcqcqgd+H3Z1wVfzOOuss/Ku7aICjA0bNqS2pPa16vtL8i5JUrsaNPA3UmCZHMEEl2+aeXU24su/l33+8/tkq37wwz5vXnhpdb4m2z35P1dVHK87zSf/0ncB5Z7geY7nLDNofar8vEkxj1EkJJmcyEBVa8yBr4gpGpJty3T1znzF156IZ/FQy/O/do+RI0fmXVIvbGtirD7N+vXr85Tei3nWotK4K1euTGkdF8NtmzdvzlProzvrtjuwH1i/iRMn5imVlX9HcZr58+d3Dq/WoNqyIp35FPt3tU7VlKeln6aMcUiv57FYb9XWvV1UOzaiP8QxuKvx2klsAxq1nseXrdg2489uyfvUl+Ja0S7nE88b6gmPm8bQbuerRvajjZu2DR85dtvqV9Zu+3cXXJK67/2r+dt++tOf5WN0X1/sX+bFPGt5Hqr27LRmzZqUTlPPZ+mYZyMaNWpUxXUbOnRoSo9tFP0zZ85M/Yh7dLZnKG/brVu3pn6a4v5esmTJTtPWqryMmBftojgmGvE8wnrRtIPyb6W70n4vp1cbrxXFMd2Ix2rgeY3ntkZiDuU6IzcuxTtQbjDlBrVTxQJ8MsFb5bVr1+Yp3Td8+PDUjvKTKzW7U7WcyL35zZIkSZLUlaFHH5nNu2duduft3065lEeNOyv77rwHsp/97Of5GM2PHK2U9QuKwGiHr35POeWU1C5Xjlf8Mpe6XaK/WNEdlfehq+0UFYqzPYsVqz3++OOpXY9tHDmT33rrrdQOzz33XN6lZtUO/0H1nAHlPkDxDhMnbq9YYPLkyXlqe6Aw93KxFHxiM3r06IrFhZRFUPrpp5/OU7YjMP/KK6+ki+nuFBf84omVdSv/ZkmSJEmqt0YNLA8ePDg9A1Mvya6QiajauGPHjk11FPFJ/oMPPpintq7TTz89tU866aRU1AfNsGHDUlpgO0XGpq997WvpWfSGG25IRVjw7EzcgX6eSyODFsVaEKQ+8MADO4uOZBzSpk+fnoqUREzbG1EWL5Wd8+zP+rEM6kZS8+IlBMcHx6SBZVViQLmECxtNLboal4oFqFgOBELbRVwQuQjyu7k4cWHhRERQuRbnnHNO54WNCx4nsIMOOiid0KJSvFpR9hQX0BUrVqR59TYgffzxx6c2F/S44B933HEpTa0pbnRvueWWdAy101cHkiRJakyNFljmS10yENVSuRd1EHU1bgyn3epOPPHEbP78+ambuphoNm/enILqRddff31q85xMechUYEjl9w899FBKp5/cyBdddFF6/uUZfMiQIal86ltvvbVzHNII9BJg5qvgSO8t5sfzOstl/VhGzF+Nh/jIrixatCi1OSZ5QSCVGVAu4cJVS05adDUuJ+7Zs2en4e1UGD0XRC5s4IISFycukrXcXIDafrmA3nnnnemCxwmMIkQI3nf3poJgIBdQpmdecVLsqTPOOCP9Fi7yccFH+YKv1sFxy8shbpI4huKzMUmSJGl3a4eiMFoZcQOKonjnnXdScR/r169P3eeff37qJocxCNhv3bo1PWvzXEI3aTSMF+MyP4ZHGpj/li1b0vwZRjGSPONcffXVO4xXK+IcsbxAzGP16tVp/WhYXsx/woQJ+VjaHcr7mO5nn3027/sU6ezbQM7zmLaYLoUBHSeT3VsobS8MGDAgtTnA4zOLVha/t1l2Gbl3P/e5z2VHHHFEurAFcnki9hn9BH4rBZyZB4499tgdPokilyiBvfJ0kU5ajB9pKKbXotq6Mc+lS5em8qK4kP7iF79In4HERbwRNdvxU2/lY6PSsQJysbMvqx1DjbyP+wr/A4LpaNfjp5UtXf5kqvGdGuzVt3igW7BgQXoxWSzHsFW1+3VHPeNx0xja7XzVyDZu+ofs7HO/ka36/vayhXdlzavrsr/4T3Ozv3/r7eyCP5mUTfyjP8w++9lfy4du5/VI7c5jQkXNcE687sY/z0Z8+feyM0adlqfsfuZQVp/hbSlvKsvBNwLJxRcAdJcDtiHeupaDwMyz0nSRXhw/0srptai2bsyT8r0YTjfzjW41pvKxUe4PsS+L6TGu+1iSJEmNzBzL6i4yj8TX17tqdnedRpIahwFltRVyPFe6MJabyBktSZIkSc3GwLJq9d5776VK/GppfvrTn+ZTSWp3BpTVVl566aWKF8Zyw3iSJEmS1MwqBZZ/9out+VDp0woVa2mqfVksqf0YUFZbiRqDd9W0Q43CkiRJkhrb/vv/evbQA9/N+3quGFj+3/b8TJ4qSVLPGFCWJEmSJKkB7fGZz2SDBv5G3td7BJY/8yuGASRJveOVRJIkSZIkSZJUEwPKkiRJagvnnntuNmDAgLxP7YZ9zzGwuzXKekiSJPWUAWVJkiS1nPfffz8F7WiH4cOHZxMnTsz7GkesqxrTqlWrerx/Kk3LMcixKEmS1KwMKEuSJKnlvPHGG9mCBQuyjz/+OE/5tHLeRrNs2bK0rmpMTzzxRI/3T6VprQBakiQ1OwPKkiRJainkCp07d27qnjdvXmcQmfRiQJlu0gg6P/roo9n06dNTWjEITfoNN9ywQ1oRuYsZTsO0n3zyST7kU2+//XYaxrzopgmk33LLLZ3drE9g3rF8mldeeWWn+cc08RtiPYrrS/8dd9yx028oLo9h/P7i8psZ2yl+d6V9EmIb89sZl21cxDwefvjhzu7y9mFfxv5hPsVlVZu22B3rST/7gG7WpTgv2qwbw6r9lq7WQ5Ikqe62NTFWn2b9+vV5SmuL3yv1hMePeopzrMdP63p82YptM/7slrxPfWnixInpfzR//vw8pbXtzvNGbOtiU0wPMWzUqFGpPXDgwNQeOnTotjVr1nSmR7NkyZJ8yu3nxuJymIY289i8eXM+1rZtM2fO7BynOH4cB9EfDeNgy5YtnWnMu7huRaSxnuV1pZ91jPWKht8VYjzWpTgO0+yu++tYh95gP8X2ok0TvzG2L4rXt+L2oztEWjQxPdMWp4ntTBr7DjEsmpi22A36Yx/HetNMmzYt7a9yevH4Yngsuzge67F169Z8rO5j/ZhPu5yv2k277V9+K40UPCZU1AznRJ7XeG5rJOZQliRJUkshJ2fHw0HqXr9+PU+MqbsrW7Zsyd5555003Zo1a7KhQ4dm119/fZqWfjz++OOpDXI+U5TBzJkz0zirV6/OlixZkm3atCnlMAU5Tq+77ro0L8ZhvWiPGjUqmzRpUhpOf6xrjIMpU6ak9sqVK9O8Wbdp06aldSnnol2+fHl25JFHpt+wdevWNH/STjrppOw73/lOmi/zwSOPPJLagfEWL16cthPTzpkzJy3j6quvzsdoLuTMHTduXOpmf2zcuDF79tlns/vuuy+lFU2YMCG1+e0UO8LvZxuzTaLsbbZdKO4ftg/jsV1Jf/HFF7OOB9GUduutt6Zxqk1bCdv84osvTvuZ/cgxc/vtt2fnnXdeWn9+B/MH6xoYzrSsB+MwPcck67Fw4cJ8LEmSpPoyoCxJkqS2dvfdd2d77bVXtscee2Tjx49PaQR5R4wYkbqPOeaY1C4G6O68884UuJ0xY0aekmVjx45NaeWymzdv3twZoAQBQQKMLLOaWbNmpUBnrAPrduGFF6bue+65J7WLrr322s7fcP7556e0c845p3P6aLPeZSzr4IMPTtNStu/AgQOzFStW5EOby2uvvZba/Hb2B/htl19+eeouWrRoUdrGDAe//8QTT0zdxaBtGUFr9jHB5+L+ofI9th0vEXqCIDXzYT8eddRRKe3KK6/sXL+oyI8XAOAYI5jMS4DiesTLgCuuuCK1JUmS6s2AsiRJktpaBOwQQbsILAcCzOQ+BsFhul999dUURCw2pMU4BAbJLcq45Dgtl43bFdbpvffeS7laKReXeX/zm99Mw4rBaRDE3H///fO+T331q1/Nuz4Vv6Go+PsxcuTINF55Oc0gcm9HYDiQg7uM371u3bodtnGlnMxlEbR+8sknd9j3ND3FiwiCwSGOvzgeUd5PTz31VGrzQqS4DpMnT07plfa1JElSPRhQliRJkrrh+eefT+0DDjggtYsIxhJ8jtzH5BalOIKjjz46FWFAcQx77rlnl8UfgMDgySefnHKZvv7669nhhx+enXLKKfnQHVULHFYKonZHMZd1s6sUcB89enTaH8VtXMs2Kxc5UhT7v7vB+ErrtytvvfVW3rUz1oFGkiSpLxhQliRJUlsi13BPRNCRYgkIDFdqIkBIrlOKI4gyeinXF5ShXC2nMsFIilTAQw89lOZH0RrHH398SqvVM888k3d1rdp6HHjggXlX84jiScrKwVeCwpQzDMoojm38O7/zOymtK/vuu29qn3XWWTvs82LTkwBxd+23336pTXnbldaBRpIkqS8YUJYkSVJbinJquyuChRH0DQRmKdIicqfSJqgXAVuCy5TrSzEYeO6551I7xHhvvPFGalMMQpSNi/vvvz+1610Uxbvvvpt3bUf5yQTbi0UwNIsjjjgitaOc4VDOVRz95OItFiVB8REo75uiE044IbUffvjh1A7sP/Z3vfdPNYMHD05tyoIuImd58TiUJEmqNwPKkiRJajlRBu28efOyt99+O3XXS5SNjGHDhmWrVq1KzXHHHZeKUIiydAnskRN5zJgxaR0IONKmYjzKPY5yfilqAXfddVcaHunkoKVsX+bNPAn0Ml2k18tJJ52UAqEEWSkGgiI0TjvttHxocyEITjCcYD/bjO3JtmI/FPE7wXixjdmXUYwJxZPENo6iIyJYzAsF0qgQL5ZBAPeggw5KyylWfFietp542cBv5XiI9WA5hx56aDoOH3zwwXxMSZKk+jKgLEmSpJZzzjnnpODrddddlw0ZMiRPrR/KRo7iKyjrmIYAI7mKH3vssZROztf58+engB/rQNnJtAnY3nvvvZ05gCnDl3W97LLL0nDS58yZk4ax/sybYDLzv/XWWzvT64GAJ0U+UBkdwUkqFWSdYznNiBy7/C6CxWxPthW/qYig8LRp01J3bGMQkI2XBbGNZ82aldoEi6lYEeRkZp5r165NyyCAy35luRwbodK09USxJhwrHB+sB8thPfgNU6dOzceSJEmqrwHbOuTdTWfAgAGpvX79+p1qPW5F8XubeJdpN/L4UU+R44mHVHj8tJ6ly5/MVv3gh9nMa7+Vp6ivkIOQABdBKLpbXSNcd8ghHLlCuVekm7S4byz3g1zEFAFBwDEq1kOlcQPnyffeey879thjd5imiHEI/g0fPrziPGL+iOGsy9KlS1MRC8UyeWMdGY/5ojjP+N3l31Ael31EAJQgKsilS+7o3VnURT2Pm/J+oZ92cVuyrV5++eXssMMO2ymdbRjbKvZPeXpE8RkUt1Fp25WnLa9HtfViOsqxLs6z0riB/fe5z32u6np0R7udr9qN1yO1O48JFTXDOfG6G/88G/Hl38vOGNU4X5CZQ1mSJEkticAbAcEIChKEKwZey/0gEEca0xZVGjeQTvED5WmKGIeHlGrziPkXh7MulLlcDh7GOqI8DeJ3l9en0rhF/IbeBiIbCb+1uF/oL29LhjFOpfTitor9Ux4PVARIU23blactz6faepFenme1dQC/o6v1kCRJqhcDypJUA3IKEQgol1kZ5WHS9ATTkQOpiDSWFTnGJEmSJKkR8czCs5J2P/ZDXz5D8pzK1zASDCir4VCpSU+Dc1JfmTJlSvoMZvLkyamfQDIV+kR5mDR8OlXrBTYC1ExXLlOR3EegHET/C5IkSZIaEc8qPLOUM8ho96AIJ/ZHX7ntttuyuXPn5n1qdwaU1VAI0lGpCWUMSo2ClxwEk6n0JoK9VKBEJUtUokSlTFGxD5X6RFmK1TCcGtipQKcaKvth3hMmTEj/C0mS6o2yI/0aRpIaE8HaKIOd7nJGk8iNWikDSkxDG8yHZ5qunisYv1pu45hffJ1JJhrmuXjx4jR83bp1FddD/Yf98cQTT6Ru9kU5yM++Y79VygDF+LF/i4rHEe0nn3wyzTfS1N4MKKthcEKi4hm8+eab6SS1cePGiic2xImMYdEdqp0oQ/FkWmne6nvsM25Yyhc6FG9YwDjcAJUvWsVjoKicHv3RzXLZ98X5MbzSTRb9F1xwQar5/qKLLupMu/3221MaxyrlW86ePTvVvo977rkntau5+eabs6OPPrpz/EooO/Hee+9N4yxcuDBPlSRJktQO+JKRLxrJiEJ3ZLoicwrpe++9d8qNyjC+nCw+/y5atCil33fffanIvgMOOCBl3DrooIPSs1DxmYf+YcOGpfGZH/NlfsVMMjE/vtakTSYavrK87LLL0nDmTbp2H/bHddddl7rZF/EVLM+8HAPse/YbzaBBg3Y4Dji2mIZMU4FhHHsnnXRS6mc4z6ZkqqKbY0LtzYCyGgYnJC5E4ETISYpAWrTLRo0alYaBkyXdBAW5+MWJkgtjBBLBSfGOO+7Y4WQaF9VysFJ9I26AuKnhhoU2/ZVuWF577bW0v+IGiJubYhnGsd+p6b6onB79MS+Wy76npn32O+kMj5us4s3Yc889l23atCm78sorOyu5IQ0UgxEV/YCKcECwuStXXXVVtmzZsqqV6gQC1bjllltSW5IkSVL7IHhHRhS+iOTLRZx33nnp68mVK1emL002b96c0nm+KT5TgYDv66+/nsZhfPAsFM9JPCvTD4Zv3bo1mz9/fvbqq69mZ5xxRkoviq82CSzyDM24WL9+fVoX7T7sj4kTJ6bu4hdIvFQgvnLxxRendPYx3ez3WbNmpXF4HmdanmMjfkJwmefghx56KD3zxv5lPLqZRu3NgLIaBiekuCDR5iR14YUXpv5yQI1cplzEKGagWJM1b8/OP//8bMuWLZ0XunijBnJAc1HlosyJlOaaa65JJ9Orr746H0t9iRuT4g0QNx9r165NuX3Zr0WkffDBB2l/si/p52JYfKPeHTfddFNaLvPjQsg8CVKzDI4FhnHRLL7AiG5eVIQNGzak9n777ZfaRXER70oEnmvBMc56lreNJEmSpNZHYJCMJgT14jmYZ90RI0ak4WRSobg8lL+U5PmJ6RmH8eOL4MjtHM/A3/nOd9Jwnq15Lr/11lvTc1ExcxZ4Npk6dWq3nme0e3FskBlvxowZqZ99TDfFK0aOZhSLXOTFBMFl9nccZ1KZAWU1NC6alQJqDz74YGpHwDlw4eMCyHRc6AjucSGM3Mf3339/Okk+9thj6URKw3icYDlhmku5b3FDwv7ghUFcmCiTmP2CO++8M7VDXPjYn9y0nHbaaSmdnMs9wfHBcpnfpZdemtK4yWIZHAsM4/go5jCmPDBUyk3c1Y1U+earp0488cTUZrtJkiRJah88qxSfQ55//vnUJkMMgeJoIkBczoQSz09hn332Se344jIcdthhedd28ZxTrtvonHPOybvUDIhvEEtB8Xih4ctdRAyEZ2ReODA+xx3PxTw/S9UYUFbDi6BxMdjI2zNOcuWAXrl//Pjxqf3WW2+lXK3kjOXESa7T4sk0mAu0b0WlDZQ7XNz+Tz31VErnc6wicpsXRXC1/ClXrSjiInzxi19M7bPOOiu1w8iRI/Ou7aLivd1l3333Te2e/mZJkiRJzemoo47Ku7Z7/PHHU5ucpXxlW2xQrvQ7np9CVDAez70xfjnzTASe4/ktxDOUmgNxEPBMWz5eItBcjIEcccQRnc++FItBpiupGgPKangEiQkeR0CZwBonP8q0LYsLXxnTRDlRTFs+mXKCVd+LN9zlG6CozKFWgwcPzru6J26giqhoYFfKQeZQKcgbF+RKy+qJI488Mu+SJEmS1M4ihzBlKlN8YLmhUvuick7k+Iry8MMPT+2YXzlj1XvvvZfalNes5nXIIYekdpR7XKkpPrfedddd6ctYgso8s9frq1u1JgPKagoEjzmxUVnaI488ktKiUoKijz76KO/aETlT40RJcLrSiZSmXkFAVRY5xqP85HJTzC3elV29Ga+W07ynRZqU3/RHQJtPzcrq/XIiityQJEmS1N6OPfbY1I6cyoHnHDK7lOuaefLJJ/Ou7eJ5+fjjj0/tCCi/8cYbqR1eeuml1D7hhBNSW80ljgOKsaAYSb7ULiO2Unw+5vghoxfBZ74oJqhMzKV8TFV71lb7MaCsphDBY4qqIKcyJzlOjmXlHKPxic6BBx6Y2lEec/mkyHSeGPteVGz3xBNPpHaodgO0K1GERbxBB/OoFtTtyT7mBUS5/OL4dIyiV8oXYXCc1cuHH36Y2j3NlS1JkiSpNUSAkDpfbrjhhvQsQqYcvrrkuSUq3Qs8+1LHEDlNH3300VRBOuIryAhQn3322Wk+PC8xXwKLzK9SPTJFUTzfbbfdlpbR3ec51VfkPCenceQujmIk4zjgmXXYsGHZySefnE2ZMiUNY79xbBBE5hmX4+zee+9Nx88VV1yRxgHHBM/aBKONn8iAshpKBAhvueWWHS5InNAI0nHhJLgXFaqVcbLjQsiFlQshb+I46UXZP1/96ldTe/LkyekkyDIIcjIOJ1j1LW5IuEjxUuCOO+5IFyH219577532QXcr2/v617+e2nPnzu28OLJv6ykqsiheMDme4uUEN28cSxxv/AYUK4vkd3JsFadnXaMBw6K/fGGOz9TKFWVIkiRJaj88P82cOTM9U/EcRRGCPCOTNnbs2DROZEaZM2dO+kp0yJAh2bhx41J9QnwtGl/m8pzNMw1F/DEfhlPUAfNatGhRGqcrLI9nIJ7TWUYUM6nd4+qrr07P27wQYH+AXOhUir927dqUxv5in/NiYt68eWkc4igcQwSRI+Me+5aMfOzbyDgVlekTjJ4+fXrqVvsyoKyGwoWNkxYnuPIFKYJ0nCBHjBiRusuYjlzJXFi5EBL0K9ZMy1s3ypviZMpJkGXwho15fu9738vHUl969tlnUwH/XOS4YeHGBdzslCtV3BUC1BwvvDhgX1LG11VXXZUumPUSLyGiRuVAjbdchLnwcixxvIEbtOLv4Phj/Yo5mVnXaMAxGP3lCzO58jk+d5U7QJIkSVLrWL9+fTZ79uy871M8F8yYMSN755130rMHz8Bbt25NaSGKCNxvv/1S5pYtW7akcVevXr3TszTPLgSpGYdn5ZhXsThIvhhmfeLL3yKedxhWbbj6DxmfOB5if0QaxwD7nmEcB+zrZcuWdWa8u/zyy9P48UIikFuZdJ5HwbES8650bKq9GFBWw+EtWZykKl2QrrnmmrxrZ1xcuRjGSZSTXLxhAydMTpKcTBnOBXPz5s2p8oLieOo73Jhwg8KNCts/boCmTp2aj/HpDUu5nOxKNzJx88OF8cUXX0wXufJ4HAfl6eiutIwYN5x66qnpAkqguohjiYswx0/8DtajfINWng7Mv1pTvDCT85mAdVfHvCRJkqTWw3NTV5lKeB7h2YPnnwgMVsOzbrVMWYFxeFauNC+GsT5dDas2XP2LYyb2RxnHCsdBOfZRbfzYt8XjMMbt6thUezCgrIbDRShOUsULUtQwG8UcdIUTJdN3heFcMD0R7h7sW7Z/pRuguHCVL3SRXml8LoyRXh4vLqrF6eiutIwYNzA8yo8ieF3G+PE7yvMCnwfxWVFxnnRXa+J4pLgXyjIjmH3RRRelNEmSJEmSpN3NgLIaGsUE8HnGgAEDUkCPnKAGgNXfCBhTvAXFc5TLON4Vyi+Lsqa6I8qxomKNcgBdkiRJ6q0PPvgg75IkqXsMKKuhRfCOcnIJJhPYk3aHyJ3c3cob4zO07iBXM5UfUAZ4d6eVJEmSuhIVoRfrmlFr4cvHbdu2dfvZRWpHK1asSO2ozFK1MaCshsaFkEAeTVfBZIZzwZT6CjnjOcYoN7mvEURmWVZ0IElS4+B+k6/m3n777Tyl740ePTobNGjQDpX70k09C6xPV+tCxoxHH300jcfLaorTCnfccUf6LQxX+6GiNkQQRZLaGV8GIyqzVG0MKEuSJEk9QFCOwJ7UFwgEL1++PLv11ls762kgt+Hee++dnXzyyakoriFDhqTAMAHjohtuuCE74IADsnHjxqXxqM/hoIMO6vz6j/oZSLvgggt2CFarPfCiAgRRulucmyS1kuL10+JVu8eAsiRJktQDl112WbZhw4a8T6ofgnwEgqnDIT5Z5+XFggULUlFwmzdvzrZs2ZLNnz8/Dbv55ptTG4x33XXXpW6GMy7zIXhIG9TPsGjRopQ2ZcqUlKb2QdCEFwq48cYbU1uS2lFcPzknVqpkX9UZUJYkSZK6gWIGyJ2MxYsXp5yk69atq1oEAWkxLLojVyjBP3KTdpVLlHGmT5/eljmiyTnE9qqUi7K4XUGRDozPdmJ7UZxDebsWtz/bsrgvEMuj2dW2jn0Xyy/qzrrw28rrwjQgLVxyySWpfffdd6eAIA++BJt5CCbQHNto4cKFqU0gmeGMS5Fd1M1AJdcxHkXLzZw5M03bbseVsuzKK69MbertKB5nktQuuIZzDcR3vvOd1FY3bGtirD7N+vXr85TWFr9X6gmPH/UU51iPn9b1+LIV22b82S15n/rSxIkT0/9o/vz5eUpra+XzBvswfl80Tz/9dGqzn8umTZuWhq1Zs6Zz2pkzZ6ZxBw4c2DkP0rZu3ZpPtX05MXzo0KE7jNeq4jeGlStXVv3No0aNSsM2b96c+uM/xjYrbi/mEWL7xz6hiWeJJUuWdKbFdmeesU9iWtqV9l1RtXXhGAgxvxiXhnXZsmVL6ub37QrrFusR6xnzKiuuf4hrPNujKNapOK5aT/HYK/5PWk38Ril4TLQ3rpfF+4Barre7G89rPLc1EnMoS5IkSd1Ars/169en7vnz5/NEmsq0jZyixZyo5FQlByDDqHQ1UCTB+PHjs3feeSfNi6IISHvttdfScOZBkQcgp+nq1atTEQcxXqVcsa3oxBNPTO0777wztQPbh/KF2R7kwCU3cBQHsXHjxrS9Yh/NnTs3tYvYJ0uWLEnjkFOXHMSUN8z0pJGTd+DAgWmeV1xxRT7VdvRfeumlaTnsE/ZtFDEBcvtWW5d77rkntYsYt7guTz31VEo///zzU7sSfj/HAOtCsRXkPqYYi8B2KSsef4Hl8TsjV7Pay7x58zqPFc5hnNv4L3BsVfoqQJKaFec07hXIlUydAtwHYObMmf1S8X4rMqAsSZIk1UGUwxcBQTz33HOpHZ+XB4KNBG8IAhLU+8u//MuUzsMOXn755dReunRpZyUxFHEQ4912222p3erYPjzsETSNbQPK/8Xll1+e2occckgKyFIcRGC7RpC/jCDa2LFj0zh4/PHHU3vWrFkpjW3+5ptvphcGEdQOF198cTZixIjUzT457bTTUncE+Y899tiK64J4gC3iWCiuy4cffpjaw4cPT+0ylkPFfFTIx/zmzJmTKu6LYYhjpmifffZJbYppKRo5cmTavrz8UHvh//W9730v/U/Af4UXKxxbVOpIhY+t0IRKw2zaswmVhtm0ZsM5LV4Ac80D188ZM2akbnWfAWVJkiSpDk499dTUvuqqq1IbkfNzwoQJqR0OP/zwvGs7cokign0x3Te/+c0UeI6GfrRT7sEzzzwztR955JHUxi233JLaZ5xxRmoT2KUh0Ex5sLG9yN1dSTn375NPPpnaEdRFlFFMU3T66afnXduVA87V1iX2cRm5nYviJUQ1zJsgNA2oHPKuu+5K3QzblUrBZrz77rt5l9oJxwy56MmVT073CC5LUivihTJfBfGF0dSpU/NU9cQAyr3Iu5sObxkQn4e1uvi9TbzLtBt5/KinyO1EThV4/LSepcufzFb94IfZzGu/laeorxBQIvcXOR7LAapW1OrXnTg3lvcnlamRa5RA5he+8IVszz33TEGa2bNnp+EEGCnKotJxwDYjSMg4o0eP3qFIhzJyr7big1C142bQoEGpTRESBNPJaVTcruRejkBYbDOKFIkiIWJ+1bZ/LcdrTFt+9iind3ddyvOLc0UtzzgUfXHooYem+fJwTHCQ38LyCRIWRbEe5d9OxYEEpYvLi3Vol/OVdsb/rFh8jyQ1M67Ftbx0bVTX3fjn2Ygv/152xqjtX0U1hI4bmqbF6tN03PzkKa0tfq/UEx4/6inOsR4/rctK+frPxDar5KrVzxtxbizvTypdI33OnDmdFcpVqxSuKOYXlbvF8VKsxK0d8JtpytiepFMBX3QXt01sr1GFinWodKc8v9j+5QrI2B+kUyFeNTFt+dmjnM460M86ha7WpTy/WJdiOtPTHxUQFsV8aCMq6SuL8ah8sCi2XXF57Xa+kiSpkVkpnyRJktRCPvjgg7xrOyo+I3foTTfdlF1//fWpmIMob7do3bp1edd2H330UWoff/zx/2979wJmVXmmef+tS+gcKI3agUCEBgyfn4AcbDXKwUa0IMOhg7a0aQ5j2ijTEjm00tER/cCiEQczjAMFkvnQMMOIjgwOkqGwhUqACQUiSctJtG1aYISGYDcagU4MODXeT62nXLXcVbWL2lW1D//fda3rXee19l6Loure736WtV4SI16PWdQzWg99K7Seg9/5znesffHFF602sd7X+EPmNm3aZG28brE/4FCSJUIuu+yyaKzat771LWvfffdda0U1hdUz2ntHp0s9y0X1mF28jEVD5UqSJTSc17VNXnvVehavuawaz6IeyU7bLF++3Ma9NEtS586dozEAAID6ESgDAAAAjeRlKBQcK+SNh3x6AJ9KEChYfOSRR6K5tWmZSgloW5U+8FrAvXr1slblEUSlCPREcoWQahUqDh48uFbwWQj0fntQr1qvyffVQ9QBAwbUPMVd76nXLda29QW5HrJqPV0PXRcvUfHss8/asnSpFIfEz0XXTOUvpKFz6dq1q7Xxh+f5wwlFwbHCYu1b5Sr0gCHt08tV3HnnndaqvIXuMa2rshi658aNG/e5r/wqjNf7pGMAAACkg0AZAAAAaCSFcitXrrTAUSGvHsDm4g/gSz78zenJ4qqrq9BRdXTV8/RgrIat9q9phYgKDLVcrWzdurVW79xC8cQTT9j7Ld5j2SlEVaiq5Wr1Xilk9t67mr9x40YbT8XfbwWuuh66pqqFrXB45MiR0Vrpuf/++y2gjZ+LrvfLL79syxs6F++hHL+nRE+i1/2gQF1hsfatDxx0zvF1dQ/pHhHVQda6OqYC7RUrVth8p1BayzyQBwAASAcP5csh6TwsBKgL9w/Olz94Srh/8g8P5Ws5hfaQq0L4f0clEY4cOWLj8Ye9qLdycXGxBXjJ4NAfxOb3gdbdtWtXyrIYTsfZsGGD9V7O999567tv4u93Xe+DAlLp2bNnrR63+r/Me5Wrd7DKO9TVI9eviYLd+Dqan2rbuuY35Vz850Wqv3P8fVCZlMsvv/xzPY6dr3f06NFwxRVX1Bwzzh8iqZA6/iFFof28AgAgm2XjQ/nooQwAAACcB4WACvs0xEO9SZMmWasayg3RdvWFyaLjqJdsvofJDYm/33VRKKohGdD6NdKg8eTyOL8myXXq2rau+U05F68THe/t7rS+ttO+tY+6+Hp6LanCZAXe3gtb+wIAAEgXgTIAAACQAertqR626tmp0gQNBcVAXRQUq3azeg6rV3umqfey15hesGBBNBcAACA9BMoAAABABuzfv9/q2apMwMyZM6O5wPlRr3Sv6ayyGpk0b948q52sUiqpekgDAADUh0AZAAAAyADVS1ZvUtWcrSuk0zLVB6YuLdKh+0n3S32lLc6HHvCn/VLqAgAAnA8CZWSEek3oASMNDZmgr+jpj7DFixdHczKrsrLS9q8WhUPXnD/uAQAAAAAA6kegjIxYu3Zt6N69e4NDJqjHj2oTbtu2LZqTPdSLJNNfSUTTcE0AAAAAAAAyh0AZGeV1A+sacoEeoKMQsrEP0nn//fetxp1aZAf1ik/3muiaawAAAAAAAEDdCJSRUaNHj64pHZBqcAr64iHf+vXr6y0xoWV1LVcJDO3Pe6GqbahXqo6tdVKV4dB2yf1pWscRjet84/vXuOomih7Ik2q/yDy/9hqSobGm161bZ+Pxa6L5Pq5W19LHfb5oPHmP7t27N5r6PK0fX57cHgAAAAAAIB8QKKNVqPyFAmaFbv369QujRo0KgwcPDp06daoVwimg03It06DxeOgnR44csf0tWLDAQuIePXpYr9Ti4uIwZ86cmiBYtL9hw4aFDh062DraTvv0UFG8fIfa+PRbb71l+9O4zlf79x6tWkf7Ey3TOmheug+6dOli77UGXdOioqIwffp0W6526tSpNh6/Jpqv8fi1FN+P07jW9XtQ6/Xt29fG4/eozkP3stbXco3rAwbfHgAAAAAAIJ8QKKPVVFRUhDFjxoSnn346nD17NpSVlYXjx4+HF1980ZYrCB4+fHjYs2ePLdM6WnfAgAG2PGn27NnWI3X79u3h4MGDFu5p3oYNG2y5Qj7N27dvn5Xf0P62bt1qyxQWxnscp6JtFVZrO51Tx44dw4wZM2yZQkQv6aFj66nZaF5PPfWU3S+6hnq/dV1KS0vDokWLrDe7wv76rsnSpUttua5lXVSr+4EHHrD77vTp07Z/rb9z585ojWD3o9bTvrSOeunrwwYAAAAAAIB8RKCMjFIvXfUSTTV4b9645557zmoV60F7d911l81btmyZtep5rMBQdZmnTJli62hd9USui47RrVs3GxRYy6uvvmqt9zjW9gqAfX86B9myZYu1dZk2bVrNdn369AlDhw6180v2mEbL2Lx5czRWTddl5syZ4cSJE2nVv37kkUfseupa1uc//If/YPtr165dmDx5ss3ze0Y9lXUP+L2hddQqeAYAAAAAAMhHBMrIKPXiVQCcaujatWu01md69uwZjQUL48R7jKrurajHZ1xdAaCOHde+fXtrPXjcsWOHtcnt1dNYPHiuy7e+9a1orFryvNCy/AMClUJRaQmvse3XvSHpXD/dG/H7Jbnvd955x9rrr7/eWnfttddGYwAAAAAAAPmFQBkZ9dBDD1kv4VRDql6j6lValw8//DAaq+3CCy+Mxmrr3bt3NFabB9Re9za5fTJ4rkuvXr2iMWQD9UJXuYuSkhIrc6FguW3btlYbOVPUC70+hw8ftjb5YQn3CgAAAAAAyFcEyshadfVEPnr0aDRW25tvvhmN1abAUbxHanJ7L1lx++23W4vcoQ8pNm7caLWLFS6rR7HqZutBeg1RIN1UHiR7sOy8dz0AAAAAAEC+IVBG1vJyGHrQXlwyvHPJh6t5j+Qbb7zR2mHDhlmb3N4D5ltuucXapjp16lQ0huaiBzYqNPYPA1QuReHy6tWrbXrNmjXWNtWmTZuisdSuuOIKa72cimuofAoAAAAAAECuIlBGRh04cMBCvrqGM2fORGs2TOUwVBf5hRdesBq52l7lDPTgv7rogWhaT2Gj90z2erYqbaEerNpe+9G5qBTH2LFjbXmyDm5jeW/VJ554ws5BoSeaz8SJE8OAAQPsWuu91vVctWqVLbvzzjut9Wvy1FNPndc10QP36uPlUlRyw+9R3YN+HldeeaW1AAAAAAAA+YJAGRmlcgPdu3evc/AHqaVL6+uBfgrstL32v3LlymhpbZrvIaOC6BMnTti8kSNHRmuEsH379lBaWmr7KS4utnBZdXJVLqG+es7pUA9ZhdgKwHWuR44ciZYg03StKioqLPDVtVbtZF1P3Se6X7ycha6Jlvv90xzXROU2dE/pGLr3VFpF95n06NHDWgAAAAAAgHxRVPWpaDznFBUVWXvw4MGM1EPNdv56s/GSqXeol5ioj3p0qjyBenJK8rrVN1+lKVRiQPvQtPbj4woLy8rKwpQpU6wXqkoQqMdxXSGxznfLli1hyJAhtp84fy1+rj7duXPnWvtLNT/+PiTXb23ZfP80ha6/ahZ/5StfCf3796/zeoquyQcffGDzGrr3ktMufu/FaZ+iZeo1rSC7vLy81gcaucr/jUm+3T8IYUPF5lD52uuh9NEHozloLvoGgz501IedGs93+fr/DpoX9012KLSfVwAAZLPZc58Mg274ZhheclM0p/XRQxkZoRBNwVtDg4d9Pp1U33z1NvUQT9PJQG/btm3WKsTVuvWFuToPBX1+PnH+WnyZTyf3l2q+z0u1PpqH3mtdS11zv2ZxyWui+0bjSb6OS047zfN7Tx9e6I8slbv4whe+UHN81XBWeZXhw4fbNAAAcQpNPThF9tIHxCqTpv/rVSZNg66bf+gMAABQqAiUAeA8KaC+7777rNzFNddcExYvXmwPf1RJlUceeYQPFQAAyGF6Lob+T5eBAwda29wUXvs3qwAAALIVgTIANIF6RqsGd+/evcOyZcvCvn37rKbyvffeG60BAABykUo+6NkM6pmc6ltLmaYgWcf0MloAAADZikAZOU+/4KvOnn7ZB1qDQmXdf7t37w7Hjh0Ls2bNoncyAOQRL3eQSnKZQsHKykorlaBBZRNUIqk+2l7bJNU1X8fw/WudhvaPxlFJC7238uabb9p7XF+ZCwXA69evtxJYut6paB0t07eZtJ6uazw41v7nzp1r4ytWrKh1TwEAAGSbnA6UVaNU9EAuAAAAoDksX748TJgw4XOlCDSt+VouCgj1UNbBgweHl156KSxdutSmu3TpYsvron0sWbIkmvpMcr5CR5VE6NChg5Vi0DG0jvafPDecPz2Xw0td7Nmzx95jf1ZHnIJ8hcPFxcVh1KhRYdWqVXa9+/XrZwFz3K233mrLHn/88bB582a7R7SdXzftXyW0RMfWMQEAALJVTgfKQ4cOtfYXv/iFtQCAzDt16lQ0BgCF6bHHHrP2xRdftNb59P3332/tzJkzw/Hjx60Ukr618t5771kZJM1L1dO4sdRzVSURtE99O0vHKC8vt/0r2ERmKLQ/ePCgja9cudLea81LUoCsEFhlMbS+vqWka3/ixIlw9913R2sFC5crKirsumkdv26iDx1E+9exRPvSMQEAALJVTgfKEydOtNZ/EQMAZN6WLVus1R/MAFCIrr/+emtVKz/Op4cPH26tgmWFgSqFJCp/dOedd9q4wsem0u+8JSUlVlrJjRw50uZRe7flzZgxw9qFCxfW1FjWtdeDeRXye+/j6667zu4LfeDgdN2Ev2MAAEAuyulAWb+ciX5hS36tDADQdPo6r76eK6NHj7YWAAqNguFp06ZZ+QMPCdVqWvO9br5CxaNHj1r9W9XgVa/TSZMm2bKmlqTQ9vqdVw9/1X7jg+b5Omg5uh7Svn17a93ll19u7c6dO6315fpQQTWU/bqJ7wMAACCX5HSgrF/O1CND9LUyfokGgMxRmDxixIiaP3bHjBljLQAUonvuucdaL3Phrc8XhYSqjav6t2+//Xa48sorw4033hgtbRoPJ1U/OUll4PQtknbt2kVz0FL8b5G4Xr16Wetl+fQBQ/fu3e2+WLt2rf0Nw4e0AAAgl+V0oCz6BU0P51PgoQddECoDQNPpZ6ke8qSaj6K6jgQVAApZnz597HdOL3OhVtOaLyo3obITojq6+h1VpSmuvfZam9eQN998Mxqr5uUrNm3aZK2HlL1797Z9pxqSPWXRvBQm+/+Tcf4Avx49elg7f/58a1VDeePGjVYiY9iwYTYPAAAgF+V8oKxfnPV1Qw+V1WtDXzHUg0/0JGxqyQFAw9QbWT8zVT5ID3bSz1LvmaxgxL+aCwCFbPLkyfZ7p37PVKtauc47NaiDg9dQlldffdXa+jo9aBvtTz+Lndev95/FHhZ7aO20jX5206mi5fk3d/T/Z9yOHTusvfjii63VtRWvuSze41zi1114GC4AAMh2OR8oi37BXr16tYXKMnv2bPu6ob5aVlxcHIqKivJicKmWMTA0NLhUyxgY2rZtaz8zR40aZU+sF/1MjT9cCgAKnQJl0e+Z8p3vfMda6dy5s/3cVHiozg179+61D+NUN1fz1ZNV81PxOssKHBVOqrfxww8/bPOcviWiHq7Sr18/C7U1XHPNNfazmw/+Wp6XrRgwYIBdM7/m+n9U19wf1ugPtb311lvt+uo+0DXTBwmi8lIKlbt27WrTTzzxhK2XDJoBAACyRV4EyqLA47333rOvZfsvbQCAxtMDptQrWT9T/an1AIDqTgweAqrcQbzEhB7Mt2DBAhtX5watp3IVCpjj85O9WUXBtNZXEKkP99TD1csmxM2cOTOUl5fbuEJtDdq/zuWVV16x+Wg5+j9S/1+qhrXqI/s1LysrCwcOHKh5WKM+HPAPFXR9dR9oO9VTFs3XBw/6e0Z/x6gXutY7cuSILQcAAMg2RVWfisbzUqpf2oHWVPnazvD0//+fw8ofL4nmANlBvev8j18Ujg0Vmz/9ufR6KH30wWgOmot6Lioo0offhdCbVN9+kHz7VVOlJVRSTWFyqtry6lWqQPiKK66oFThrvgJC/az1oDD5oZ32rRIXXpfZj5Xqwz39jnv06NHQv3//vKpxny33jV+v+HXWtdA1SfX/pZbt2rWr3m/1qAez+PV1upZ+HD+GtOb/y4X28woAgGw2e+6TYdAN3wzDS26K5rS+vA+UgWyj8KZ03g9D5c+qexgBQGsiUG45BMpAw7hvsgOBMgAA2SMbA+W8KXkBAAAAAAAAAGheBMoAAAAt6OTJk9EYAAAAAOQeAmUAAIAWMHDgQGtTPWwNAAAAAHIFgTIAAEALuPTSS63dtGmTtQCQrfzBgAAAAKkQKAMAALSAYcOGWXv8+HHCGgBZ69y5c6GiosLG/ZsVAAAAcQTKAAAALaB9+/ahb9++Nj537lxrASDbrFq1ytqOHTuGzp072zgAAEAcgTIAAEALeeihh6xdtGhReP75520cALJFZWVlmDBhgo1Pnjw5tGnTxsYBAADiiqo+FY0DaIJjx38Vxo7/XjSVOZU/K4/GACDzNlRsDpWvvR5KH30wmoPmNn78+PDCCy/Y+NatW8OgQYNsPN8UFRVZy6+aaAzum9YzZ86cMHv2bBvXtyn0ANF27drZNAAAaD2z5z4ZBt3wzTC85KZoTuujhzKQIe3bfzUaAwCgbitWrAglJSU2PnjwYAuY169fHw4dOkRtZQAtRj9v9u7dGxYvXhz69etXEybr59Mvf/lLwmQAAFAneigDLUy9AUvn/ZCexwCyAj2UW8eZM2fsYVd79uyJ5gBA6ystLQ0zZ86k1AUAAFmEHsoAAACwnn+7d++2QHnatGk1D+sDgJamnz9lZWXhxIkTYdasWYTJAACgQfRQBloYPZQBZBN6KGcXfQVdvZcBoLnpg6327dtHUwAAIFtlYw9lAmWghREoA8gmBMoAAAAAkL0oeQEAAAAAAAAAyFkEygAAAAAAAACAtBAoAwAAAAAAAADSQqAMAAAAAAAAAEgLD+UDMuTY8V+FseO/F01lDg/vA9CceCgfAAAAAGQvHsoH5LH27b8ajQEAAAAAAAD5iR7KQAtTb8DSeT+k5zGArEAPZQAAAADIXvRQBgAAAAAAAADkLAJlAAAAAAAAAEBaCJQBAAAAAAAAAGkhUAYAAAAAAAAApIVAGQAAAAAAAACQFgJlAAAAAAAAAEBaCJQBAAAAAAAAAGkhUAYAAAAAAAAApIVAGQAAAAAAAACQFgJlAAAAAAAAAEBaCJQBAAAAAAAAAGkhUAYAAAAAAAAApIVAGQAAAAAAAACQFgJlAAAAAAAAAEBaCJQBAAAAAAAAAGkhUAYAAAAAAAAApIVAGQAAAAAAAACQFgJlAAAAAAAAAEBaCJQBAAAAAAAAAGkhUAYAAAAAAAAApIVAGQAAAAAAAACQFgJlAAAAAAAAAEBaCJQBAAAAAAAAAGkhUAYAAAAAAAAApIVAGWhhNw66IRoDAAAAAAAAcguBMtDCvvSlL4bKn5VHUwAAAAAAAEDuIFAGAAAAAAAAAKSFQBkAAAAAAAAAkBYCZSBPbajYbAMAAAAAAACQKQTKwHkYdPOoMHvukzXjGrJN6bwf2uDOffJJOHb8V9EUAAAAAAAA0HgEykATldw8JHzj8m7RVPZ6feffhrHjvxdNAQAAAAAAAI1HoAxkQPduXaOx2tQrWEOcpj/48NfRVMt5+52/j8YAAAAAAACA80OgDJynQTd8Mxr7jGoWq/zFttd2hj++fWIYMuzb4f33/8mW/eY3vw0/XvF8uO2O74bRfzI+3HnPfWHPvv21AmcFzSql4WU0tI6mtT/ny5Pqmi+a/+x/Xlkz7uU6/uHdQ3YMzdMw/a8esWU6VwAAAAAAACCJQBk4D6uf/3G4cdANNv6XU/7ChrgfzHwsXHLJV8LY274dLv7KVyw0Lhl1u4W6D/9gum1/0x8NCpOn/SB87y+mRVuFsOYn5aHiZ1vC/VPvtXX+6i/vCx9++GvbX1N6NWtf1/5h/5pxna/OSWHyBx/8Oixd9EObP+pfDbPj/7sFi2xdAAAAAAAAII5AGTgPnTp+LXzpS1+08Usu/ooNST/+T4vC/VP/wtbb/9bf2bwfznssDLzhOtv+e3eOt+BYvYTVU1k2/69Ka28Z+ke2Tt+reoXHHn3QtvviF75gy86H9nVxdI4a1/l6z+k/vLqvHUfzh5fcZOHy7beOtmUAAAAAAABAHIEy0Azu/vMJoc0FF0RTIfx008+t/VqH9uHY8V/VDBddeKHNP378hLUT/+xPrb3z7upyGCo9ofBXIbQH2JmiAFkPE1SP5KfK/pOdjyhc1gAAAAAAAAAkESgDGVRc3M7azl//urXuZ5urA2WVmBg7/ns1Q+m8H9p8d/PQG61MxskPPrByGCqTobrG6sXcHObPnWWh8uo1P7HzUd1n1XmmhjIAAAAAAABSIVAGMqh7tz+IxmpTWQnxWsXJ4bprr7bl6tWsMhlbNv7E1lVP51/87S4LohsKeQ8eOhyNpU+9lFc8sySs+x/Ph9kzf2B1n1XnmRrKAAAAAAAASIVAGWgB3yoZam27L3/ZQtzk4DWY9aA8DQqWVXZCdZYVKssL//1/WOviD+nT+Pn0YvZ96Piqn6y6z5decomVwWjKQwABAAAAAACQnwiUgRbQ88orrF3x/KqaWsWqkawSExoU3qoH8pBh3w4zHpply52Xz7j2D/tbO+iGb1q78xdvWKvt/vN//W82ng4//uo1/zOM/pPxYdtrO23aqZeyQuULLyyO5gAAAAAAAADVCJSBFqAewOpp/Ldv7LFaxSphoRrJqpV825iRtlwP3fvhvMesxMWgm0eF2XOftPVUZ1l1jv1BeV4eQ/O1/I6J94TePf/fUHLzEJtfl3vv+a61Or72feu3R1pI/YOZj9l+NO+2O75rPZ2nTr6n1kMFAQAAAAAAACmq+lQ0DqCJ1Fv455WvhT5X9bRSFkkqZ7H/rb8LL728znoap1pPPYj37nsrVL72euj6B50t9P1/vnG5Bc5Ox3lj996wY+ffWlCsZerxfPz4CStdIRsqNlvr06LeyKdPnwkdO3awgFr7+ft/eNdC7MP/+0jo07tnGDTgmynPHUB+0s8K/bwpffTBaA4AAAAAIFuoA6AypHi+09oIlAEAKGAEygAAAACQvbIxUKbkBQAAAAAAAAAgLQTKAAAAAAAAAIC0ECgDAAAAAAAAANJCoAwAAAAAAAAASAuBMgAAAAAAAAAgLQTKAAAAAAAAAIC0ECgDrew3v/ltOHb8V9YCAAAAAAAA2YxAGWhlP698LYwd/z1rG2NDxeawZ99+G9/22k6bBgAAAAAAAJoTgTLQyvpc1TPMnvkDaxujdN4Pw0svr7PxVys22TQAAAAAAADQnAiUgVbWqePXwvCSm6xtim9c3i0aAwAAAAAAAJoHgTLQylS2YvbcJ2vKV/j0Bx/+Opz75JPw4xXPhzvvuc9KWiTrLF/8la9EYyF079Y1GgMAAAAAAACaB4Ey0MqOHz8RKn62xdr49JqflIfb7vhu+PWvT9l8lbT4dwsW2bioTMaf/emtNn77raNtAAAAAAAAAJoTgTKQpTb/r8qw6rlnwv1T/yKseGaJlbRQ0KxeyxIvk9H3ql42AAAAAAAAAM2JQBnIUjf90aDwpS99MZqqnpb33/8nawEAAAAAAICWRqAMZKkhgwdGY9U6f/3r0RgAAAAAAADQOgiUgSz15S9/KRoDAAAAAAAAsgOBMgAAAAAAAAAgLQTKAAAAAAAAAIC0ECgDAAAAAAAAANJCoAwAAAAAAAAASEtR1aeicQAAUGA2VGwOla+9HkoffTCaAwAAAADIFrPnPhkG3fDNMLzkpmhO66OHMgAAAAAAAAAgLQTKAAAAAAAAAIC0ECgDAAAAAAAAANJCoAwAAAAAAAAASAuBMgAAAAAAAAAgLQTKQAvbULE5DLp5VDQFAAAAAAAA5A4CZQAAAAAAAABAWgiUAQAAAAAAAABpIVAGAAAAAAAAAKSFQBkAAAAAAAAAkBYCZaCF/Z//83+sPXb8VzYAAAAAAAAAuYJAGWgBJz/4MKz5SXl4bO4Pw1//uwU2b+z479nwpxPvDs8sf87WAQAAAAAAALIZgTLQTH77u99ZiPzdSVPDH98+Ifz7//h0OHvubPirv/x+eHrhkzXDH/brE5b/1xfC+D+/Nxw6/F60NQAAAAAAAJB9CJSBZqBg+DsT7rYQubjdl8Oj//aB8NO/WRMef2xmuO3bo0K/Pr1rhod/8Jfhb36yKnytQ/swefqDhMoAAAAAAADIWgTKQIYpEFYw/Luz58LK5T8KS/7j/DBi+C3hi7/3e9Ean3dhcbvwn5YsCB3af9W2pbYyAAAAAAAAshGBMpBh9z/0qLVLFz4ZunXtYuPpUOD81JN/HaqqqsK//f/mWskMAAAAAAAAIJsQKAMZpJrJJ078U5j2/XsaFSa7Sy+5OPzbGVPDgX94N5Sv3xDNBQAAAAAAALIDgTKQQSueXxW+/vWOVuLifN30R4PC8JKbwk/KX43mAAAAAAAAANmBQBnIkFOnz1jv5PF3/Ek05/zd+scjrZcyD+gDAAAAAABANiFQBjLk3YOHrP3jUf/K2qbo16d36NixQ6jYtCWaAwAAAAAAALQ+AmUgQ/7xH49buYs2F1wQzWmab3TvHi4qvjCaAgAAAAAAAFofgTKQIf/0zyfDH3S+LJpquksuvih8dOpUNAUAAAAAAAC0PgJlIEM+/vjjaCwzfnf2bPjCF74QTQEAAAAAAACtj0AZyJCrevcM//vI0Wiq6T766FQoLv5yNAUAAAAAAAC0PgJlIEO6/kFnq6N87pNPojlN89rrvwyXd+8WTQEAAAAAAACtj0AZyJBOHb8Wvvr7l4anFi2N5py/JT/6cejQ4auhd68rozkAAAAAAABA6yNQBjLoz//1n4WX/+cr1rv4fB06/F54ftVL4U9v+3Zoc8EF0VwAAAAAAACg9REoAxl027dHWc/i0nn/3oLhxtI2k6c/GDp27BDuGHtrNBcAAAAAAADIDgTKQIY9NX+utQqGGxMqe5gsjz70AL2TAQAAAAAAkHUIlIEM69a1S1i68Mnwe23bWED8yoafRkvqtvl/Vdq6X/zi79m2V/frEy0BAAAAAAAAsgeBMtAMFCq/uPLZ8G++NzE8/+JLYeoDD4djx3/1ueG9o/8Y/urh2eHZ/7LS1n1hxTLbFgAAAAAAAMhGRVWfisYBNJOTH3wY1vykPPzNhp+Ffzx23OZ1aP/VMHrkcKu7fOklF9s8AGhpGyo2h8rXXg+lj1aX3AEAAAAAZI/Zc58Mg274ZhheclM0p/XRQxloAQqM7/7uhPDfVz4bpn//34Q/+faosObF/2LzCJMBAAAAAACQKwiUAQAAAAAAAABpIVAGAAAAAAAAAKSFQBkAAAAAgBzy/vvvh8WLF4d+/fqFoqIiBgYGhrwc9DNu+vTp4dChQ9FPP2QLAmUAAAAAAHLAuXPnwpw5c0KHDh3C1KlTw549e6IlAJB/9DNu0aJFoXv37mH8+PH2MxDZoajqU9E4gBawavXa8N6Ro2HGX34/mgMArWdDxeZQ+drrofTRB6M5AAAgGylIGTFiRKioqLDpvn37hkmTJoUhQ4aECy+80OYBQD7Ztm1bmD9/fs2HZ6WlpWHWrFk2Xkhmz30yDLrhm2F4yU3RnNZHoAy0MAJlANmEQBkAgOx35syZMHDgwIIPVQAUJn0zY/bs2TZeiD//sjFQpuQFAAAAAABZbMGCBTVh8tatWwmTARQU/cxTkCwKlvfu3WvjaD0EykCGnPvkk3Ds+K8aHD46dSr85re/TbksOWifAAAAAAqXSl0sXbrUxleuXBkGDRpk4wBQSGbOnGmlfuSZZ56xFq2HkhdAhuze+2b4/vTMfmV89fM/Dp06fi2aAoDMo+QFAADZ7dChQ/ZAKjl79mxo06aNjQNAoVm/fn0YNWpU6NixYzh27Fg0N/9RQxnIY7/93e/C3/3d30dTdVv/NxvDP5/8IPzr8XdEc+rWu9eVoc0FF0RTAJB5BMoAAGS3559/PkyYMCGUlJSEjRs3RnMBoPConnxxcbGNHzx4MHTr1s3G8x01lIE89sXf+73Qr0/vBodvdO8eOn3taymXJQfCZAAAAKCwnTx50tr27dtbCwCFql27dtY7Wfbv328tWgeBMgAAAAAAWWrbtm3WDhw40FoAKGRDhw619sMPP7QWrYNAGQAAAACALHfppZdGYwAAtC4CZQAAAAAAAABAWgiUAQAAAAAAAABpIVAGAAAAAABI05kzZ8KhQ4dqDefOnYuWtjwdW+fw/vvvR3Nq83NMxV+L2pZQWVkZxo8fX+e5AsgNBMoAAAAAAABpWrt2bejevXutoW3btqFfv35hzpw5Ye/evdGajadw9/nnn4+m0vPBBx/YOSioTVLY7OeYKsRdsGCBLdu1a1c0p3kdPnw4vPDCCy0WYANoHgTKAAAAAAAAjVRaWhrKy8vDypUrbejQoUOYPXt26Nu3b1i/fn20VuOsW7cuTJgwIZpKT/v27UPHjh1DRUXF53pKv/XWW9FYCDt37ozGPrN06VJr+/fvby0ApINAGWhhH//ud+E3v/1tNAUAAAAAyEU9evQII0eOtJ7BGjZu3BhOnDhh4e6oUaNS9jT2HsgKnJO9dLVMvZ99PL5cQbF6PmtblY1IBseTJ0+2dseOHda6NWvWWKuQ+9VXX7Vxpx7Lx48fDyUlJaFdu3Y2r6HjaNrPTdtrXU3Hab62T6cXsrbVe5E8TpzOI9X7JTpW8viSar621zwN9Z2bzkXH03EBpJZzgbL+4S9evNi+SlJUVMTAkHPDv7n7u+GvH3sk5TIGhlwY9MuyfkGs75c+AAAAoBCpt/D27dttfPny5daKAsxOnTpZeQn1QFbgXFxcHKZPnx6tEWyZehn7eDxcVkkNhcLadvDgwTatbMTddttt1v70pz+11r300kth3Lhx4fbbbw+LFi2K5lbzHst33XWXtXUdR7/7uyNHjti5qVSGemRr3W3bttkyBbDDhg2z+dper09/O2i/SadOnbLyINqX3ovkcfS3hl6f3jOdR/z9UljsNK19JCXna9/aXvM0aFx/28RDY+1X56Rz0fF0XGVPDQXeQCHKmUBZ/3j1g0n/8KdOnRr27NkTLQFyy29/+5vwu4/poYzcpZpn+gWxS5cufGoPAAAAJHTr1q2mBIWbOXOm9QZWaYyqqirryaygVyGv95bVfKdxr4k8adIka5WDaP7BgwctyH388cdtvvTs2dNaBchOAam2GT16dLjllltsXjzc9R7LylpkzJgx1mr/Oo621XFmzJhh8+NU2mPatGlW8kPbKbNRALtv3z57bb79m2++aTlOskew9qse3mfPnrX19H7Nnz8/WhrCqlWrLPtROL1169Zw+vRpKzGi98vfl3Tp3PQadAztR+fmPcnHjh1bc25z586116XjaB2te9NNN1m4rPMB8JmiT/+RfPYTK0vpH/ett95a88NYP3j0A1U/FAEALefo0aPW60G/aIl+CdMvgOqJgdy0oWJzqHzt9VD66IPRHAAAkE0UnukDfQWRjQ3S0DzU21UdLOq7Jn7dFM4qYFaQu3//fiuR4dTzVWFlfD/qNSse1SgMVa/g5LbqSavfyRW2Dho0yOb5MRWW6vdz37/OQdPqlVtWVhamTJli6+tY+n3+2LFjNcfR7/u+P0keR6/De/4qDG7Tpo2Nq6OJAmX9bdCnTx+bJ8nX6O+dwuiFCxdGa33+3NUzWPvyaefr+bF9OhltxecrU9JrT/7t4kGyl/tQb+irrrrKSpfExd8ntD6/toX0M3H23CfDoBu+GYaX3BTNyQIKlLPZpz88qj79h6ufDDaUl5dHSwAArSX+s1mtppGbXt24qWrWX8+PpgAAQLYZN26c/c61cuXKaA5am65FQ9fEr9vBgwejOdW/Q2sbDWVlZVUlJSWf24+mNSTt2bOn1rZ9+/b93LbKSzTPc5Np06bV2peOp0F0XlpWWlpq066h49S1naZ9vm+vwefrXETzNL1161abdj7f3y+Na0jy9XSe4u9zUnK+n4f+dtHr8u2dvy5t5+fug78HyA6F+DNRf6/p77ZskvUlL/SVA30tRJ8G6ROx+CdyAIDWoU/19em+fjbrZ3ShfDIMAAAApEM9KKVz587Wqqav1xZet25dTd3hhqjnsH7X1je1Vbahvm2HDBlirZeyUHmIcePG2bioNIW++a19aj/itZc1T6Uv0jmOqFxF3Ntvv22tejPrNfrg32yM1z2Wyy67LBqrW/zck/QwwMZQyRH1ztY1UCkNvU71SPYSfuoBLrpu8fPXoL97ANSW1YGyvn7gReNXr15d62sXAIDWpVD52WeftXH9Ypr8JREAAAAoRF6nWKGlyjLEsw11lFPZBw3+MLz6vPXWWzXhtIJN31a1fZNUukHH1LH8HCZOnGiteOCsffoD/7z28o4dO2rKjMaP07t3b5vXkIEDB1p7MKq/nBy0r8bQ6/DXHXfy5Elr42U1Ukluq+ugUh+7d++2MhoKl9UxRjWUFaZfd911tp5KcaQ6fw0APpPVgbL/gFMPuOuvv97GAQDZQ98a0c9o8adEAwAAAIVKnSwGDBhg408//bS1u3btslYhabyjnPcS9pA0Fe+JW1paWquWsD8kLrmtP8BPPXLFg1Lx8PiZZ56x8Fg9gL0G8uHDh61NHidVqJuKh9XJXs16Pxrbm1j8dSQ7rfj+k4FyfL3k8RToqyeygmPR61O4rPBYobLCdM3T9dm8ebOt47SN9uf1lgFUy/qSFzJ06NCaH3IAgOwyefJka5977jlrAQAAgEJw4MAB6wmsQQ+fU8kIlVRQSKmw0sPj/v37W6uev3rIndZXGYtNmzbZfJVg8NILJSUl1mpaIakHpyodoXka9MA6F99WPNhVEKyOH/FwWLmKQmTvLR3vvVzXcbzziMpgxI+T5NtrPfVGVgC7ePFiez8U1DY2VPbXofdDx9V7ofdOr0vvrfPXsHTpUltH62qen7dovh4YOGLEiJrgWa1C+XgHxttvv92uka6NrpH21aVLFzv/BQsW2DoAqmV1oOyf1l155ZXWAgCyz7XXXmut/0IMAAAAFAKFr927d7dh1KhR1utXAWV5eXlYuHBhtFZ1KQr1/BXfRr87K7z0+Qo8ZdmyZdZqWnWXFdR6yKx5vt57771nQacsWbLEWtH6Hqbecccd1saNHj06GvsstBVt5/vz4ygM9uMoJI8fJxWVu9AxVXe4uLjYwm5RmQ8PnNOl9bWd+LkoNNb7NW/ePJsveg06P72vWuexxx6z66COia5bt25h5cqVNl/rFBUVWavXpBJ+3oFRYbhKYeja6BrpuFpH77/3+AZQragqiwvB6FMhffqkf/g88AkAspM+vdcvXEJtsdyzoWJzqHzt9VD66IPRHAAAkE34uzj7qPet93SN0wP46vt2tbbbsmVL6NWrl4WcopIKR44csXGfp9+vRUG09zDW8VRiTiUsfJ6fR3w90Twt0zwti0t1vLiGjnPJJZfY9qn27VK9Tuf7Sr5Xdc0XvR9Hjx61nsR1vb/a9p133qnpFa5p7TN+fL121Y9Wb2kF1ioBUtf+vDe2epfX9TrROgrxZ+LsuU+GQTd8Mwwv+Xzt9NZCoAwAaBIC5dxGoAwAQHbj72IA+Ewh/kzMxkA5J2ooAwAAAAAAAABaH4EyAAAAAAAAACAtBMrIOfp6vQbVP0pFtZJ8HR9UO6kuvn58f8ntfdC6AAAAAAAAQKEiUEZOUfF81WrVsGHDhmhubXoSrq/jg54wqye5qr6OguE4X98fTCDJ7X3Qk2A7deoUFi9eXG9IDQAAAAAAAOQjAmXklGeeeSYaC+Hhhx+OxlIrKyuzIu0+TJs2zQq3KxhWMJ2OgwcPhvLy8pp9aJ8KladOnRpmzpwZrQUAAAAAAAAUBgJl5Az1CF60aJEFw6WlpWHPnj31lqAYPXq09Uj2YeHChWHr1q22bM2aNdY2pFu3bmHkyJE1+5gyZUrYvXt36Nixo51LqrIbOqfnn3++3h7M8TIaSV6Cw1VWVtpQF52Dlq9fvz7l+Whf8fepvv3pnP286jt/LdPxUp0/AAAAAAAA8heBMnLG2rVrrb3jjjvCnXfeaeNLly61Nl3XX3+9tY3dLknnIPEyGer1PGzYMOvBPGHCBCuzoRA6Hroq2O3Xr1+tMhpeisN5CQ4Ftpo/ePBgG7RdvGe1wuM5c+aELl262PJRo0aFtm3b2rx4gKx99e3b185D+/D9qXRH/NxUxkPn7OflZUKS56/z0zIdT+tpnwqoU4XZAAAAAAAAyC8EysgZ8+fPt1ahsHoOKyRVMNyYIPOtt96ydujQodaeDx1v1apVNt65c2drNU/ns2/fvnDixIlQVVVl5TLefPNNC129t6/OVz2r1VNa65w9e9Z6W6sUhwLkOAW26mV9+vRpK7eh7XQMN2/evDB79mx7LTqW1tO+NG/u3LnRWtWOHz8exowZE55++mk7pkp3aN66detsuc5PZTy0f+3Hz189sQcMGFDzHivgVs9sP3+t27t3bwuod+zYYesAAAAAAAAgfxEoIyeoZ64CVQWmbdq0sXkPPfSQhaLpBJnqZatetBMnTrRpbxui7RT0qoSFBvXiVY9gHVelN/xc/Bz0oMD27dvbuEJvBbjivav/+Z//2Vqn7WfNmmUhtEprxCn0VYDbrl07a/XaxXsfKziWFStW2LG0nvZVUlJSE3jH6VwGDRpkx7z33ntt3rJly6z9l3/5F2vVu/oLX/iCjWufBw4cCO+9955to1C5oqLCzkP7ER3T9/HYY49ZCwAAAAAAgPxFoIyc8MQTT1jrpS5EPW6lriBTPYNVskGDxtWLVqG0evsmw9u6aDv1FFYJCw3qxSvax4IFC2xcfvrTn1qr2swePmvw+R4433///dbqXFQ6QmG1egd7CB139dVXR2PVevToYe0777xT0+NZPYo91HY33nijBd4ePHuvZi/3Ib6N3g/R8ceNG2eB8TXXXGPBuUJ8Bca+rr+Gt99+u9Zr9LBc2wIAAAAAACC/ESgj6yk8VUkImTlzpvXW1TBp0iSbpyAzXjPYqSetgl8fvCyEtk2XtvHBH+inXryqoRwPchWyinoNe/iswXsR+/mp16/2o/BWpSMUVqsescLlpMsuuywaq9a1a1drDx8+XLM/lZtI8uB5586d1vo6yeA5ST2N1StavaW9/EW8brOOK7oW8deoAQAAAAAAAIWBQBlZb/ny5daqlEOSz0v1kD31ZvbwWYOXhWgMbeODyjyozIV69f7oRz+K1qg2cOBAaxU8q7ZwclBPXqf9aFq1jBUuq06xwmWV5Ig7evRoNFbNA10FyzofbacazUnek/i6666zNl16b6ZMmRKOHTtmobK/Vi8P0qdPH2sVOqd6jRoAAAAAAACQ3wiUkfUef/xxa19++eVapRY0vPLKKxasNvbhfOdLZS50PPXgVX1lN2TIEGu3bdtmrVNPYu/hq/PTuE+rx7DCZdVdliVLlljr3njjjWismuoZS//+/a1VL2kFvsnXvX//futdnKqMRl10niq/4fvStgsXLrTAXsfQa/VA2UtcOG2jMLwl3n8AAACgUOmbgV7Sj4GBgaFQB/8GO1oXgTKymoJKfwBeqt7FCmUnT56c9sP5mkrHW716tY17yQ3xsHXGjBkWdKtMh+oQqzyGwl0PkR944IEwfPhwm1YAq/VUd1nuu+8+a52CdO1DYa9alc9QmO3vgwJlUc1jvU8KfdUTWyVAbr/9dluWLtVlVvmNefPm1ZTT0Dnu27fPzl89okXXQfufM2dOTQithxSqJnSy1zYAAAAAAADyD4Eyspr32r3nnnusTUWBstT1cL5MU69if4CdwmOnchcKedVzQHWR/QF+5eXlFjgrjPb1FdK2bdvW1lNQrJ7A2m+cgmv1eFYorX3pmNu3b4+WVj9kT/sWBbp6gOCmTZusJIWC7cbQsVVzWuei4+lTP52jgvrnnnsuWitY4Kz11CNc6ymE9sBf5TIAAAAANA89FyZV2bl8G1yqZQyFObhUyxgKb1A2gtZX9OnFyNrCp+ptqa7s+o9T4yg8XlbCe8jWJb6ees6q52/nzp0bfBCdpFq/oeOqd/GRI0est3CytIT2tWXLltCrV686t9f+VZpCVC4j3vva73sF1No+nfdAvYk/+uijz4XS4q8vuX2q/ep1vfXWW7Y/heDe8zpJ66lH+EUXXRQuv/zylL3HUTh0L+kDDcni/1JQhw0Vm0Pla6+H0kcfjOYAAIBsUmh/F6tzi/B7JRz3BOIKMSucPffJMOiGb4bhJTdFc1ofPZSR1RR21hekuvh6Cng1nk6YLKnWj+8vFa2r5anqFCtcHTlyZL3ba5nW0dBQGNvQuYiC31RhsvjrS0q1X70u7Us/lOsKk0Xr6XhahzAZAAAAAACgcBAoAwAAAAAAAADSQqAMAAAAAAAAAEgLgTKQZfTgPtWGaqjMBQAAAAAAANDSCJQBAAAAAAAAAGkhUAYAAAAAAAAApIVAGQAAAACAAnHo0KFQVFRUa+jXr18YP358mD59ui2P8/W1POncuXNh2LBhtnzx4sXRXABAJn344a+jsexBoAwAAAAAQIHp2LFjGDdunA29e/cO77//fli0aFHo3r17yvA4SWHyiBEjQkVFRSgtLQ1TpkyJliCb6brpQwJdb3fmzBmbFx+0Hlqe/u2l8+8PjTfo5lHRWO75xd/uCn2u6hlNZQcCZQAAAAAACszQoUPtgeA+bNy4MZw+fTr07ds3vPDCC7UCx6RkmDxr1qxoCVrK+vXrLfhtrCNHjtiHBuqN7tauXWvz4kPbtm2t5/qcOXPO6zhoWbpGlZWV0RTyyblPPonGsguBMgAAAAAACO3atQtPPPGEjb/44ovWJhEmZ4dRo0aFbdu2RVOZoetZXl4eVq5cGcrKykKHDh3C7NmzLWAmrGwZ/gFPY61YsSIsWbIkmkI++dmmn4dLL7kkdOr4tWhOdiBQBgAAAAAA5t13343GPq8QwmT19FTvbC8NkQxSNV+9g1MFrL6NSkiIWoWDPp2KjqV1UvUC9lIU2q/W0zFPnDhhx5cDBw7ULM+EHj16hJEjR1rJBZUwUa91HU/lUQYPHlxzXDQfXc/4vaBx/7aA33t79+61aad1fv7zn9t6Gq/vfkPuKVv6TJg6+Z5oKnsQKAMAAAAAAAuili1bZuOjR4+2Nm7evHkWJqvucr72TFZvXAWqd955p417r0+FdSr/oFIQ6h2sgFUlIRTweaDr5SRmzpxpIbEC2gkTJoTi4mLbNh78KhTUAw3VC1jraDvfn/NSFHrftZ6OqXIkOr5472Edt7m0b98+bN++3cafe+45a9F8dD01OI2rPInul2uuucauvcrS6F7xoFnr6N+lBo3rvkF+2PbaznDygw/CzUNvjOZkDwJlAAAAAAAKzKZNm2oeAOaDgs89e/aEadOmhW7dukVrVlOQqQDTx/O5BIKCuTfffNNKPyxcuNDmzZ07116/emZXVVVZvembbrrJAr5Vq1bZOk4PN1y+fLkFsQcPHrQAUNv6egruNW/fvn12jLNnz4atW7faMu3Pg0Lnx9U69913n20janUuyWuVab5/XXe0PL3vDzzwgAX6uu90L+jf6c6dO2257gHRBz0a179l5L49+/aHH8x8LNw/9d7Q5oILornZIycCZX1aV1RUxMDAwMCQhUP8E3QAAADkhuPHj1tQ5YN4UOUhapICTQWkot6yyeAzn6iWtII59dAVhcElJSU1PbNVb3rBggU2PmPGDGvjXnnlFQtiNSiglh07dljrPUgfeeQRO0abNm3CoEGDanoAe1DoVHJCx9U6Wrc1KKyUeDkGtBx9c6BPnz52302ePNnm0WM8fx07/qvwyOx54e4/nxDG3vbH0dzsQg9lAAAAAAAKjPdm9EElGhRaKrRKResr0FRA6r1p1cs2X+u1Dh8+PBqrDlEVwCtc1vvkg0JmvQdaFqd58eDXQ+nNmzdbq9rHcvXVV1vrFBzLq6++aq1T8IzCpfsi3gvd7yfkn3OffBJ+vOL5MHb898JtY0aG792Zvb3NcyJQ9q9x5PvgUi1jYGjq4FItY2BoyuC9VAAAAFAYFCyrN7OC1FtvvTVjD4XLJvFAeNu2bdaqJ7e+QR0f1KM7qXfv3tHYZxQK+rpvv/22tZdddpm1Lhk8u0svvTQaaz3eiz0ebKJlDB06NBpDvvqHdw9ZkHzbHd8Na9auDyueWZLVYbLQQxkAAAAAADSKejOr17LKOegBdvlMD88Tr5+caohT/eUkhe8qmSETJ0609ujRo9Y6LyGi2sxy8cUXW9vavF62el4DuWxDxeasGFav+Z9h9twnbRh086hw5z33hd173gyPl84Ma1b9l/CNy7P/gxsCZQAAAAAA0GgrVqywkFG9V+fMmRPNzW2pQlP1HNb8l156KZpTTT2z9+7d+7myH+qJHO+17UHxjTfeaO11111n7RtvvGGte+edd6y94447rO3Vq5e1rUnnPnbsWBunZm92y7ea5ir/oLA1ORw+/uswcOjIsOSZlSmX1zVI5WuvZ8Ww9823Qp/ePcOgG75pvZEryl8KC//946HvVb2y8gF8KVVlsXHjxuljvqqVK1dGc/KbXmuWXxLkMO4vNJeDBw9yf+WwVzduqpr11/OjKQAAkG0y/XfxiRMnbJ9lZWXRnPo1tL4v16DfC5uqtX+v9Pc7qbS01Ob769y6dWtVx44dbZ6/N/Hfi309DX379rV55eXltp74PO339OnTdn19f5oW31/y2vt87UPjZ8+ejZY0zLfV+Tnt389FyzXoXEtKSmy+hmnTpkVrtzw/h0KQfK0aj18rl5zv95PuS/2bzGd63Xqtjf2ZOHDoyGgMmUAPZQAAAAAACoQ/WG7KlCnRnPo1tL4v15DP9XVnzJgRysrKwqZNm0L37t3D4MGDa8pY3HvvvdFa1caNG2dlLQYMGGDrnjhxwp4NNXLkyGiNENauXWslNGbPnh2Ki4utHrNq5eqBh+3atYvWSk3vs46hntDa/5EjR6IlTaNz0f40jBo1ysqZqPZzeXl5WLhwYbQWWpruuYbofhLdl9OnT7dxoDkRKAMAAAAAAHxKwenBFA+dVsirUP3YsWMW+mo4ffp02LhxY60H+DmFx++9956tp3b8+NoP2FIorDrU2ocCW7UK5fXAQ9e5c2c7lzFjxkRzPqNyI1qmQeuly/cZD4i1f99XfDh79qy93ngQjubl773T+Pbt26Opz2h+/BrqfvJtCf/REgiUAQAAAAAAPqUe1w31tFboq6GhnsQKmrVeqsDZaR8KbFPtS9vpXOpbpqG+/Sf5dnqdTvv3fcWHxuwXmeHvvUtOO82LX0PxdZPzgeZQUIHyoUOHQlFRUa1BT2vVJ4X6SoCWx/n6yU8SRcXOO3XqZMtVhB8AAAAAAKClecmRhoZk5gEA56sgeyirBpDqDWnQJzcKhxctWmR1gtKpNaOntapOkuol6esrffr0iZag0Ok/6HSerLp48WL7oCLfnsKaS/Te6xpUVlZGcwAAAAAg96xbty6t4ejRo9EWANA0BRkoq9B9/FM61TxSnRkFzQqWz5w5E635eQqTR4wYYcXvVZA/Xt8ISPdDiZMnT4YXXnih3nsN2Wv9+vV8ug8AAACgFpUbqKqqspyhJcXzjfoG8gsAmUIN5Yh+8D/yyCM2vmXLFmuTPEzWk071NNZ0n4oLJPXo0SMaQ2vRtxPO95cqPfF427Zt0RQAAAAAAEDhIFCOUa/RuiTDZD2NNR+oh6x6Wur1qQSAvv6f7DWr5Qre6upNq221Tl3lHjQv3ptTx4hPJ2l/WkeDxpPix9Fy9Ratq461H1tDqn05vTa9xvrOqyl8/3W9h2h5ft/6NUlOp7pmGtf9JgcOHGjwvgIAAAAAAMg3BMoRBUNLly618SFDhljrFEp6mKy6y/kSJsvatWutTMOPfvSj0KFDhzB48OCasFbBWb9+/Wz5hAkTQnFxcZgzZ06t0FVBbpcuXWwdDdqHHlQYL/ugcS3TdtqfjqFp1a+N70vH1f7btm1r62jQvjUvHuppW+1Tx77mmmust2jfvn1t3/H1tH+dj5+b9qtz89cn2ofW02vTa9R6elBjpurqKmzU+fv+1ap+cn0fXqBlHDlyxK63/g3Ep5cvX25Bcvya+f2sdXW/yezZs219bQcAAAAAALLXlo0/icaQCQUZKG/atMlCRB8UICoY0kP2VBe5Xbt20ZrVFCRrUI1l1b2Nh6D5YurUqdbzWg8Z7Ny5s4WuCs5OnDhhg+pAaZlC9wEDBtT0ynzmmWfsfVNNaa1z9uzZMG3aNKtFnew1rO0eeuihcPr0aTuW3ssxY8ZES6uDZ4V0Cu1V01rHVb1rzVPIF6dtH3jgAQv4fH86By9XovPXOtqXzknnpn2KrrmbOHGirafXpnV0TFGYXVev58ZYtWqVnb8e4uivSaUS9H4jO+naqPex7itdM31Y4bXVde/4fbRy5Uq7Z1QuBwAAAAAAZK82F1wQjSETCjJQVgCqEFGDwmXVUlUgqaAoVV1kBckKK1evXm3TCkbjvVzzgV6jel6rnmybNm3Czp07bf6GDRvs/REtU51pvX+aL5s3b7b2o48+slbbLliwwILTPn362Dyn+QrkFNjrWAp79b4qnFZYp+uh81DvUIV0XuNW87wXadyyZctsPe3vzjvvtHnPPfecte+884618eukdXVer7zyik1rWfLhijqm9isKy5tKT9IVP1d/TcheCpB1f+q+0jWbNGmSzd+1a5e1AAAAAAAAhawgA2UFmepZqOHYsWMW8ClAUniUinrJKhxV6KheiQpU1eM0n2qn+gMJnQez6qWr98cHL9Xw4YcfWvv0009bqx69Ku3gpSI8hI4bOHBgNFbtyiuvtFYlAzz41XudpHnqIR5/vxUyx69X8trpWikY1HYqi6Fz1zF0Xgq9xUNzvab4a/SHrWXiQwOF5JI8P90/yE633357NFbt0ksvtfbw4cPWAgAAAAAAFDJqKDeSetiqpIN6tqqucr7w0Mx5EKoasvFB5RviFNyqXIQCUi1TsKxaxaoTnJQMmXv06GHt/v37rRUPmeN8u3it2lTBc5KCYfU8V69knbvqKavOsgfFr776qrU67+TrlDfffNPa5pAqcEd28PsSAAAAAAAAn0egfB5UukEBqnq/qlduPlJoLqoj672540O8DrFC5Y0bN9q6CpdFdWiTtaaTPX5Vp1Z69epldZvl7bfftjbOt/N10uWlNdQLXeVM/IMAf8Dat771LWvLy8tTvsbdu3fb8qaoqydyc4bVAAAAAAAAQHMhUD4PKpnw8ssvW9kF9W5VmYRc1bVr12istjvuuMPaZN1YhcQeFKsEhUpieOCrAFfhsgJaWbFihbXOS0k4D49VDkLvqcJX7xkdp3kqU+KlKtKhc/LyG6Jj6IMAlcHQ/lSzeciQIbbMeyo7LdPrykRJkxtvvNHaZLiuYBsAAAAAAADINQUVKCvwVDCZrOVbl/rW1zKFglquB68phMxFl112WTRWW//+/a0dO3ZsTf1h9ezt3r27PZTQX+/w4cMtpFUAK5rv9Zf9QXluxowZNftSz24Fu/EevHfddZe16v3swbX3hB49erS16VKPaa/r7Oe6Y8eOmmum66dBx1+0aJGtp/PS+ankgV6TP3iwKW655RZr9Z4p4NagshvIXbpvZP78+XaP5lMtdQAAAAAAgIYUVKCsurUKDKdMmRLNqV9D6/tyDR4y5Qu9HpWvUK1irz+s4FVWr15ty9VjePv27faQQgWwRUVFobi42IJilZdIPohO6yp8177Us1v1jdXT26lXtB56qHIQCq41aFzzvMd0uhREKzjWcXROOjcFzOpVPm/evGitEJYtW2bnofV0Xnqtej2aN3LkyGit83f99dfb+YuOr0E1ncvKymweco/+3Xv5FN2j8dreAAAAAAAA+a6oSsVis5RCQYWTCuTiNXvzlUJPaclLot6VCsQUktUViquH79q1a62ndjIkduqpqZIWKqGh3s3xffl19NelXrrqGV3XvkTrXHTRRaFPnz7RnM/oWNq/zjku1Xydu8p2HD58uN7z1/ugHsldunQJPXv2bFR5jbi6zs337/WiP/74Y+sRrfHzPVZjtcb9lc2S935d/xZ0D+laxef7utKS1zBb6b5XuC7cX7lnQ8XmUPna66H00QejOQAAIJvwdzEKHfcE4grtZ2K2ooZygVMQppA1HqAlaZn+kdYXAGuZ1lEN5fr2JVqnvn2J1kkVJou2TQa2kmq+zkX7auj89T6oR7KO2ZRwsK5z8/1rucZ1Xj6O1qH3XtfA79fktPNrFZ/v63INAQAAAABAoSFQBuqhntJe1qS+QesBAAAAAAAA+Y5AGajHG2+8YXWfGxq0HgAAAAAAAJDvCJTR7NSDN1drHemBjMneyKmGdB/0CAAAAAAAAOQyAmUAAAAAAAqIOsXoQWf1DVpH9DwaTetBzEkq/adlnTp1sodZAwAKA4EyAAAAAAAFqKSkJIwbNy7l0LVr12it1BQmDx48OHTs2DHs2bPncw+3Rm2LFy+2cD7TtE/tuznoQ4RUHyQk6V7Qebz//vvRHJwvvY/NcZ8AmUagDAAAAABAAVq2bFmtUn7xYdCgQdFan5cMk9u3bx8tQV22bdsWXnjhhWgqN3Tv3t2Ghhw+fNheG73UW4+Cf/27BFoKgTIAAAAAAEgLYXJ2UfjPM33yh3+g01grVqwIS5YsiaaA5kegDAAAAAAAGpRPYbJ60+7du9fCO7Xnzp2LllTTcvX69Pkq57B+/fo6e+Fqud4f7a+hMhH1lZLQfuLL/Dw0pDq25idLTfg+NCRfVyZon3ovksdF0/l1c/Hr6++77tc4rfPzn/+85rrXdY8CmUSgDAAAAAAA6rVu3ToLk2X79u05HSYrlCsuLg59+/YNEyZMsLZt27a1grq1a9dauYe33nrLahR36NAhjBo1yrabM2dOtFa16dOn23K9P9qftqvvQYVPPfWUrZMMBrW+9jNmzBibVjit43npCY3rIYjx0gaar+M71d/VPnwbvS5tk6nwV+9Fly5d7L3QcfReHDhwIFqKpvLr5vz66l655ppr7H3X/dqvX7+aa6p1KioqbNC47l2guREoAwAAAABQgBQ+KWxMNcR7ScrUqVOjsRAmTZrULD1fW4LO++6777Ze1qdPnw5VVVVh69attuyBBx6wNk7h3cmTJ21d9crW9OzZs6Ol1b1DFy1aZA8yPHv2rA1lZWXh+PHjYfny5dFatd1zzz3Wrlmzxlq3ZcsWa5944gk7zxkzZtQ6zxMnTtj02LFjU4bVChhVy9jPRdscPHjQlmXiQW8KsnUfKEjWe6Hzkvj7gczTNdW9+dxzz9l7Xlpaau//zp07bbmus+i6a5yH+qElECgDAAAAAFCASkpKLIRKNbRr1y5aq5rmKaRUq56Q8+bNi5bkHvWw3rBhQ81r1AMI/XUle/LqPZo1a5at26dPn3DTTTfZfO9drJ7aCvcWLlwY2rRpY4PXNH788cetTdJ+PJiOB/PquSxDhgwJH3/8sYXS8i//8i/W6ljqDawheX3knXfesTb+Grp162ZB9CuvvBLNOX+rVq2yVsGmXoPOQe+NXgualx6g6e/55MmTbZ6uA9BaCJQBAAAAAChACqn8IWDJIVnSQgGywlI9/MvDUK2Xa/QaOnfuHD766KOa16qyDZs2bbLlyZ6/d911VzRW7frrr4/Gqingu/zyy623qO/PS1B4IJzKQw89ZO2OHTus1XEVaE+bNs32qUE9UbUPhdoqNaEQ25elomBc10b7UXkEnYvCZV1Lve6m8qBavaTjPGRH89D7rQ8GXC6Xm0H+IFAGAAAAAABpUTCpwFIhl+oFx+v55gIFtwpbVe94/vz5Vhv67bffjpam78ILL7RWIW+PHj2stq1KXGh/yV7OqXid5CVLlljr5S68HIbMnDnTymeISk0oLFZt5vre823btlkQrV7Juj4qTxGvt9sUvo9koJkM2ZFZQ4cOjcaA7EGgDAAAAAAA0qZAUSUjRMFsJsLKlqLQVyUqFIgrfPVexQpez4dq23ov4o0bN9q+1PO7IeplrN7Iqo+rkFvlLhQYq6yB8/IZu3fvtoDYazOrhnJdNay1X5WhOHbsmNVP1jH0euMP7jtfvXr1sjZ5vRWiAygsBMoAAAAAAKBRFHyWl5fbuILQXAmVFSLL6tWra0pHKNBV6CqnTp2yNl3qrS0vv/yytbJr165orPohgHXx3sgKubUfPezQ6ZzUE9m3V4ivcFkBsULlt956y+bH6RrEey+rTMKCBQvs+nhw3RTeEzlZysPLhaB15dIHO8h9BMoAAAAAABSQrl27pnzwXioDBw6sc92RI0dar1l9Jf/FF1+M5ma3iRMnWqtevocOHbIexXqNCl1l+PDhjQrmFPDKrbfeatup1rH27fsbMWJEnaGyQnn1lFY5C4nXa9a+1Ptb2/v5qNWD8bRNz549bV6cekhrG9WE9vBYwbPC8nSvd330Poneo/Xr19v7N378+M8FzGh5ut/0oYQ+UGjM/QucLwJlAAAAAAAKiB7epiA1nYd7qVdsfev6crW5YMiQIRa+KQTt3r17TZ3hX/7ylxbUar6C2XSpl7G2U5in/SgcfuSRR8LatWE3UrEAABc7SURBVGttueYfOXLExlPRupIMfNW7WGG977eoqMhand+zzz6b8iF7Cne1Hz0wsbi42LbRa9X56aGKTaVzWrlypY2rZrTeP/VO9lAdzSOdHuB+v+kDhUyUNwEaUlT1qWg86+iHob6WoR9YGs93+mEvWXxJkMO4v9Bc1DNBv0wK91fu2VCxOVS+9nooffTBaA4AAMgm/F3cPPQwvffee88CZg9y1bNTPXs9PNe0xuNBr5ZrfufOnWtCXfVA3rFjh42rLITP1+/JonU/+OAD21ahbJzCeIXaW7dutaA/SftWL2Odr3o0q2dyPEzWMXR+8cBfx1HZjcOHD1uv4uQx0+Xnn2p79YS96KKLanpKKzSPvyeZVEh/yybf87quQarr7usm5+ebQvuZmK0IlLMIgR+aE/cXmot+cSFQzl0EygAAZDf+Ls5fCn7Vk1g9iPUQPaTG37KIK7Sfidmq4Epe6GbTD6P6Bv9Ux9f16TjVJNKyYcOGRXMAAAAAAADqp97GyhIUJsv27dutbW7qVawe0ekMAFCfgq2hXFJSYrWFUg3xr7OkojBZNYm0j1deeSWam7/0dR6F6qmGQqJPj/Wa1TZEH0boYQzIXrqvdZ3iT0EGAAAAstXJkyejMeQ6BcoqSaDaw3pg3vmWpGisN954I6xbty6tAQDqU7CB8rJly1J+CqehvlozCp/iYXJz1AfKNirorq+zpxo6depkAbvCuXyi0Fj3Qjw8VpF7vWYvdl8fff1i27Zt0RTyjT/RGAAAAGhuqoEr/H2RP9SxRX9vLly40OoitxR/gGI6A5Ct/CGFXbt2tRato2AD5fOhMFlPzFR9o5dffrkgwuS48vJye1CA6tT4cNVVV9UE7Pnk3XfftQcj5FtQjs/ogyP9opTqwRcN0RON+YUeAAAALeHSSy+11kMUAChkx48ft/ayyy6zFq2DQDlN8TBZX0lpqCxGPurVq5eFb/o01YeNGzdamRC9J/raTpL39K2vN6eeWhvv8ZncRtMa13pxdc0XnYv2Ge9hHKdttK2GZGis6TVr1tj4/v37a86jPlpHx0Pu8HvA75HktFrdh/F7SON+nQ8cOGDrp7r/AAAAgEzx5/YoRKHDC4BCFs+d6qsugOZHoJyGFStWWJgsKpbPTVvb6NGjrY3/w1bQpsBZDxlQT1+VitAvQsl6tQrnunTpYj0+tY7Ka+zatcu28R6gXmriyJEjNu1SzVcA2K9fv9C3b1/bp46fLMmh89Qxta2GDh062AMWveaxzkG9rsXPqy56nXpdWkfr6tjU5M0Num903byEiU8vX77c7iO/d9XqnhCtq+ssuke0fvK+BAAAADJJf3/q7xuZO3eutQBQiJ544glr9TOxEDt6ZpOCDZQVBClETDUkebgoTz31VDQGpwBO/JNzGTNmjNURVomMqqqqcOLECZuvYN4DV4W8Hs5pvdOnT4ff//3frwnvG0v7UwCoY2nQcVWmY+nSpTW/gMkDDzxgn+4fPHjQ1tFx1ct66tSpFhArTNS0+Dp10eusqKgIpaWl4ezZs+Hpp58O3//+96OlyEW6D9T7WPeFrr/unUWLFlnvZH1Ionmiki+6N1rqARoAAAAoXA899JC1+r1Uf68AQKFRZ0HlTKLsBa2rYANl1fxVaJhqSNKTVxUuaRv9B66buBCp/IPCYP0C44N65CpQVejmPbcVvKkERllZWU19Wq9XK6tWrbL2nXfesfbZZ5+19fTp0qxZs1Jeg3S8+OKL1urYfi4jR44MjzzyiAXIHmTv27fPSpf4p1lq1QtdIXRjwkGFzzqWzlfnrZraeh38YMttupd1PXVf6H6YNGmSzVfPeQAAAKA1qGOD/52kTjR8KxJAoVCZyfg3yZXNnc+zkJBZBRsoL1u2rFYwGh+S7r//fguX9CA+BZG6iQvxP3D1JlbvYf0C44NCWPXU/OUvfxmtFcKWLVus/fu///ta76vqLYuXn/jpT39qrWozx/lTjBvLSxfoOPHj6jzk8OHD1irAVsCs4FAfDvi1PN9SJsntKAyf226//fZorJo/BMXvHwAAAKA1qBOMPwxdf5cpZPZn0VBbGUA+0c80lStVZqOSpercKfp2uGdLaF3UUG4EhcrqkSr6D1z/cRcSlY/Q1/016H1QuC4q+6Deue4Xv/iFtfoHHw+fNYh/ReHtt9+21nsKOw/wGks9pSV5TP/B49RrWa/lqquusg8HdC31A8prKKfr6NGj1l5//fXWus6dO0djyEU9evSIxgAAAIDsob+51MnJy/np7yp/5os/FyYfBpdqGUNhDi7VMob8HPQzTT/rlNmoQ6DoW/D6NjGyA4FyI6k3qur9yoABAwrqk2D1JFYJAA19+vQJCxYssH/YXhLA3XLLLdYqtFWN2VSDXHnlldaqREbcjh07orHaTp06FY1VS67nXwFTLeNUx9Qn+E6hsj7VUikTnadeh2rnJs+lPt4TOXkePKQNAAAAQHNQZ5zdu3dbBx+VZvRwGQDykb6VocxG2c2UKVOiucgGRVVK2rKUAkB96qqSCvEwsCl8n+pl21C93PrWVbd7fVKi/8BV7iHeQ/d86VMYybZLUt/7oAfxqWew/oErpBWFssXFxfYLzsKFC22eaP67774bevbsae+XSk2od3B8W/F9+nXX17j0yXvyPujUqZMFwX5evp5+uVLg7dSTXL946cMAnYNq4V5xxRW1SlWoNIZ6M/sxUr3m5Dqia6YgW8ucn0dyfmvL1vurtei+UG8Ov57JaZe87nWtV8j8PRHur9yzoWJzqHzt9VD66IPRHAAAkGvU0akxnWMAIJspr0l+mx1ZRoFytho3bpySiaqVK1dGc5qurKzM9nvixIloTt0aWre0tNSWZ+r89Fqz8ZL4dTh48GA05zN6b7SsY8eOVadPn47mVlWVlJTYfL1Hmq/3SOtoXnl5ua0T31bLtX8/lgZ/X7W9pvv27Vu1Z8+emvV8f35evj+tp2Noetq0aTbPz0+DxrWOb6d5flyNi669ptX6ejofzYtfb99OrY7n6/i8bOLnhWq6rno//Homp13yusfvM21z9uxZm1/I/L3TgNzz6sZNVbP+en40BQAAAABA/Qqu5IW6yKvHYfJBaqk0tK5qt2h5IfdS1HujOjbJ0heq7aVi6UuXLrXeyurhqXU0z3sja1uVD1FtHC1XD8fRo0fb/uL0qZS2U89j9QhXqZH77rvPSm7E+f569+5tPYS1X6+fvH37dtuPhg0bNti+dDz12tX5qTeyjuufgN17771WI1plMLznZSrz5s2znsja3l+HzhX5S/eZet/7PUSJEwAAAAAAUEgKruRFNsvWkgT+9Sk9bC5VaY9z587VhGrJkhhaphrDF110UU2pi1RU/qJ///4W6CZLDDidw5YtW8Lw4cNtP5rWuaU6Ly1bu3ZtGDhw4OfOyelr+tu2bQtdu3a1B+sl9xH/2pj24cdToOjBs9O+9u/fH6677jpbrmmto/FsQcmL2vy+9euZnHaprnv8nq/r30UhoeRFbqPkBQAAAACgMQiUswiBX7W6AmU0DfcXmguBcm4jUAYAAAAANEbBlbwAAAAAAAAAAJwfAmUAAAAAAAAAQFoIlJF1VOZCX5un3AUAAAAAAACQXQiUAQAAAAAAAABpIVAGAAAAAAAAAKSFQBkAAAAAAAAAkBYCZQAAAAAAAABAWgiUAQAAAAAAAABpIVAGAAAAAAAAAKSFQBkAAAAAAAAAkBYCZQAAAAAAAABAWgiUAQAAAAAAAABpIVAGAAAAAAAAAKSFQBkAAAAAAAAAkBYCZQAAAAAAAABAWgiUAQAAAAAAAABpIVAGAKCAfXTqVDQGAAAAAEDDCJQBAChge998K/Tp3TOaAgAAAACgfgTKAICsNOjmUdEYmtPBQ4fD1zt1jKYAAAAAAKhfwQXK48ePD0VFRfUOhw4dqrWuT8fNmTPHlg0bNiyaAwBAbvnNb34b/uHdQ6HnlVdEcwAAAAAAqF/B9lAuKSkJ48aNSzm0a9cuWis1hcmzZ8+2fbzyyivR3MJVWVlp4fv7778fzckc7VdDa9IHCqk+VEhqzvcBmafrpOul6wYUqp9Xvha+cXm3cMnFX4nmAAAAAABQv4INlJctWxaef/75lEP79u2jtT5P4VM8TG7Tpk20pHAdPnw4vPDCC+HMmTPRnPzSvXt3GxqS7+8DPrN+/fq0PmQAst1z/+2/h4l/9qfRFAAAAAAADaOGciMoTB48eHDo2LFjePnllwmTW4CH/ECm6YMj3VuDBg2K5qRv1KhRYdu2bdEUkJs2VGwOH3zw63DjoBuiOQAAAAAANIxAOU3xMHnPnj0NlsXIZ+qBqyAunZ64e/futd6c586di+ZUq6+MRHxZXev5fA3JfTudn46tc2gOOq72T4mL3KTrp/vH7+PkdKr73O8pOXDgQL33H5DNPvjw16F03g/Dwz+YHr70pS9GcwEAAAAAaBiBchpWrFhhYbJs37693pIY+UzBmepHFxcXhwkTJli7ePHicPLkyWiNzyiI69evX+jbt6/15mzbtq1t6+HcU089ZWUkkmGvlmv+mDFjbDpZbsLPwedruOaaayzYcwp4p0+fbuenY+scdC76UCBT4Z9eX5cuXWz/HTp0sHNSwIjcceTIEbt/1q5dW2t6+fLldn3j97nuJ9G6uuai0jdaX9sBuURh8p133xeu/cP+YeAN10VzAQAAAABIT8EGygqCioqKUg5JCo6cgtBCtWHDBnsvFNAePHgwnD592sLkqVOnRmtUU0isIE5B69mzZ0NVVVVYuXJlWLp0aRg4cKCtc8cdd1i7Zs0aa92WLVusnTRpkrVJI0aMsHMoLS0NJ06csIcoqse4rqf3FFb4t2jRorB161Y7ts6zd+/e9qGAXkNTKZj216dja/8Sv0+Qu3Q/68MBXVfd57rfdT/pww49xE/zRPe07q9u3brZNJAL9uzbb2HyH17dNyyYPyeaCwAAAABA+go2UNZD9RRGphqSpk2bZuGStlGwpN6ohei5556zVr00FaKp7MesWbNsXpyHxPGHFiqIU4isAFa9iVW3VuVDFDLHeWB/1113WRun3sUVFRV2jXRcr4FbVlZmg6+jB+MpcPbauDpPPYRRHn74YWubYtWqVdbq/ejTp0/N+6DgEblP11HXU9dV97l/uLFr1y5rgVxz7pNPqoPke+4Lk6f9IHx34ndC6aMPhjYXXBCtAQAAAABA+oqq1MUuSymEVDionoAazwTfp3oZNtSzMLmueij26NEjHD9+3Hq/ns/DvOrjvaOz9ZJ06tTJXnvy/JLvk8pLKDjWdYtbt26drVdeXh5Gjhxpwbx69WpdBbN6f1VeQMH9xo0bbZv4e6IgWj2RFRanCrJFvaMVCCp0Hj16dDS32owZM1Kef0OS18Vfr3pIx8ufeM/odO6t1pDt91dL8/vJf77UdX/pQwv1SE+ul8mfS7nO3xPJ5P016OZRYfbMH0RTaIzK1163tuJn1d/6uPSSS8JtY0aGcX/6J9RMBgAAAAA0CYFyPVKtq7IKKnUgmQ4Osz3wq+v8ku+Tr1eXugI8PexM9WnjYX38mL68vvvBw7/6NPb9Tb5uf73J/fixCZRzQ12BcvL+IlBuWE2g/Ok9NvCmEdHczCi5eUg0hsbo07tnuOjCC8M3Lu8WvvzlL4X27b9Kj2QAAAAAQGZUZbFx48Yp+apauXJlNKfpfJ8HDx6M5tStrnW3bt1q8zt27Fh14sSJaG7TaZ8aslVJSYmd39mzZ6M51Xy+v08+nY6+ffva+yip9q9p35fea41PmzbNplPZs2ePrVNWVhbNabr4OYiOr+nkfdGYe6s1JF9HodN10vvhP1+S007T6axXyPw90ZBJA4eOjMYAAAAAAEC2KNgayk2h3rPqVavyCSrPoLq9hWDMmDHWHjlyxFqnusZxvp56LcapHIU/OM+pPq3eRz3oTvvR++p1l5NUXkLlLPbv3x/Nqa6ZrFITw4YNs/2rdIZqM6vOc5zW0/JMXKvrr7/e2lOnTlnrNm3aZO3Ro0etBQAAAAAAAPJNwQXKAwcOtPq6euBWQ+pbVyUaFH727t275iFt+e7qq6+2dsCAARYAa1C95CSvXaxgWeuoNrJKAygM1qBp5w/fGzt2rLW33XabtXVRAK3g2UsPjBgxwuoW79u3L/Ts2dPW0cP/tI5qNCvAVqmMLl262LF/9KMf2TpNoftChg8fbvvWeeh8FIzL4cOHrUV+8p8H8+fPt2tfKB8oAQAAAAAASMEFylOmTLGaqPGHqdWloXUVKmt5odRRVc/clSurH7Q3ePBgG/RgurKyMpvnVD9YdZBVa1rr6EF7qjksegBfPKDXuHp5K4xV4KsexvW599577RzUG1g1WxUcq0fys88+W9Ozed68eXZOS5cutXNQ3WXtXx8O6Jo2lV6fzsH3rfPQ+UybNi1aA/lMPw90rXUv69one+wDAAAAAADks4J7KF82y5WHpqlH5oYNG6zXr3oFf/zxx9YTuHPnzp8rV6H5O3fuDNddd12dwbx6LGs9hcvJdbxsRvIhdzqHHTt2hIsuuqjeEFo9pKV///4pe5qno65zEO1f5+C9oxUu6jWc77GaEw/lq033UPx6Jaed35/x+b6upLrvC43+jdhD+T6Vyftr0M2jQuXPyqMpAAAAAACQDQiUswiBH5oT9xeaC4EyAAAAAACFg0A5ixD4tQz1Kk63znE+3XfcX2guBMoAAAAAABSOgquhDLzxxhth3bp1aQ0AAAAAAAAAPkMP5SxCD1I0J+4vNBd6KAMAAAAAUDhyoofyyZMnozEAQLbZv3+/tX379rU2U7Zs/Ek0BgAAAAAAskVWB8oDBw60du3atdYCALLPhx9+aG3v3r2tzZQ2F1wQjQEAAAAAgGyR1YHykCFDrK2oqAhnzpyxcQBAdlm+fLm1V155pbUAAAAAACB/ZXWg3KdPn9CxY0cb98ACAJA9VD9ZH/rJLbfcYi0AAAAAAMhfWV9DefLkydZOnTo1VFZW2jgAoPW9//77YcCAATau+smDBg2ycQAAAAAAkL+KqjL5SP5mcO7cuTBixIiaHnB79uyxnsv5qKioyNosvyTIUdxfyKS9e/eG4cOHh+PHj9t0Pv9sBgAAAAAAn8n6QFkUKnfp0qUmuBg3blyYOHFi6NWrV2jfvn1o166dzc91BH5oTtxfaAr9HD5y5EjYv39/eOqpp2o+5FNZIoXJ+lkMAAAAAADyX04EyqKvVpeUlFhwAQBofSpzoWCZMBkAAAAAgMKR9TWUnQKL3bt3h61bt1oPZX9YHwCg5ehnb2lpqX24p5/JhMkAAAAAABSWnOmhXBf1XD5z5kw0BQBoLt26dYvGAAAAAABAocr5QBkAAAAAAAAA0DJypuQFAAAAAAAAAKB1ESgDAAAAAAAAANJCoAwAAAAAAAAASAuBMgAAAAAAAAAgLQTKAAAAAAAAAIC0ECgDAAAAAAAAANJCoAwAAAAAAAAASAuBMgAAAAAAAAAgLQTKAAAAAAAAAIC0ECgDAAAAAAAAANJCoAwAAAAAAAAASAuBMgAAAAAAAAAgLQTKAAAAAAAAAIC0ECgDAAAAAAAAANJCoAwAAAAAAAAASAuBMgAAAAAAAAAgLQTKAAAAAAAAAIC0ECgDAAAAAAAAANJCoAwAAAAAAAAASAuBMgAAAAAAAAAgLQTKAAAAAAAAAIC0ECgDAAAAAAAAANJCoAwAAAAAAAAASAuBMgAAAAAAAAAgLQTKAAAAAAAAAIC0ECgDAAAAAAAAANJCoAwAAAAAAAAASAuBMgAAAAAAAAAgLQTKAAAAAAAAAIC0ECgDAAAAAAAAANJCoAwAAAAAAAAASAuBMgAAAAAAAAAgLQTKAAAAAAAAAIC0ECgDAAAAAAAAANJCoAwAAAAAAAAASAuBMgAAAAAAAAAgLQTKAAAAAAAAAIA0hPB/AeH9gnnOq54OAAAAAElFTkSuQmCC;" vertex="1" parent="WIyWlLk6GJQsqaUBKTNV-1">
          <mxGeometry x="-310" y="-90" width="1428" height="804" as="geometry" />
        </mxCell>
      </root>
    </mxGraphModel>
  </diagram>
</mxfile>
